{"glyphs":{"0":{"ha":760,"x_min":86,"x_max":674,"o":"m 378 -14 q 165 63 244 -14 q 86 267 86 139 l 86 706 q 165 909 86 833 q 378 985 244 985 q 593 908 513 985 q 674 706 674 832 l 674 267 q 593 63 674 139 q 378 -14 513 -14 m 378 72 q 521 124 467 72 q 575 261 575 175 l 575 710 q 522 846 575 794 q 378 897 468 897 q 238 846 290 897 q 185 710 185 794 l 185 261 q 238 124 185 176 q 378 72 292 72 z "},"1":{"ha":438,"x_min":40,"x_max":317,"o":"m 210 968 q 228 972 218 972 l 303 972 q 317 958 317 972 l 317 14 q 303 0 317 0 l 232 0 q 218 14 218 0 l 218 860 q 216 864 218 863 q 211 864 214 865 l 64 804 l 58 803 q 47 814 50 803 l 40 867 l 40 869 q 50 883 40 876 l 210 968 z "},"2":{"ha":704,"x_min":60,"x_max":644,"o":"m 192 93 q 194 86 188 86 l 631 86 q 644 72 644 86 l 644 14 q 631 0 644 0 l 76 0 q 63 14 63 0 l 63 72 q 69 89 63 82 q 282 350 117 144 l 385 478 q 515 735 515 643 q 465 853 515 808 q 335 897 415 897 q 207 852 256 897 q 160 733 158 807 l 160 690 q 146 676 160 676 l 74 676 q 60 690 60 676 l 60 746 q 140 918 63 853 q 335 983 217 983 q 482 951 418 983 q 580 863 546 919 q 614 736 614 807 q 485 451 614 617 q 222 129 417 364 l 192 93 z "},"3":{"ha":689,"x_min":57,"x_max":613,"o":"m 585 460 q 613 297 613 392 q 592 163 613 221 q 498 34 564 79 q 335 -11 432 -11 q 168 40 238 -11 q 72 176 99 90 q 57 282 60 215 q 71 296 57 296 l 143 296 q 157 282 157 296 q 167 207 160 231 q 224 110 181 146 q 333 75 268 75 q 496 186 458 75 q 514 300 514 236 q 490 436 514 381 q 333 536 447 536 q 282 521 313 536 q 274 518 276 518 q 264 525 268 518 l 228 574 q 229 593 221 585 l 474 879 q 471 886 478 886 l 79 886 q 65 900 65 886 l 65 958 q 79 972 65 972 l 593 972 q 607 958 607 972 l 607 890 q 600 874 607 883 l 378 607 q 376 602 375 604 q 382 600 378 600 q 585 460 531 590 z "},"4":{"ha":701,"x_min":40,"x_max":654,"o":"m 640 357 q 654 343 654 357 l 654 282 q 640 268 654 268 l 581 268 q 575 263 575 268 l 575 14 q 561 0 575 0 l 490 0 q 476 14 476 0 l 476 263 q 471 268 476 268 l 54 268 q 40 282 40 268 l 40 333 q 44 350 40 340 l 329 963 q 344 972 333 972 l 418 972 q 428 967 425 972 q 429 956 432 963 l 153 364 q 153 359 151 361 q 157 357 154 357 l 471 357 q 476 363 476 357 l 476 586 q 490 600 476 600 l 561 600 q 575 586 575 600 l 575 363 q 581 357 575 357 l 640 357 z "},"5":{"ha":706,"x_min":85,"x_max":639,"o":"m 625 425 q 639 300 639 357 q 625 183 639 238 q 531 42 601 94 q 360 -10 460 -10 q 192 40 263 -10 q 97 174 122 90 q 85 235 88 204 l 85 238 q 97 249 85 249 l 171 249 q 186 235 185 249 q 192 207 186 226 q 251 111 207 146 q 360 76 294 76 q 470 114 425 76 q 529 217 515 151 q 538 300 538 243 q 531 390 538 347 q 476 488 521 454 q 361 521 431 521 q 252 493 300 521 q 189 419 204 465 q 174 407 185 407 l 99 407 q 85 421 85 407 l 85 958 q 99 972 85 972 l 585 972 q 599 958 599 972 l 599 900 q 585 886 599 886 l 189 886 q 183 881 183 886 l 182 544 q 184 540 182 542 q 189 542 186 539 q 269 591 222 574 q 371 608 317 608 q 538 560 469 608 q 625 425 606 513 z "},"6":{"ha":692,"x_min":75,"x_max":629,"o":"m 600 457 q 629 299 629 399 q 608 160 629 214 q 515 35 579 79 q 356 -10 450 -10 q 186 38 254 -10 q 92 171 118 86 q 75 301 75 226 l 75 735 q 150 916 75 849 q 346 983 225 983 q 535 917 463 983 q 607 746 607 851 l 607 726 q 593 713 607 713 l 522 713 q 508 726 508 713 l 508 738 q 463 853 508 808 q 346 897 418 897 q 222 851 271 897 q 174 728 174 804 l 174 525 q 176 522 174 522 q 181 524 179 521 q 364 606 242 606 q 510 567 451 606 q 600 457 569 528 m 515 193 q 531 299 531 232 q 513 410 531 369 q 454 490 496 460 q 351 519 413 519 q 248 490 290 519 q 189 407 206 460 q 174 294 174 367 q 186 193 174 235 q 246 108 203 140 q 351 76 289 76 q 454 106 411 76 q 515 193 497 136 z "},"7":{"ha":651,"x_min":33,"x_max":610,"o":"m 501 879 q 501 884 503 882 q 497 886 500 886 l 122 886 q 117 881 117 886 l 117 817 q 103 803 117 803 l 47 803 q 33 817 33 803 l 33 958 q 47 972 33 972 l 596 972 q 610 958 610 972 l 610 894 q 607 878 610 889 l 286 11 q 271 0 282 0 l 193 0 q 183 5 186 0 q 182 17 179 10 l 501 879 z "},"8":{"ha":717,"x_min":81,"x_max":638,"o":"m 611 408 q 638 272 638 351 q 597 110 638 176 q 503 21 564 53 q 360 -11 442 -11 q 215 22 278 -11 q 118 117 153 54 q 81 274 81 183 q 110 413 81 351 q 211 517 142 483 q 211 524 218 519 q 135 594 163 551 q 94 731 94 651 q 135 872 94 807 q 228 956 169 926 q 360 986 288 986 q 493 956 436 986 q 585 872 550 926 q 624 731 624 810 q 583 592 624 653 q 508 524 553 547 q 508 517 501 519 q 611 408 578 483 m 213 813 q 192 731 192 768 q 221 629 192 672 q 278 576 243 594 q 358 558 314 558 q 440 577 404 558 q 500 631 476 596 q 526 732 526 671 q 506 815 526 778 q 447 877 485 854 q 357 900 408 900 q 271 876 308 900 q 213 813 233 853 m 504 147 q 538 279 538 197 q 517 392 538 349 q 457 460 497 436 q 358 483 417 483 q 206 397 251 483 q 181 278 181 350 q 213 151 181 203 q 360 75 257 75 q 504 147 457 75 z "},"9":{"ha":724,"x_min":94,"x_max":650,"o":"m 633 801 q 650 671 650 746 l 650 238 q 575 56 650 124 q 379 -11 500 -11 q 189 54 261 -11 q 117 226 117 119 l 117 246 q 131 260 117 260 l 201 260 q 215 246 215 260 l 215 235 q 261 119 215 164 q 379 75 307 75 q 503 122 454 75 q 551 244 551 168 l 551 449 q 549 452 551 451 q 544 450 546 453 q 360 367 483 367 q 213 406 272 367 q 124 515 154 444 q 94 674 94 578 q 117 813 94 754 q 210 938 146 893 q 369 982 274 982 q 538 935 469 982 q 633 801 606 888 m 374 453 q 476 483 435 453 q 535 565 518 513 q 551 678 551 610 q 538 779 551 739 q 478 864 521 832 q 372 896 436 896 q 269 866 313 896 q 210 779 226 836 q 193 674 193 736 q 213 563 193 601 q 271 482 229 511 q 374 453 313 453 z "},"\u0000":{"ha":0,"x_min":0,"x_max":0,"o":""},"\r":{"ha":278,"x_min":0,"x_max":0,"o":""}," ":{"ha":278,"x_min":0,"x_max":0,"o":""},"A":{"ha":817,"x_min":33,"x_max":782,"o":"m 693 0 q 676 11 681 0 l 621 186 q 615 190 619 190 l 201 190 q 196 186 197 190 l 140 11 q 124 0 136 0 l 49 0 q 38 15 33 0 l 344 961 q 361 972 349 972 l 454 972 q 471 961 467 972 l 781 15 l 782 10 q 769 0 782 0 l 693 0 m 224 278 q 224 273 222 275 q 229 271 226 271 l 588 271 q 592 273 590 271 q 593 278 594 275 l 413 844 q 408 847 411 847 q 404 844 406 847 l 224 278 z "},"Á":{"ha":817,"x_min":33,"x_max":782,"o":"m 693 0 q 676 11 681 0 l 621 186 q 615 190 619 190 l 201 190 q 196 186 197 190 l 140 11 q 124 0 136 0 l 49 0 q 38 15 33 0 l 344 961 q 361 972 349 972 l 454 972 q 471 961 467 972 l 781 15 l 782 10 q 769 0 782 0 l 693 0 m 224 278 q 224 273 222 275 q 229 271 226 271 l 588 271 q 592 273 590 271 q 593 278 594 275 l 413 844 q 408 847 411 847 q 404 844 406 847 l 224 278 m 433 1232 q 450 1242 438 1242 l 513 1242 q 523 1237 521 1242 q 521 1225 525 1232 l 426 1074 q 410 1064 419 1064 l 361 1064 q 351 1069 354 1064 q 351 1081 347 1074 l 433 1232 z "},"Ă":{"ha":817,"x_min":33,"x_max":782,"o":"m 693 0 q 676 11 681 0 l 621 186 q 615 190 619 190 l 201 190 q 196 186 197 190 l 140 11 q 124 0 136 0 l 49 0 q 38 15 33 0 l 344 961 q 361 972 349 972 l 454 972 q 471 961 467 972 l 781 15 l 782 10 q 769 0 782 0 l 693 0 m 224 278 q 224 273 222 275 q 229 271 226 271 l 588 271 q 592 273 590 271 q 593 278 594 275 l 413 844 q 408 847 411 847 q 404 844 406 847 l 224 278 m 406 1050 q 290 1090 338 1050 q 235 1190 242 1129 q 249 1204 235 1204 l 290 1204 q 306 1190 304 1204 q 338 1131 310 1154 q 406 1108 367 1108 q 474 1131 446 1108 q 507 1190 503 1154 q 522 1204 508 1204 l 564 1204 q 578 1192 578 1204 q 524 1090 572 1131 q 406 1050 475 1050 z "},"Ắ":{"ha":817,"x_min":33,"x_max":782,"o":"m 693 0 q 676 11 681 0 l 621 186 q 615 190 619 190 l 201 190 q 196 186 197 190 l 140 11 q 124 0 136 0 l 49 0 q 38 15 33 0 l 344 961 q 361 972 349 972 l 454 972 q 471 961 467 972 l 781 15 l 782 10 q 769 0 782 0 l 693 0 m 224 278 q 224 273 222 275 q 229 271 226 271 l 588 271 q 592 273 590 271 q 593 278 594 275 l 413 844 q 408 847 411 847 q 404 844 406 847 l 224 278 z "},"Ặ":{"ha":817,"x_min":33,"x_max":782,"o":"m 693 0 q 676 11 681 0 l 621 186 q 615 190 619 190 l 201 190 q 196 186 197 190 l 140 11 q 124 0 136 0 l 49 0 q 38 15 33 0 l 344 961 q 361 972 349 972 l 454 972 q 471 961 467 972 l 781 15 l 782 10 q 769 0 782 0 l 693 0 m 224 278 q 224 273 222 275 q 229 271 226 271 l 588 271 q 592 273 590 271 q 593 278 594 275 l 413 844 q 408 847 411 847 q 404 844 406 847 l 224 278 m 411 -253 q 358 -232 379 -253 q 338 -179 338 -211 q 358 -126 338 -147 q 411 -106 379 -106 q 464 -126 443 -106 q 485 -179 485 -147 q 464 -232 485 -211 q 411 -253 443 -253 m 406 1078 q 290 1117 338 1078 q 236 1215 243 1157 l 236 1218 q 249 1229 236 1229 l 286 1229 q 301 1215 300 1229 q 336 1157 307 1181 q 406 1133 365 1133 q 477 1156 447 1133 q 511 1215 507 1179 q 526 1229 513 1229 l 564 1229 q 578 1217 578 1229 q 524 1117 572 1157 q 406 1078 475 1078 z "},"Ằ":{"ha":817,"x_min":33,"x_max":782,"o":"m 693 0 q 676 11 681 0 l 621 186 q 615 190 619 190 l 201 190 q 196 186 197 190 l 140 11 q 124 0 136 0 l 49 0 q 38 15 33 0 l 344 961 q 361 972 349 972 l 454 972 q 471 961 467 972 l 781 15 l 782 10 q 769 0 782 0 l 693 0 m 224 278 q 224 273 222 275 q 229 271 226 271 l 588 271 q 592 273 590 271 q 593 278 594 275 l 413 844 q 408 847 411 847 q 404 844 406 847 l 224 278 z "},"Ẳ":{"ha":817,"x_min":33,"x_max":782,"o":"m 693 0 q 676 11 681 0 l 621 186 q 615 190 619 190 l 201 190 q 196 186 197 190 l 140 11 q 124 0 136 0 l 49 0 q 38 15 33 0 l 344 961 q 361 972 349 972 l 454 972 q 471 961 467 972 l 781 15 l 782 10 q 769 0 782 0 l 693 0 m 224 278 q 224 273 222 275 q 229 271 226 271 l 588 271 q 592 273 590 271 q 593 278 594 275 l 413 844 q 408 847 411 847 q 404 844 406 847 l 224 278 z "},"Ẵ":{"ha":817,"x_min":33,"x_max":782,"o":"m 693 0 q 676 11 681 0 l 621 186 q 615 190 619 190 l 201 190 q 196 186 197 190 l 140 11 q 124 0 136 0 l 49 0 q 38 15 33 0 l 344 961 q 361 972 349 972 l 454 972 q 471 961 467 972 l 781 15 l 782 10 q 769 0 782 0 l 693 0 m 224 278 q 224 273 222 275 q 229 271 226 271 l 588 271 q 592 273 590 271 q 593 278 594 275 l 413 844 q 408 847 411 847 q 404 844 406 847 l 224 278 m 492 1281 q 410 1308 451 1281 q 372 1329 385 1324 q 344 1335 360 1335 q 304 1327 321 1335 q 272 1301 288 1319 q 253 1299 264 1289 l 229 1321 q 226 1340 219 1331 q 340 1406 267 1406 q 377 1399 361 1406 q 406 1385 393 1393 q 425 1375 419 1378 q 444 1365 429 1372 q 470 1353 458 1357 q 492 1349 482 1349 q 529 1357 513 1349 q 561 1386 546 1365 q 581 1388 571 1397 l 603 1367 q 604 1346 613 1357 q 556 1297 586 1314 q 492 1281 525 1281 m 406 1078 q 290 1117 338 1078 q 236 1215 242 1157 l 236 1218 q 249 1229 236 1229 l 286 1229 q 301 1215 300 1229 q 336 1157 307 1181 q 406 1133 365 1133 q 476 1156 446 1133 q 511 1215 506 1179 q 526 1229 513 1229 l 564 1229 q 578 1217 578 1229 q 524 1117 572 1157 q 406 1078 475 1078 z "},"Ǎ":{"ha":817,"x_min":33,"x_max":782,"o":"m 693 0 q 676 11 681 0 l 621 186 q 615 190 619 190 l 201 190 q 196 186 197 190 l 140 11 q 124 0 136 0 l 49 0 q 38 15 33 0 l 344 961 q 361 972 349 972 l 454 972 q 471 961 467 972 l 781 15 l 782 10 q 769 0 782 0 l 693 0 m 224 278 q 224 273 222 275 q 229 271 226 271 l 588 271 q 592 273 590 271 q 593 278 594 275 l 413 844 q 408 847 411 847 q 404 844 406 847 l 224 278 z "},"Â":{"ha":817,"x_min":33,"x_max":782,"o":"m 693 0 q 676 11 681 0 l 621 186 q 615 190 619 190 l 201 190 q 196 186 197 190 l 140 11 q 124 0 136 0 l 49 0 q 38 15 33 0 l 344 961 q 361 972 349 972 l 454 972 q 471 961 467 972 l 781 15 l 782 10 q 769 0 782 0 l 693 0 m 224 278 q 224 273 222 275 q 229 271 226 271 l 588 271 q 592 273 590 271 q 593 278 594 275 l 413 844 q 408 847 411 847 q 404 844 406 847 l 224 278 m 347 1233 q 365 1242 353 1242 l 446 1242 q 464 1233 458 1242 l 576 1083 q 579 1075 579 1081 q 576 1069 579 1072 q 568 1067 574 1067 l 513 1067 q 494 1075 500 1067 l 411 1189 q 407 1192 410 1192 q 403 1189 404 1192 l 318 1075 q 300 1067 313 1067 l 244 1067 q 233 1072 236 1067 q 236 1083 231 1076 l 347 1233 z "},"Ấ":{"ha":817,"x_min":33,"x_max":782,"o":"m 693 0 q 676 11 681 0 l 621 186 q 615 190 619 190 l 201 190 q 196 186 197 190 l 140 11 q 124 0 136 0 l 49 0 q 38 15 33 0 l 344 961 q 361 972 349 972 l 454 972 q 471 961 467 972 l 781 15 l 782 10 q 769 0 782 0 l 693 0 m 224 278 q 224 273 222 275 q 229 271 226 271 l 588 271 q 592 273 590 271 q 593 278 594 275 l 413 844 q 408 847 411 847 q 404 844 406 847 l 224 278 z "},"Ậ":{"ha":817,"x_min":33,"x_max":782,"o":"m 693 0 q 676 11 681 0 l 621 186 q 615 190 619 190 l 201 190 q 196 186 197 190 l 140 11 q 124 0 136 0 l 49 0 q 38 15 33 0 l 344 961 q 361 972 349 972 l 454 972 q 471 961 467 972 l 781 15 l 782 10 q 769 0 782 0 l 693 0 m 224 278 q 224 273 222 275 q 229 271 226 271 l 588 271 q 592 273 590 271 q 593 278 594 275 l 413 844 q 408 847 411 847 q 404 844 406 847 l 224 278 m 411 -253 q 358 -232 379 -253 q 338 -179 338 -211 q 358 -126 338 -147 q 411 -106 379 -106 q 464 -126 443 -106 q 485 -179 485 -147 q 464 -232 485 -211 q 411 -253 443 -253 m 347 1233 q 365 1242 353 1242 l 446 1242 q 464 1233 458 1242 l 576 1083 q 579 1075 579 1081 q 576 1069 579 1072 q 568 1067 574 1067 l 513 1067 q 494 1075 500 1067 l 411 1189 q 407 1192 410 1192 q 403 1189 404 1192 l 318 1075 q 300 1067 313 1067 l 244 1067 q 233 1072 236 1067 q 236 1083 231 1076 l 347 1233 z "},"Ầ":{"ha":817,"x_min":33,"x_max":782,"o":"m 693 0 q 676 11 681 0 l 621 186 q 615 190 619 190 l 201 190 q 196 186 197 190 l 140 11 q 124 0 136 0 l 49 0 q 38 15 33 0 l 344 961 q 361 972 349 972 l 454 972 q 471 961 467 972 l 781 15 l 782 10 q 769 0 782 0 l 693 0 m 224 278 q 224 273 222 275 q 229 271 226 271 l 588 271 q 592 273 590 271 q 593 278 594 275 l 413 844 q 408 847 411 847 q 404 844 406 847 l 224 278 z "},"Ẩ":{"ha":817,"x_min":33,"x_max":782,"o":"m 693 0 q 676 11 681 0 l 621 186 q 615 190 619 190 l 201 190 q 196 186 197 190 l 140 11 q 124 0 136 0 l 49 0 q 38 15 33 0 l 344 961 q 361 972 349 972 l 454 972 q 471 961 467 972 l 781 15 l 782 10 q 769 0 782 0 l 693 0 m 224 278 q 224 273 222 275 q 229 271 226 271 l 588 271 q 592 273 590 271 q 593 278 594 275 l 413 844 q 408 847 411 847 q 404 844 406 847 l 224 278 z "},"Ẫ":{"ha":817,"x_min":33,"x_max":782,"o":"m 693 0 q 676 11 681 0 l 621 186 q 615 190 619 190 l 201 190 q 196 186 197 190 l 140 11 q 124 0 136 0 l 49 0 q 38 15 33 0 l 344 961 q 361 972 349 972 l 454 972 q 471 961 467 972 l 781 15 l 782 10 q 769 0 782 0 l 693 0 m 224 278 q 224 273 222 275 q 229 271 226 271 l 588 271 q 592 273 590 271 q 593 278 594 275 l 413 844 q 408 847 411 847 q 404 844 406 847 l 224 278 z "},"Ä":{"ha":817,"x_min":33,"x_max":782,"o":"m 693 0 q 676 11 681 0 l 621 186 q 615 190 619 190 l 201 190 q 196 186 197 190 l 140 11 q 124 0 136 0 l 49 0 q 38 15 33 0 l 344 961 q 361 972 349 972 l 454 972 q 471 961 467 972 l 781 15 l 782 10 q 769 0 782 0 l 693 0 m 224 278 q 224 273 222 275 q 229 271 226 271 l 588 271 q 592 273 590 271 q 593 278 594 275 l 413 844 q 408 847 411 847 q 404 844 406 847 l 224 278 z "},"Ạ":{"ha":817,"x_min":33,"x_max":782,"o":"m 693 0 q 676 11 681 0 l 621 186 q 615 190 619 190 l 201 190 q 196 186 197 190 l 140 11 q 124 0 136 0 l 49 0 q 38 15 33 0 l 344 961 q 361 972 349 972 l 454 972 q 471 961 467 972 l 781 15 l 782 10 q 769 0 782 0 l 693 0 m 224 278 q 224 273 222 275 q 229 271 226 271 l 588 271 q 592 273 590 271 q 593 278 594 275 l 413 844 q 408 847 411 847 q 404 844 406 847 l 224 278 m 411 -253 q 358 -232 379 -253 q 338 -179 338 -211 q 358 -126 338 -147 q 411 -106 379 -106 q 464 -126 443 -106 q 485 -179 485 -147 q 464 -232 485 -211 q 411 -253 443 -253 z "},"À":{"ha":817,"x_min":33,"x_max":782,"o":"m 693 0 q 676 11 681 0 l 621 186 q 615 190 619 190 l 201 190 q 196 186 197 190 l 140 11 q 124 0 136 0 l 49 0 q 38 15 33 0 l 344 961 q 361 972 349 972 l 454 972 q 471 961 467 972 l 781 15 l 782 10 q 769 0 782 0 l 693 0 m 224 278 q 224 273 222 275 q 229 271 226 271 l 588 271 q 592 273 590 271 q 593 278 594 275 l 413 844 q 408 847 411 847 q 404 844 406 847 l 224 278 m 386 1064 q 369 1074 376 1064 l 275 1225 q 272 1233 272 1231 q 285 1242 272 1242 l 347 1242 q 364 1232 360 1242 l 446 1081 l 449 1074 q 445 1067 449 1069 q 436 1064 442 1064 l 386 1064 z "},"Ả":{"ha":817,"x_min":33,"x_max":782,"o":"m 693 0 q 676 11 681 0 l 621 186 q 615 190 619 190 l 201 190 q 196 186 197 190 l 140 11 q 124 0 136 0 l 49 0 q 38 15 33 0 l 344 961 q 361 972 349 972 l 454 972 q 471 961 467 972 l 781 15 l 782 10 q 769 0 782 0 l 693 0 m 224 278 q 224 273 222 275 q 229 271 226 271 l 588 271 q 592 273 590 271 q 593 278 594 275 l 413 844 q 408 847 411 847 q 404 844 406 847 l 224 278 m 397 1039 q 388 1045 390 1040 q 388 1056 385 1050 q 410 1093 397 1076 q 435 1122 422 1110 q 461 1153 453 1139 q 469 1188 469 1167 q 452 1222 469 1207 q 411 1238 435 1238 q 372 1226 388 1238 q 336 1188 356 1215 q 317 1185 328 1176 l 294 1199 q 290 1218 283 1207 q 343 1276 317 1258 q 414 1293 369 1293 q 498 1264 465 1293 q 531 1188 531 1235 q 518 1137 531 1157 q 479 1089 506 1117 q 440 1042 450 1063 q 422 1033 435 1032 l 397 1039 z "},"Ā":{"ha":817,"x_min":33,"x_max":782,"o":"m 693 0 q 676 11 681 0 l 621 186 q 615 190 619 190 l 201 190 q 196 186 197 190 l 140 11 q 124 0 136 0 l 49 0 q 38 15 33 0 l 344 961 q 361 972 349 972 l 454 972 q 471 961 467 972 l 781 15 l 782 10 q 769 0 782 0 l 693 0 m 224 278 q 224 273 222 275 q 229 271 226 271 l 588 271 q 592 273 590 271 q 593 278 594 275 l 413 844 q 408 847 411 847 q 404 844 406 847 l 224 278 m 221 1151 q 235 1165 221 1165 l 581 1165 q 594 1151 594 1165 l 594 1108 q 581 1094 594 1094 l 235 1094 q 221 1108 221 1094 l 221 1151 z "},"Ą":{"ha":843,"x_min":33,"x_max":826,"o":"m 693 0 q 676 11 681 0 l 621 186 q 615 190 619 190 l 201 190 q 196 186 197 190 l 140 11 q 124 0 136 0 l 49 0 q 38 15 33 0 l 344 961 q 361 972 349 972 l 454 972 q 471 961 467 972 l 781 15 l 782 10 q 769 0 782 0 l 693 0 m 224 278 q 224 273 222 275 q 229 271 226 271 l 588 271 q 592 273 590 271 q 593 278 594 275 l 413 844 q 408 847 411 847 q 404 844 406 847 l 224 278 m 826 -239 q 817 -251 826 -247 q 760 -258 789 -258 q 683 -239 715 -258 q 639 -175 650 -219 q 635 -143 635 -161 q 717 -6 635 -71 q 735 0 724 0 l 772 0 q 783 -7 783 0 q 778 -17 783 -12 q 707 -131 707 -76 q 726 -181 707 -164 q 775 -197 744 -197 q 806 -193 790 -197 l 810 -192 q 822 -204 819 -192 l 826 -235 l 826 -239 z "},"Å":{"ha":817,"x_min":33,"x_max":782,"o":"m 693 0 q 676 11 681 0 l 621 186 q 615 190 619 190 l 201 190 q 196 186 197 190 l 140 11 q 124 0 136 0 l 49 0 q 38 15 33 0 l 344 961 q 361 972 349 972 l 454 972 q 471 961 467 972 l 781 15 l 782 10 q 769 0 782 0 l 693 0 m 224 278 q 224 273 222 275 q 229 271 226 271 l 588 271 q 592 273 590 271 q 593 278 594 275 l 413 844 q 408 847 411 847 q 404 844 406 847 l 224 278 m 407 1074 q 298 1117 342 1074 q 254 1224 254 1160 q 299 1330 254 1286 q 407 1374 343 1374 q 515 1330 471 1374 q 558 1224 558 1286 q 515 1117 558 1160 q 407 1074 471 1074 m 407 1133 q 472 1159 444 1133 q 499 1224 499 1185 q 472 1289 499 1263 q 407 1315 444 1315 q 341 1289 368 1315 q 314 1224 314 1263 q 341 1159 314 1185 q 407 1133 368 1133 z "},"Ã":{"ha":817,"x_min":33,"x_max":782,"o":"m 693 0 q 676 11 681 0 l 621 186 q 615 190 619 190 l 201 190 q 196 186 197 190 l 140 11 q 124 0 136 0 l 49 0 q 38 15 33 0 l 344 961 q 361 972 349 972 l 454 972 q 471 961 467 972 l 781 15 l 782 10 q 769 0 782 0 l 693 0 m 224 278 q 224 273 222 275 q 229 271 226 271 l 588 271 q 592 273 590 271 q 593 278 594 275 l 413 844 q 408 847 411 847 q 404 844 406 847 l 224 278 m 494 1107 q 449 1115 468 1107 q 408 1138 429 1124 q 369 1158 383 1153 q 339 1164 356 1164 q 297 1156 314 1164 q 263 1129 279 1149 q 243 1126 254 1117 l 218 1151 q 215 1171 208 1161 q 335 1239 261 1239 q 374 1232 357 1239 q 406 1217 392 1225 q 425 1207 421 1210 q 445 1196 431 1204 q 472 1183 460 1188 q 494 1179 483 1179 q 534 1188 517 1179 q 568 1218 551 1196 q 588 1221 576 1232 l 611 1197 q 614 1176 619 1189 q 562 1125 594 1143 q 494 1107 529 1107 z "},"Æ":{"ha":1218,"x_min":14,"x_max":1163,"o":"m 1163 900 q 1149 886 1163 886 l 675 886 q 669 881 669 886 l 669 538 q 675 532 669 532 l 996 532 q 1010 518 1010 532 l 1010 460 q 996 446 1010 446 l 675 446 q 669 440 669 446 l 669 92 q 675 86 669 86 l 1149 86 q 1163 72 1163 86 l 1163 14 q 1149 0 1163 0 l 585 0 q 571 14 571 0 l 571 185 q 565 190 571 190 l 221 190 q 215 186 218 190 l 124 10 q 107 0 119 0 l 26 0 q 17 5 19 0 q 17 17 14 10 l 515 963 q 532 972 519 972 l 1149 972 q 1163 958 1163 972 l 1163 900 m 263 278 q 267 271 260 271 l 565 271 q 571 276 571 271 l 571 854 q 569 858 571 858 q 564 856 567 858 l 263 278 z "},"B":{"ha":831,"x_min":119,"x_max":760,"o":"m 607 507 q 607 499 600 503 q 721 408 682 468 q 760 264 760 349 q 679 69 760 139 q 468 0 599 0 l 133 0 q 119 14 119 0 l 119 958 q 133 972 119 972 l 460 972 q 672 906 594 972 q 749 718 749 839 q 712 588 749 642 q 607 507 675 535 m 224 886 q 218 881 218 886 l 218 547 q 224 542 218 542 l 460 542 q 599 588 547 542 q 651 710 651 633 q 599 838 651 790 q 460 886 547 886 l 224 886 m 468 88 q 609 138 557 88 q 661 272 661 188 q 607 408 661 357 q 463 458 553 458 l 224 458 q 218 453 218 458 l 218 93 q 224 88 218 88 l 468 88 z "},"C":{"ha":790,"x_min":81,"x_max":732,"o":"m 407 -12 q 235 26 310 -12 q 121 134 161 64 q 81 296 81 204 l 81 678 q 121 838 81 768 q 235 945 161 907 q 407 983 310 983 q 576 946 503 983 q 691 840 650 908 q 732 683 732 772 q 728 672 732 676 q 718 668 724 668 l 647 664 q 633 676 633 664 l 633 681 q 572 838 633 778 q 407 897 510 897 q 242 838 304 897 q 179 681 179 779 l 179 292 q 242 134 179 193 q 407 75 304 75 q 572 135 510 75 q 633 292 633 194 l 633 294 q 647 307 633 307 l 718 303 q 732 290 732 303 q 691 131 732 200 q 576 25 650 63 q 407 -12 503 -12 z "},"Ć":{"ha":790,"x_min":81,"x_max":732,"o":"m 407 -12 q 235 26 310 -12 q 121 134 161 64 q 81 296 81 204 l 81 678 q 121 838 81 768 q 235 945 161 907 q 407 983 310 983 q 576 946 503 983 q 691 840 650 908 q 732 683 732 772 q 728 672 732 676 q 718 668 724 668 l 647 664 q 633 676 633 664 l 633 681 q 572 838 633 778 q 407 897 510 897 q 242 838 304 897 q 179 681 179 779 l 179 292 q 242 134 179 193 q 407 75 304 75 q 572 135 510 75 q 633 292 633 194 l 633 294 q 647 307 633 307 l 718 303 q 732 290 732 303 q 691 131 732 200 q 576 25 650 63 q 407 -12 503 -12 m 433 1232 q 450 1242 438 1242 l 513 1242 q 523 1237 521 1242 q 521 1225 525 1232 l 426 1074 q 410 1064 419 1064 l 361 1064 q 351 1069 354 1064 q 351 1081 347 1074 l 433 1232 z "},"Č":{"ha":790,"x_min":81,"x_max":732,"o":"m 407 -12 q 235 26 310 -12 q 121 134 161 64 q 81 296 81 204 l 81 678 q 121 838 81 768 q 235 945 161 907 q 407 983 310 983 q 576 946 503 983 q 691 840 650 908 q 732 683 732 772 q 728 672 732 676 q 718 668 724 668 l 647 664 q 633 676 633 664 l 633 681 q 572 838 633 778 q 407 897 510 897 q 242 838 304 897 q 179 681 179 779 l 179 292 q 242 134 179 193 q 407 75 304 75 q 572 135 510 75 q 633 292 633 194 l 633 294 q 647 307 633 307 l 718 303 q 732 290 732 303 q 691 131 732 200 q 576 25 650 63 q 407 -12 503 -12 m 239 1225 q 236 1233 236 1228 q 239 1239 236 1236 q 247 1242 242 1242 l 303 1242 q 321 1233 315 1242 l 406 1119 q 410 1118 407 1118 q 414 1119 413 1118 l 497 1233 q 515 1242 503 1242 l 571 1242 q 582 1237 579 1242 q 579 1225 585 1232 l 467 1075 q 449 1067 461 1067 l 368 1067 q 350 1075 356 1067 l 239 1225 z "},"Ç":{"ha":790,"x_min":81,"x_max":732,"o":"m 732 676 q 728 671 732 674 q 718 668 724 668 l 647 664 q 633 676 633 664 l 633 681 q 572 838 633 778 q 407 897 510 897 q 242 838 304 897 q 179 681 179 779 l 179 292 q 242 134 179 193 q 407 75 304 75 q 572 135 510 75 q 633 292 633 194 l 633 294 q 647 307 633 307 l 718 303 q 732 290 732 303 q 691 131 732 200 q 576 25 650 63 q 407 -12 503 -12 q 405 -15 404 -12 q 408 -19 406 -17 q 476 -149 476 -79 q 474 -176 476 -167 q 428 -240 463 -221 q 351 -260 394 -260 q 294 -253 322 -260 q 285 -236 283 -249 l 290 -204 q 297 -195 292 -197 q 307 -194 301 -193 q 338 -199 324 -199 q 385 -182 367 -199 q 404 -132 404 -165 q 381 -67 404 -100 q 318 -6 357 -35 q 311 -1 318 -4 q 142 102 204 22 q 81 296 81 182 l 81 678 q 121 838 81 768 q 235 945 161 907 q 407 983 310 983 q 576 946 503 983 q 691 840 650 908 q 732 683 732 772 l 732 676 z "},"Ĉ":{"ha":790,"x_min":81,"x_max":732,"o":"m 407 -12 q 235 26 310 -12 q 121 134 161 64 q 81 296 81 204 l 81 678 q 121 838 81 768 q 235 945 161 907 q 407 983 310 983 q 576 946 503 983 q 691 840 650 908 q 732 683 732 772 q 728 672 732 676 q 718 668 724 668 l 647 664 q 633 676 633 664 l 633 681 q 572 838 633 778 q 407 897 510 897 q 242 838 304 897 q 179 681 179 779 l 179 292 q 242 134 179 193 q 407 75 304 75 q 572 135 510 75 q 633 292 633 194 l 633 294 q 647 307 633 307 l 718 303 q 732 290 732 303 q 691 131 732 200 q 576 25 650 63 q 407 -12 503 -12 m 347 1233 q 365 1242 353 1242 l 446 1242 q 464 1233 458 1242 l 576 1083 q 579 1075 579 1081 q 576 1069 579 1072 q 568 1067 574 1067 l 513 1067 q 494 1075 500 1067 l 411 1189 q 407 1192 410 1192 q 403 1189 404 1192 l 318 1075 q 300 1067 313 1067 l 244 1067 q 233 1072 236 1067 q 236 1083 231 1076 l 347 1233 z "},"Ċ":{"ha":790,"x_min":81,"x_max":732,"o":"m 407 -12 q 235 26 310 -12 q 121 134 161 64 q 81 296 81 204 l 81 678 q 121 838 81 768 q 235 945 161 907 q 407 983 310 983 q 576 946 503 983 q 691 840 650 908 q 732 683 732 772 q 728 672 732 676 q 718 668 724 668 l 647 664 q 633 676 633 664 l 633 681 q 572 838 633 778 q 407 897 510 897 q 242 838 304 897 q 179 681 179 779 l 179 292 q 242 134 179 193 q 407 75 304 75 q 572 135 510 75 q 633 292 633 194 l 633 294 q 647 307 633 307 l 718 303 q 732 290 732 303 q 691 131 732 200 q 576 25 650 63 q 407 -12 503 -12 m 406 1100 q 349 1122 371 1100 q 328 1178 328 1144 q 349 1234 328 1213 q 406 1256 371 1256 q 461 1234 439 1256 q 483 1178 483 1213 q 461 1122 483 1144 q 406 1100 439 1100 z "},"D":{"ha":842,"x_min":119,"x_max":761,"o":"m 119 958 q 133 972 119 972 l 461 972 q 680 900 599 972 q 761 704 761 828 l 761 268 q 680 72 761 144 q 461 0 599 0 l 133 0 q 119 14 119 0 l 119 958 m 465 86 q 608 138 556 86 q 663 281 661 190 l 663 690 q 609 833 663 781 q 465 886 556 886 l 224 886 q 218 881 218 886 l 218 92 q 224 86 218 86 l 465 86 z "},"Ð":{"ha":839,"x_min":38,"x_max":758,"o":"m 458 972 q 677 900 596 972 q 758 704 758 828 l 758 268 q 677 72 758 144 q 458 0 596 0 l 131 0 q 117 14 117 0 l 117 464 q 111 469 117 469 l 51 469 q 38 483 38 469 l 38 528 q 51 542 38 542 l 111 542 q 117 547 117 542 l 117 958 q 131 972 117 972 l 458 972 m 660 690 q 607 833 660 781 q 463 886 554 886 l 221 886 q 215 881 215 886 l 215 547 q 221 542 215 542 l 397 542 q 411 528 411 542 l 411 483 q 397 469 411 469 l 221 469 q 215 464 215 469 l 215 92 q 221 86 215 86 l 463 86 q 606 139 553 86 q 660 281 660 192 l 660 690 z "},"Ď":{"ha":842,"x_min":119,"x_max":761,"o":"m 119 958 q 133 972 119 972 l 461 972 q 680 900 599 972 q 761 704 761 828 l 761 268 q 680 72 761 144 q 461 0 599 0 l 133 0 q 119 14 119 0 l 119 958 m 465 86 q 608 138 556 86 q 663 281 661 190 l 663 690 q 609 833 663 781 q 465 886 556 886 l 224 886 q 218 881 218 886 l 218 92 q 224 86 218 86 l 465 86 z "},"Đ":{"ha":839,"x_min":38,"x_max":758,"o":"m 458 972 q 677 900 596 972 q 758 704 758 828 l 758 268 q 677 72 758 144 q 458 0 596 0 l 131 0 q 117 14 117 0 l 117 464 q 111 469 117 469 l 51 469 q 38 483 38 469 l 38 528 q 51 542 38 542 l 111 542 q 117 547 117 542 l 117 958 q 131 972 117 972 l 458 972 m 660 690 q 607 833 660 781 q 463 886 554 886 l 221 886 q 215 881 215 886 l 215 547 q 221 542 215 542 l 397 542 q 411 528 411 542 l 411 483 q 397 469 411 469 l 221 469 q 215 464 215 469 l 215 92 q 221 86 215 86 l 463 86 q 606 139 553 86 q 660 281 660 192 l 660 690 z "},"E":{"ha":804,"x_min":119,"x_max":749,"o":"m 749 900 q 735 886 749 886 l 224 886 q 218 881 218 886 l 218 538 q 224 532 218 532 l 582 532 q 596 518 596 532 l 596 460 q 582 446 596 446 l 224 446 q 218 440 218 446 l 218 92 q 224 86 218 86 l 735 86 q 749 72 749 86 l 749 14 q 735 0 749 0 l 133 0 q 119 14 119 0 l 119 958 q 133 972 119 972 l 735 972 q 749 958 749 972 l 749 900 z "},"É":{"ha":804,"x_min":119,"x_max":749,"o":"m 749 900 q 735 886 749 886 l 224 886 q 218 881 218 886 l 218 538 q 224 532 218 532 l 582 532 q 596 518 596 532 l 596 460 q 582 446 596 446 l 224 446 q 218 440 218 446 l 218 92 q 224 86 218 86 l 735 86 q 749 72 749 86 l 749 14 q 735 0 749 0 l 133 0 q 119 14 119 0 l 119 958 q 133 972 119 972 l 735 972 q 749 958 749 972 l 749 900 m 456 1232 q 472 1242 460 1242 l 535 1242 q 545 1237 543 1242 q 543 1225 547 1232 l 449 1074 q 432 1064 442 1064 l 383 1064 q 373 1069 376 1064 q 374 1081 369 1074 l 456 1232 z "},"Ě":{"ha":804,"x_min":119,"x_max":749,"o":"m 749 900 q 735 886 749 886 l 224 886 q 218 881 218 886 l 218 538 q 224 532 218 532 l 582 532 q 596 518 596 532 l 596 460 q 582 446 596 446 l 224 446 q 218 440 218 446 l 218 92 q 224 86 218 86 l 735 86 q 749 72 749 86 l 749 14 q 735 0 749 0 l 133 0 q 119 14 119 0 l 119 958 q 133 972 119 972 l 735 972 q 749 958 749 972 l 749 900 m 261 1225 q 258 1233 258 1228 q 261 1239 258 1236 q 269 1242 264 1242 l 325 1242 q 343 1233 338 1242 l 428 1119 q 432 1118 429 1118 q 436 1119 435 1118 l 519 1233 q 538 1242 525 1242 l 593 1242 q 604 1237 601 1242 q 601 1225 607 1232 l 489 1075 q 471 1067 483 1067 l 390 1067 q 372 1075 378 1067 l 261 1225 z "},"Ȩ":{"ha":804,"x_min":119,"x_max":749,"o":"m 749 900 q 735 886 749 886 l 224 886 q 218 881 218 886 l 218 538 q 224 532 218 532 l 582 532 q 596 518 596 532 l 596 460 q 582 446 596 446 l 224 446 q 218 440 218 446 l 218 92 q 224 86 218 86 l 735 86 q 749 72 749 86 l 749 14 q 735 0 749 0 l 482 0 q 478 -2 479 0 q 481 -7 478 -4 q 549 -136 549 -67 q 546 -164 549 -154 q 501 -228 535 -208 q 424 -247 467 -247 q 367 -240 394 -247 q 357 -224 356 -236 l 363 -192 q 369 -183 364 -185 q 379 -182 374 -181 q 410 -186 396 -186 q 458 -169 439 -186 q 476 -121 476 -153 q 403 -3 476 -64 q 396 0 401 0 l 133 0 q 119 14 119 0 l 119 958 q 133 972 119 972 l 735 972 q 749 958 749 972 l 749 900 z "},"Ê":{"ha":804,"x_min":119,"x_max":749,"o":"m 749 900 q 735 886 749 886 l 224 886 q 218 881 218 886 l 218 538 q 224 532 218 532 l 582 532 q 596 518 596 532 l 596 460 q 582 446 596 446 l 224 446 q 218 440 218 446 l 218 92 q 224 86 218 86 l 735 86 q 749 72 749 86 l 749 14 q 735 0 749 0 l 133 0 q 119 14 119 0 l 119 958 q 133 972 119 972 l 735 972 q 749 958 749 972 l 749 900 m 368 1233 q 386 1242 374 1242 l 467 1242 q 485 1233 479 1242 l 597 1083 q 600 1075 600 1081 q 597 1069 600 1072 q 589 1067 594 1067 l 533 1067 q 515 1075 521 1067 l 432 1189 q 428 1192 431 1192 q 424 1189 425 1192 l 339 1075 q 321 1067 333 1067 l 265 1067 q 254 1072 257 1067 q 257 1083 251 1076 l 368 1233 z "},"Ế":{"ha":804,"x_min":119,"x_max":774,"o":"m 749 900 q 735 886 749 886 l 224 886 q 218 881 218 886 l 218 538 q 224 532 218 532 l 582 532 q 596 518 596 532 l 596 460 q 582 446 596 446 l 224 446 q 218 440 218 446 l 218 92 q 224 86 218 86 l 735 86 q 749 72 749 86 l 749 14 q 735 0 749 0 l 133 0 q 119 14 119 0 l 119 958 q 133 972 119 972 l 735 972 q 749 958 749 972 l 749 900 z "},"Ệ":{"ha":804,"x_min":119,"x_max":749,"o":"m 749 900 q 735 886 749 886 l 224 886 q 218 881 218 886 l 218 538 q 224 532 218 532 l 582 532 q 596 518 596 532 l 596 460 q 582 446 596 446 l 224 446 q 218 440 218 446 l 218 92 q 224 86 218 86 l 735 86 q 749 72 749 86 l 749 14 q 735 0 749 0 l 133 0 q 119 14 119 0 l 119 958 q 133 972 119 972 l 735 972 q 749 958 749 972 l 749 900 m 436 -253 q 383 -232 404 -253 q 363 -179 363 -211 q 383 -126 363 -147 q 436 -106 404 -106 q 489 -126 468 -106 q 510 -179 510 -147 q 489 -232 510 -211 q 436 -253 468 -253 m 368 1233 q 386 1242 374 1242 l 467 1242 q 485 1233 479 1242 l 597 1083 q 600 1075 600 1081 q 597 1069 600 1072 q 589 1067 594 1067 l 533 1067 q 515 1075 521 1067 l 432 1189 q 428 1192 431 1192 q 424 1189 425 1192 l 339 1075 q 321 1067 333 1067 l 265 1067 q 254 1072 257 1067 q 257 1083 251 1076 l 368 1233 z "},"Ề":{"ha":804,"x_min":119,"x_max":749,"o":"m 749 900 q 735 886 749 886 l 224 886 q 218 881 218 886 l 218 538 q 224 532 218 532 l 582 532 q 596 518 596 532 l 596 460 q 582 446 596 446 l 224 446 q 218 440 218 446 l 218 92 q 224 86 218 86 l 735 86 q 749 72 749 86 l 749 14 q 735 0 749 0 l 133 0 q 119 14 119 0 l 119 958 q 133 972 119 972 l 735 972 q 749 958 749 972 l 749 900 z "},"Ể":{"ha":804,"x_min":119,"x_max":749,"o":"m 749 900 q 735 886 749 886 l 224 886 q 218 881 218 886 l 218 538 q 224 532 218 532 l 582 532 q 596 518 596 532 l 596 460 q 582 446 596 446 l 224 446 q 218 440 218 446 l 218 92 q 224 86 218 86 l 735 86 q 749 72 749 86 l 749 14 q 735 0 749 0 l 133 0 q 119 14 119 0 l 119 958 q 133 972 119 972 l 735 972 q 749 958 749 972 l 749 900 z "},"Ễ":{"ha":804,"x_min":119,"x_max":749,"o":"m 749 900 q 735 886 749 886 l 224 886 q 218 881 218 886 l 218 538 q 224 532 218 532 l 582 532 q 596 518 596 532 l 596 460 q 582 446 596 446 l 224 446 q 218 440 218 446 l 218 92 q 224 86 218 86 l 735 86 q 749 72 749 86 l 749 14 q 735 0 749 0 l 133 0 q 119 14 119 0 l 119 958 q 133 972 119 972 l 735 972 q 749 958 749 972 l 749 900 z "},"Ë":{"ha":804,"x_min":119,"x_max":749,"o":"m 749 900 q 735 886 749 886 l 224 886 q 218 881 218 886 l 218 538 q 224 532 218 532 l 582 532 q 596 518 596 532 l 596 460 q 582 446 596 446 l 224 446 q 218 440 218 446 l 218 92 q 224 86 218 86 l 735 86 q 749 72 749 86 l 749 14 q 735 0 749 0 l 133 0 q 119 14 119 0 l 119 958 q 133 972 119 972 l 735 972 q 749 958 749 972 l 749 900 z "},"Ė":{"ha":804,"x_min":119,"x_max":749,"o":"m 749 900 q 735 886 749 886 l 224 886 q 218 881 218 886 l 218 538 q 224 532 218 532 l 582 532 q 596 518 596 532 l 596 460 q 582 446 596 446 l 224 446 q 218 440 218 446 l 218 92 q 224 86 218 86 l 735 86 q 749 72 749 86 l 749 14 q 735 0 749 0 l 133 0 q 119 14 119 0 l 119 958 q 133 972 119 972 l 735 972 q 749 958 749 972 l 749 900 m 428 1100 q 372 1122 393 1100 q 350 1178 350 1144 q 372 1234 350 1213 q 428 1256 393 1256 q 483 1234 461 1256 q 506 1178 506 1213 q 483 1122 506 1144 q 428 1100 461 1100 z "},"Ẹ":{"ha":804,"x_min":119,"x_max":749,"o":"m 749 900 q 735 886 749 886 l 224 886 q 218 881 218 886 l 218 538 q 224 532 218 532 l 582 532 q 596 518 596 532 l 596 460 q 582 446 596 446 l 224 446 q 218 440 218 446 l 218 92 q 224 86 218 86 l 735 86 q 749 72 749 86 l 749 14 q 735 0 749 0 l 133 0 q 119 14 119 0 l 119 958 q 133 972 119 972 l 735 972 q 749 958 749 972 l 749 900 m 436 -253 q 383 -232 404 -253 q 363 -179 363 -211 q 383 -126 363 -147 q 436 -106 404 -106 q 489 -126 468 -106 q 510 -179 510 -147 q 489 -232 510 -211 q 436 -253 468 -253 z "},"È":{"ha":804,"x_min":119,"x_max":749,"o":"m 749 900 q 735 886 749 886 l 224 886 q 218 881 218 886 l 218 538 q 224 532 218 532 l 582 532 q 596 518 596 532 l 596 460 q 582 446 596 446 l 224 446 q 218 440 218 446 l 218 92 q 224 86 218 86 l 735 86 q 749 72 749 86 l 749 14 q 735 0 749 0 l 133 0 q 119 14 119 0 l 119 958 q 133 972 119 972 l 735 972 q 749 958 749 972 l 749 900 m 407 1064 q 390 1074 397 1064 l 296 1225 q 293 1233 293 1231 q 306 1242 293 1242 l 368 1242 q 385 1232 381 1242 l 467 1081 l 469 1074 q 466 1067 469 1069 q 457 1064 463 1064 l 407 1064 z "},"Ẻ":{"ha":804,"x_min":119,"x_max":749,"o":"m 749 900 q 735 886 749 886 l 224 886 q 218 881 218 886 l 218 538 q 224 532 218 532 l 582 532 q 596 518 596 532 l 596 460 q 582 446 596 446 l 224 446 q 218 440 218 446 l 218 92 q 224 86 218 86 l 735 86 q 749 72 749 86 l 749 14 q 735 0 749 0 l 133 0 q 119 14 119 0 l 119 958 q 133 972 119 972 l 735 972 q 749 958 749 972 l 749 900 m 418 1039 q 408 1045 411 1040 q 408 1056 406 1050 q 431 1093 418 1076 q 456 1122 443 1110 q 482 1153 474 1139 q 490 1188 490 1167 q 473 1222 490 1207 q 432 1238 456 1238 q 392 1226 408 1238 q 357 1188 376 1215 q 338 1185 349 1176 l 315 1199 q 311 1218 304 1207 q 364 1276 338 1258 q 435 1293 390 1293 q 519 1264 486 1293 q 551 1188 551 1235 q 539 1137 551 1157 q 500 1089 526 1117 q 461 1042 471 1063 q 443 1033 456 1032 l 418 1039 z "},"Ē":{"ha":804,"x_min":119,"x_max":749,"o":"m 749 900 q 735 886 749 886 l 224 886 q 218 881 218 886 l 218 538 q 224 532 218 532 l 582 532 q 596 518 596 532 l 596 460 q 582 446 596 446 l 224 446 q 218 440 218 446 l 218 92 q 224 86 218 86 l 735 86 q 749 72 749 86 l 749 14 q 735 0 749 0 l 133 0 q 119 14 119 0 l 119 958 q 133 972 119 972 l 735 972 q 749 958 749 972 l 749 900 m 242 1151 q 256 1165 242 1165 l 601 1165 q 615 1151 615 1165 l 615 1108 q 601 1094 615 1094 l 256 1094 q 242 1108 242 1094 l 242 1151 z "},"Ę":{"ha":804,"x_min":119,"x_max":749,"o":"m 749 900 q 735 886 749 886 l 224 886 q 218 881 218 886 l 218 538 q 224 532 218 532 l 582 532 q 596 518 596 532 l 596 460 q 582 446 596 446 l 224 446 q 218 440 218 446 l 218 92 q 224 86 218 86 l 735 86 q 749 72 749 86 l 749 14 q 735 0 749 0 l 475 0 q 468 -3 471 0 q 393 -121 393 -64 q 412 -170 393 -154 q 461 -186 431 -186 q 492 -182 478 -186 l 497 -181 q 508 -192 506 -181 l 514 -224 l 514 -226 q 503 -240 514 -236 q 446 -247 475 -247 q 369 -228 401 -247 q 325 -164 336 -208 q 321 -133 321 -150 q 389 -7 321 -67 q 391 -2 392 -4 q 388 0 390 0 l 133 0 q 119 14 119 0 l 119 958 q 133 972 119 972 l 735 972 q 749 958 749 972 l 749 900 z "},"Ẽ":{"ha":804,"x_min":119,"x_max":749,"o":"m 749 900 q 735 886 749 886 l 224 886 q 218 881 218 886 l 218 538 q 224 532 218 532 l 582 532 q 596 518 596 532 l 596 460 q 582 446 596 446 l 224 446 q 218 440 218 446 l 218 92 q 224 86 218 86 l 735 86 q 749 72 749 86 l 749 14 q 735 0 749 0 l 133 0 q 119 14 119 0 l 119 958 q 133 972 119 972 l 735 972 q 749 958 749 972 l 749 900 m 515 1107 q 469 1115 489 1107 q 429 1138 450 1124 q 390 1158 404 1153 q 360 1164 376 1164 q 317 1156 335 1164 q 283 1129 300 1149 q 264 1126 275 1117 l 239 1151 q 236 1171 229 1161 q 356 1239 282 1239 q 395 1232 378 1239 q 427 1217 413 1225 q 446 1207 442 1210 q 466 1196 451 1204 q 492 1183 481 1188 q 515 1179 504 1179 q 555 1188 538 1179 q 589 1218 572 1196 q 608 1221 597 1232 l 632 1197 q 635 1176 640 1189 q 583 1125 615 1143 q 515 1107 550 1107 z "},"F":{"ha":779,"x_min":119,"x_max":747,"o":"m 747 900 q 733 886 747 886 l 224 886 q 218 881 218 886 l 218 538 q 224 532 218 532 l 581 532 q 594 518 594 532 l 594 460 q 581 446 594 446 l 224 446 q 218 440 218 446 l 218 14 q 204 0 218 0 l 133 0 q 119 14 119 0 l 119 958 q 133 972 119 972 l 733 972 q 747 958 747 972 l 747 900 z "},"G":{"ha":803,"x_min":78,"x_max":729,"o":"m 404 -11 q 233 27 307 -11 q 119 135 160 65 q 78 294 78 204 l 78 678 q 119 838 78 768 q 233 945 160 907 q 404 983 307 983 q 574 946 500 983 q 689 841 649 908 q 729 689 729 774 l 729 671 q 715 657 729 657 l 644 657 q 631 671 631 657 l 631 688 q 569 839 631 781 q 404 897 507 897 q 239 838 301 897 q 176 681 176 778 l 176 292 q 240 135 176 194 q 408 75 304 75 q 570 131 510 75 q 631 279 631 186 l 631 406 q 625 411 631 411 l 421 411 q 407 425 407 411 l 407 483 q 421 497 407 497 l 715 497 q 729 483 729 497 l 729 304 q 641 72 729 156 q 404 -11 553 -11 z "},"Ğ":{"ha":803,"x_min":78,"x_max":729,"o":"m 404 -11 q 233 27 307 -11 q 119 135 160 65 q 78 294 78 204 l 78 678 q 119 838 78 768 q 233 945 160 907 q 404 983 307 983 q 574 946 500 983 q 689 841 649 908 q 729 689 729 774 l 729 671 q 715 657 729 657 l 644 657 q 631 671 631 657 l 631 688 q 569 839 631 781 q 404 897 507 897 q 239 838 301 897 q 176 681 176 778 l 176 292 q 240 135 176 194 q 408 75 304 75 q 570 131 510 75 q 631 279 631 186 l 631 406 q 625 411 631 411 l 421 411 q 407 425 407 411 l 407 483 q 421 497 407 497 l 715 497 q 729 483 729 497 l 729 304 q 641 72 729 156 q 404 -11 553 -11 m 403 1050 q 287 1090 335 1050 q 232 1190 239 1129 q 246 1204 232 1204 l 288 1204 q 303 1190 301 1204 q 335 1131 307 1154 q 403 1108 364 1108 q 472 1131 443 1108 q 504 1190 500 1154 q 519 1204 506 1204 l 561 1204 q 575 1192 575 1204 q 521 1090 569 1131 q 403 1050 472 1050 z "},"Ĝ":{"ha":803,"x_min":78,"x_max":729,"o":"m 404 -11 q 233 27 307 -11 q 119 135 160 65 q 78 294 78 204 l 78 678 q 119 838 78 768 q 233 945 160 907 q 404 983 307 983 q 574 946 500 983 q 689 841 649 908 q 729 689 729 774 l 729 671 q 715 657 729 657 l 644 657 q 631 671 631 657 l 631 688 q 569 839 631 781 q 404 897 507 897 q 239 838 301 897 q 176 681 176 778 l 176 292 q 240 135 176 194 q 408 75 304 75 q 570 131 510 75 q 631 279 631 186 l 631 406 q 625 411 631 411 l 421 411 q 407 425 407 411 l 407 483 q 421 497 407 497 l 715 497 q 729 483 729 497 l 729 304 q 641 72 729 156 q 404 -11 553 -11 m 343 1233 q 361 1242 349 1242 l 442 1242 q 460 1233 454 1242 l 572 1083 q 575 1075 575 1081 q 572 1069 575 1072 q 564 1067 569 1067 l 508 1067 q 490 1075 496 1067 l 407 1189 q 403 1192 406 1192 q 399 1189 400 1192 l 314 1075 q 296 1067 308 1067 l 240 1067 q 229 1072 232 1067 q 232 1083 226 1076 l 343 1233 z "},"Ġ":{"ha":803,"x_min":78,"x_max":729,"o":"m 404 -11 q 233 27 307 -11 q 119 135 160 65 q 78 294 78 204 l 78 678 q 119 838 78 768 q 233 945 160 907 q 404 983 307 983 q 574 946 500 983 q 689 841 649 908 q 729 689 729 774 l 729 671 q 715 657 729 657 l 644 657 q 631 671 631 657 l 631 688 q 569 839 631 781 q 404 897 507 897 q 239 838 301 897 q 176 681 176 778 l 176 292 q 240 135 176 194 q 408 75 304 75 q 570 131 510 75 q 631 279 631 186 l 631 406 q 625 411 631 411 l 421 411 q 407 425 407 411 l 407 483 q 421 497 407 497 l 715 497 q 729 483 729 497 l 729 304 q 641 72 729 156 q 404 -11 553 -11 m 403 1100 q 347 1122 368 1100 q 325 1178 325 1144 q 347 1234 325 1213 q 403 1256 368 1256 q 458 1234 436 1256 q 481 1178 481 1213 q 458 1122 481 1144 q 403 1100 436 1100 z "},"H":{"ha":889,"x_min":119,"x_max":771,"o":"m 672 958 q 686 972 672 972 l 757 972 q 771 958 771 972 l 771 14 q 757 0 771 0 l 686 0 q 672 14 672 0 l 672 440 q 667 446 672 446 l 224 446 q 218 440 218 446 l 218 14 q 204 0 218 0 l 133 0 q 119 14 119 0 l 119 958 q 133 972 119 972 l 204 972 q 218 958 218 972 l 218 538 q 224 532 218 532 l 667 532 q 672 538 672 532 l 672 958 z "},"Ħ":{"ha":889,"x_min":35,"x_max":856,"o":"m 842 778 q 856 764 856 778 l 856 721 q 842 707 856 707 l 776 707 q 771 701 771 707 l 771 14 q 757 0 771 0 l 686 0 q 672 14 672 0 l 672 440 q 667 446 672 446 l 224 446 q 218 440 218 446 l 218 14 q 204 0 218 0 l 133 0 q 119 14 119 0 l 119 701 q 114 707 119 707 l 49 707 q 35 721 35 707 l 35 764 q 49 778 35 778 l 114 778 q 119 783 119 778 l 119 958 q 133 972 119 972 l 204 972 q 218 958 218 972 l 218 783 q 224 778 218 778 l 667 778 q 672 783 672 778 l 672 958 q 686 972 672 972 l 757 972 q 771 958 771 972 l 771 783 q 776 778 771 778 l 842 778 m 667 532 q 672 538 672 532 l 672 701 q 667 707 672 707 l 224 707 q 218 701 218 707 l 218 538 q 224 532 218 532 l 667 532 z "},"Ĥ":{"ha":889,"x_min":119,"x_max":771,"o":"m 672 958 q 686 972 672 972 l 757 972 q 771 958 771 972 l 771 14 q 757 0 771 0 l 686 0 q 672 14 672 0 l 672 440 q 667 446 672 446 l 224 446 q 218 440 218 446 l 218 14 q 204 0 218 0 l 133 0 q 119 14 119 0 l 119 958 q 133 972 119 972 l 204 972 q 218 958 218 972 l 218 538 q 224 532 218 532 l 667 532 q 672 538 672 532 l 672 958 m 386 1235 q 404 1243 392 1243 l 485 1243 q 503 1235 497 1243 l 615 1085 q 618 1076 618 1082 q 615 1071 618 1074 q 607 1068 613 1068 l 551 1068 q 533 1076 539 1068 l 450 1190 q 446 1193 449 1193 q 442 1190 443 1193 l 357 1076 q 339 1068 351 1068 l 283 1068 q 272 1073 275 1068 q 275 1085 269 1078 l 386 1235 z "},"I":{"ha":338,"x_min":119,"x_max":218,"o":"m 119 958 q 133 972 119 972 l 204 972 q 218 958 218 972 l 218 14 q 204 0 218 0 l 133 0 q 119 14 119 0 l 119 958 z "},"Í":{"ha":338,"x_min":110,"x_max":288,"o":"m 119 958 q 133 972 119 972 l 204 972 q 218 958 218 972 l 218 14 q 204 0 218 0 l 133 0 q 119 14 119 0 l 119 958 m 196 1232 q 213 1242 200 1242 l 275 1242 q 285 1237 283 1242 q 283 1225 288 1232 l 189 1074 q 172 1064 182 1064 l 124 1064 q 113 1069 117 1064 q 114 1081 110 1074 l 196 1232 z "},"Î":{"ha":338,"x_min":-8,"x_max":340,"o":"m 119 958 q 133 972 119 972 l 204 972 q 218 958 218 972 l 218 14 q 204 0 218 0 l 133 0 q 119 14 119 0 l 119 958 m 108 1233 q 126 1242 114 1242 l 207 1242 q 225 1233 219 1242 l 338 1083 q 340 1075 340 1081 q 338 1069 340 1072 q 329 1067 335 1067 l 274 1067 q 256 1075 261 1067 l 172 1189 q 168 1192 171 1192 q 164 1189 165 1192 l 79 1075 q 61 1067 74 1067 l 6 1067 q -6 1072 -3 1067 q -3 1083 -8 1076 l 108 1233 z "},"Ï":{"ha":338,"x_min":-28,"x_max":365,"o":"m 119 958 q 133 972 119 972 l 204 972 q 218 958 218 972 l 218 14 q 204 0 218 0 l 133 0 q 119 14 119 0 l 119 958 z "},"İ":{"ha":338,"x_min":90,"x_max":246,"o":"m 119 958 q 133 972 119 972 l 204 972 q 218 958 218 972 l 218 14 q 204 0 218 0 l 133 0 q 119 14 119 0 l 119 958 m 168 1100 q 112 1122 133 1100 q 90 1178 90 1144 q 112 1234 90 1213 q 168 1256 133 1256 q 224 1234 201 1256 q 246 1178 246 1213 q 224 1122 246 1144 q 168 1100 201 1100 z "},"Ị":{"ha":338,"x_min":97,"x_max":244,"o":"m 119 958 q 133 972 119 972 l 204 972 q 218 958 218 972 l 218 14 q 204 0 218 0 l 133 0 q 119 14 119 0 l 119 958 m 171 -253 q 118 -232 139 -253 q 97 -179 97 -211 q 118 -126 97 -147 q 171 -106 139 -106 q 224 -126 203 -106 q 244 -179 244 -147 q 224 -232 244 -211 q 171 -253 203 -253 z "},"Ì":{"ha":338,"x_min":33,"x_max":218,"o":"m 119 958 q 133 972 119 972 l 204 972 q 218 958 218 972 l 218 14 q 204 0 218 0 l 133 0 q 119 14 119 0 l 119 958 m 147 1064 q 131 1074 138 1064 l 36 1225 q 33 1233 33 1231 q 46 1242 33 1242 l 108 1242 q 125 1232 121 1242 l 207 1081 l 210 1074 q 206 1067 210 1069 q 197 1064 203 1064 l 147 1064 z "},"Ỉ":{"ha":338,"x_min":44,"x_max":292,"o":"m 119 958 q 133 972 119 972 l 204 972 q 218 958 218 972 l 218 14 q 204 0 218 0 l 133 0 q 119 14 119 0 l 119 958 m 158 1039 q 149 1045 151 1040 q 149 1056 146 1050 q 171 1093 158 1076 q 196 1122 183 1110 q 222 1153 214 1139 q 231 1188 231 1167 q 213 1222 231 1207 q 172 1238 196 1238 q 133 1226 149 1238 q 97 1188 117 1215 q 78 1185 89 1176 l 56 1199 q 51 1218 44 1207 q 104 1276 78 1258 q 175 1293 131 1293 q 259 1264 226 1293 q 292 1188 292 1235 q 279 1137 292 1157 q 240 1089 267 1117 q 201 1042 211 1063 q 183 1033 196 1032 l 158 1039 z "},"Ī":{"ha":338,"x_min":-18,"x_max":356,"o":"m 119 958 q 133 972 119 972 l 204 972 q 218 958 218 972 l 218 14 q 204 0 218 0 l 133 0 q 119 14 119 0 l 119 958 m -18 1151 q -4 1165 -18 1165 l 342 1165 q 356 1151 356 1165 l 356 1108 q 342 1094 356 1094 l -4 1094 q -18 1108 -18 1094 l -18 1151 z "},"Į":{"ha":326,"x_min":50,"x_max":242,"o":"m 104 958 q 118 972 104 972 l 189 972 q 203 958 203 972 l 203 14 q 189 0 203 0 l 118 0 q 104 14 104 0 l 104 958 m 242 -239 q 232 -251 242 -247 q 175 -258 204 -258 q 98 -239 131 -258 q 54 -175 65 -219 q 50 -143 50 -161 q 132 -6 50 -71 q 150 0 139 0 l 188 0 q 199 -7 199 0 q 192 -17 199 -10 q 122 -131 122 -76 q 140 -181 122 -164 q 189 -197 158 -197 q 221 -193 204 -197 l 225 -192 q 238 -204 235 -192 l 242 -235 l 242 -239 z "},"Ĩ":{"ha":338,"x_min":-31,"x_max":381,"o":"m 119 958 q 133 972 119 972 l 204 972 q 218 958 218 972 l 218 14 q 204 0 218 0 l 133 0 q 119 14 119 0 l 119 958 m 256 1107 q 210 1115 229 1107 q 169 1138 190 1124 q 131 1158 144 1153 q 100 1164 117 1164 q 58 1156 75 1164 q 24 1129 40 1149 q 4 1126 15 1117 l -21 1151 q -24 1171 -31 1161 q 96 1239 22 1239 q 135 1232 118 1239 q 167 1217 153 1225 q 186 1207 182 1210 q 206 1196 192 1204 q 233 1183 221 1188 q 256 1179 244 1179 q 295 1188 278 1179 q 329 1218 313 1196 q 349 1221 338 1232 l 372 1197 q 375 1176 381 1189 q 323 1125 356 1143 q 256 1107 290 1107 z "},"J":{"ha":794,"x_min":51,"x_max":682,"o":"m 367 -11 q 201 25 272 -11 q 90 127 129 61 q 51 279 51 193 l 51 385 q 65 399 51 399 l 136 399 q 150 385 150 399 l 150 279 q 209 131 150 188 q 367 75 268 75 q 524 131 464 75 q 583 279 583 188 l 583 958 q 597 972 583 972 l 668 972 q 682 958 682 972 l 682 279 q 642 127 682 193 q 531 25 603 61 q 367 -11 460 -11 z "},"Ĵ":{"ha":794,"x_min":51,"x_max":806,"o":"m 367 -11 q 201 25 272 -11 q 90 127 129 61 q 51 279 51 193 l 51 385 q 65 399 51 399 l 136 399 q 150 385 150 399 l 150 279 q 209 131 150 188 q 367 75 268 75 q 524 131 464 75 q 583 279 583 188 l 583 958 q 597 972 583 972 l 668 972 q 682 958 682 972 l 682 279 q 642 127 682 193 q 531 25 603 61 q 367 -11 460 -11 m 574 1235 q 592 1243 579 1243 l 672 1243 q 690 1235 685 1243 l 803 1085 q 806 1076 806 1082 q 803 1071 806 1074 q 794 1068 800 1068 l 739 1068 q 721 1076 726 1068 l 638 1190 q 633 1193 636 1193 q 629 1190 631 1193 l 544 1076 q 526 1068 539 1068 l 471 1068 q 460 1073 463 1068 q 463 1085 457 1078 l 574 1235 z "},"K":{"ha":822,"x_min":119,"x_max":800,"o":"m 119 958 q 133 972 119 972 l 204 972 q 218 958 218 972 l 218 488 q 221 483 218 485 q 225 485 224 482 l 664 965 q 681 972 669 972 l 761 972 q 772 967 769 972 q 768 956 774 961 l 428 571 q 428 563 425 568 l 797 17 l 800 10 q 788 0 800 0 l 707 0 q 690 8 696 0 l 361 492 q 357 494 360 494 q 353 493 354 494 l 221 353 q 218 346 218 350 l 218 14 q 204 0 218 0 l 133 0 q 119 14 119 0 l 119 958 z "},"L":{"ha":757,"x_min":119,"x_max":728,"o":"m 119 958 q 133 972 119 972 l 204 972 q 218 958 218 972 l 218 92 q 224 86 218 86 l 714 86 q 728 72 728 86 l 728 14 q 714 0 728 0 l 133 0 q 119 14 119 0 l 119 958 z "},"Ĺ":{"ha":794,"x_min":119,"x_max":728,"o":"m 119 958 q 133 972 119 972 l 204 972 q 218 958 218 972 l 218 92 q 224 86 218 86 l 714 86 q 728 72 728 86 l 728 14 q 714 0 728 0 l 133 0 q 119 14 119 0 l 119 958 m 211 1232 q 228 1242 215 1242 l 290 1242 q 301 1237 299 1242 q 299 1225 303 1232 l 204 1074 q 188 1064 197 1064 l 139 1064 q 128 1069 132 1064 q 129 1081 125 1074 l 211 1232 z "},"Ľ":{"ha":794,"x_min":119,"x_max":728,"o":"m 119 958 q 133 972 119 972 l 204 972 q 218 958 218 972 l 218 92 q 224 86 218 86 l 714 86 q 728 72 728 86 l 728 14 q 714 0 728 0 l 133 0 q 119 14 119 0 l 119 958 z "},"Ļ":{"ha":794,"x_min":119,"x_max":728,"o":"m 119 958 q 133 972 119 972 l 204 972 q 218 958 218 972 l 218 92 q 224 86 218 86 l 714 86 q 728 72 728 86 l 728 14 q 714 0 728 0 l 133 0 q 119 14 119 0 l 119 958 z "},"Ł":{"ha":832,"x_min":-31,"x_max":771,"o":"m 261 92 q 267 86 261 86 l 757 86 q 771 72 771 86 l 771 14 q 757 0 771 0 l 176 0 q 163 14 163 0 l 163 333 q 160 338 163 336 q 156 336 158 339 l 25 239 q 17 236 22 236 q 6 242 10 236 l -26 281 q -31 290 -31 285 q -25 300 -31 296 l 160 439 q 163 446 163 442 l 163 958 q 176 972 163 972 l 247 972 q 261 958 261 972 l 261 524 q 263 519 261 521 q 268 521 265 518 l 590 764 q 599 767 593 767 q 610 761 606 767 l 643 721 q 646 713 646 718 q 640 701 646 706 l 264 419 q 261 413 261 417 l 261 92 z "},"M":{"ha":971,"x_min":119,"x_max":851,"o":"m 750 964 q 767 972 757 972 l 838 972 q 851 958 851 972 l 851 14 q 838 0 851 0 l 767 0 q 753 14 753 0 l 753 785 q 750 790 753 789 q 746 788 747 792 l 521 442 q 504 432 514 432 l 468 432 q 451 440 457 432 l 225 783 q 221 786 224 788 q 218 781 218 785 l 218 14 q 204 0 218 0 l 133 0 q 119 14 119 0 l 119 958 q 133 972 119 972 l 204 972 q 221 964 215 972 l 482 569 q 486 568 483 568 q 490 569 489 568 l 750 964 z "},"N":{"ha":915,"x_min":119,"x_max":797,"o":"m 699 958 q 713 972 699 972 l 783 972 q 797 958 797 972 l 797 14 q 783 0 797 0 l 714 0 q 697 10 704 0 l 224 781 q 219 784 222 785 q 217 779 217 783 l 218 14 q 204 0 218 0 l 133 0 q 119 14 119 0 l 119 958 q 133 972 119 972 l 203 972 q 219 963 213 972 l 693 189 q 697 185 694 185 q 700 190 700 186 l 699 958 z "},"Ń":{"ha":950,"x_min":119,"x_max":797,"o":"m 699 958 q 713 972 699 972 l 783 972 q 797 958 797 972 l 797 14 q 783 0 797 0 l 714 0 q 697 10 704 0 l 224 781 q 219 784 222 785 q 217 779 217 783 l 218 14 q 204 0 218 0 l 133 0 q 119 14 119 0 l 119 958 q 133 972 119 972 l 203 972 q 219 963 213 972 l 693 189 q 697 185 694 185 q 700 190 700 186 l 699 958 m 500 1232 q 517 1242 504 1242 l 579 1242 q 590 1237 588 1242 q 588 1225 592 1232 l 493 1074 q 476 1064 486 1064 l 428 1064 q 417 1069 421 1064 q 418 1081 414 1074 l 500 1232 z "},"Ň":{"ha":950,"x_min":119,"x_max":797,"o":"m 699 958 q 713 972 699 972 l 783 972 q 797 958 797 972 l 797 14 q 783 0 797 0 l 714 0 q 697 10 704 0 l 224 781 q 219 784 222 785 q 217 779 217 783 l 218 14 q 204 0 218 0 l 133 0 q 119 14 119 0 l 119 958 q 133 972 119 972 l 203 972 q 219 963 213 972 l 693 189 q 697 185 694 185 q 700 190 700 186 l 699 958 m 306 1225 q 303 1233 303 1228 q 306 1239 303 1236 q 314 1242 308 1242 l 369 1242 q 388 1233 382 1242 l 472 1119 q 476 1118 474 1118 q 481 1119 479 1118 l 564 1233 q 582 1242 569 1242 l 638 1242 q 649 1237 646 1242 q 646 1225 651 1232 l 533 1075 q 515 1067 528 1067 l 435 1067 q 417 1075 422 1067 l 306 1225 z "},"Ŋ":{"ha":933,"x_min":119,"x_max":808,"o":"m 797 779 q 801 772 797 775 q 808 760 808 769 l 808 10 q 758 -165 808 -111 q 581 -218 707 -218 q 567 -204 567 -218 l 567 -147 q 581 -133 567 -133 q 678 -101 649 -133 q 710 -4 707 -69 q 706 1 710 -1 q 697 10 701 4 l 224 781 q 219 784 222 785 q 217 779 217 783 l 218 14 q 204 0 218 0 l 133 0 q 119 14 119 0 l 119 958 q 133 972 119 972 l 203 972 q 219 963 213 972 l 693 189 q 697 185 694 185 q 700 190 700 186 l 699 958 q 713 972 699 972 l 783 972 q 797 958 797 972 l 797 779 z "},"Ñ":{"ha":950,"x_min":119,"x_max":797,"o":"m 699 958 q 713 972 699 972 l 783 972 q 797 958 797 972 l 797 14 q 783 0 797 0 l 714 0 q 697 10 704 0 l 224 781 q 219 784 222 785 q 217 779 217 783 l 218 14 q 204 0 218 0 l 133 0 q 119 14 119 0 l 119 958 q 133 972 119 972 l 203 972 q 219 963 213 972 l 693 189 q 697 185 694 185 q 700 190 700 186 l 699 958 m 558 1107 q 513 1115 532 1107 q 472 1138 493 1124 q 433 1158 447 1153 q 403 1164 419 1164 q 360 1156 378 1164 q 326 1129 343 1149 q 307 1126 318 1117 l 282 1151 q 279 1171 272 1161 q 399 1239 325 1239 q 438 1232 421 1239 q 470 1217 456 1225 q 489 1207 485 1210 q 509 1196 494 1204 q 535 1183 524 1188 q 558 1179 547 1179 q 598 1188 581 1179 q 632 1218 615 1196 q 651 1221 640 1232 l 675 1197 q 678 1176 683 1189 q 626 1125 658 1143 q 558 1107 593 1107 z "},"O":{"ha":821,"x_min":79,"x_max":742,"o":"m 410 -11 q 236 29 311 -11 q 120 142 161 69 q 79 311 79 215 l 79 661 q 120 830 79 757 q 236 943 161 903 q 410 983 311 983 q 583 943 508 983 q 700 830 658 903 q 742 661 742 757 l 742 311 q 700 142 742 215 q 583 29 658 69 q 410 -11 508 -11 m 410 74 q 579 138 515 74 q 643 307 643 201 l 643 663 q 579 833 643 768 q 410 897 515 897 q 242 833 306 897 q 178 663 178 768 l 178 307 q 242 138 178 201 q 410 74 306 74 z "},"Ó":{"ha":863,"x_min":79,"x_max":742,"o":"m 410 -11 q 236 29 311 -11 q 120 142 161 69 q 79 311 79 215 l 79 661 q 120 830 79 757 q 236 943 161 903 q 410 983 311 983 q 583 943 508 983 q 700 830 658 903 q 742 661 742 757 l 742 311 q 700 142 742 215 q 583 29 658 69 q 410 -11 508 -11 m 410 74 q 579 138 515 74 q 643 307 643 201 l 643 663 q 579 833 643 768 q 410 897 515 897 q 242 833 306 897 q 178 663 178 768 l 178 307 q 242 138 178 201 q 410 74 306 74 m 457 1232 q 474 1242 461 1242 l 536 1242 q 547 1237 544 1242 q 544 1225 549 1232 l 450 1074 q 433 1064 443 1064 l 385 1064 q 374 1069 378 1064 q 375 1081 371 1074 l 457 1232 z "},"Ô":{"ha":863,"x_min":79,"x_max":742,"o":"m 410 -11 q 236 29 311 -11 q 120 142 161 69 q 79 311 79 215 l 79 661 q 120 830 79 757 q 236 943 161 903 q 410 983 311 983 q 583 943 508 983 q 700 830 658 903 q 742 661 742 757 l 742 311 q 700 142 742 215 q 583 29 658 69 q 410 -11 508 -11 m 410 74 q 579 138 515 74 q 643 307 643 201 l 643 663 q 579 833 643 768 q 410 897 515 897 q 242 833 306 897 q 178 663 178 768 l 178 307 q 242 138 178 201 q 410 74 306 74 m 369 1233 q 388 1242 375 1242 l 468 1242 q 486 1233 481 1242 l 599 1083 q 601 1075 601 1081 q 599 1069 601 1072 q 590 1067 596 1067 l 535 1067 q 517 1075 522 1067 l 433 1189 q 429 1192 432 1192 q 425 1189 426 1192 l 340 1075 q 322 1067 335 1067 l 267 1067 q 256 1072 258 1067 q 258 1083 253 1076 l 369 1233 z "},"Ố":{"ha":821,"x_min":79,"x_max":756,"o":"m 410 -11 q 236 29 311 -11 q 120 142 161 69 q 79 311 79 215 l 79 661 q 120 830 79 757 q 236 943 161 903 q 410 983 311 983 q 583 943 508 983 q 700 830 658 903 q 742 661 742 757 l 742 311 q 700 142 742 215 q 583 29 658 69 q 410 -11 508 -11 m 410 74 q 579 138 515 74 q 643 307 643 201 l 643 663 q 579 833 643 768 q 410 897 515 897 q 242 833 306 897 q 178 663 178 768 l 178 307 q 242 138 178 201 q 410 74 306 74 z "},"Ộ":{"ha":821,"x_min":79,"x_max":742,"o":"m 410 -11 q 236 29 311 -11 q 120 142 161 69 q 79 311 79 215 l 79 661 q 120 830 79 757 q 236 943 161 903 q 410 983 311 983 q 583 943 508 983 q 700 830 658 903 q 742 661 742 757 l 742 311 q 700 142 742 215 q 583 29 658 69 q 410 -11 508 -11 m 410 74 q 579 138 515 74 q 643 307 643 201 l 643 663 q 579 833 643 768 q 410 897 515 897 q 242 833 306 897 q 178 663 178 768 l 178 307 q 242 138 178 201 q 410 74 306 74 m 413 -253 q 360 -232 381 -253 q 339 -179 339 -211 q 360 -126 339 -147 q 413 -106 381 -106 q 465 -126 444 -106 q 486 -179 486 -147 q 465 -232 486 -211 q 413 -253 444 -253 m 350 1233 q 368 1242 356 1242 l 449 1242 q 467 1233 461 1242 l 579 1083 q 582 1075 582 1081 q 579 1069 582 1072 q 571 1067 576 1067 l 515 1067 q 497 1075 503 1067 l 414 1189 q 410 1192 413 1192 q 406 1189 407 1192 l 321 1075 q 303 1067 315 1067 l 247 1067 q 236 1072 239 1067 q 239 1083 233 1076 l 350 1233 z "},"Ồ":{"ha":821,"x_min":79,"x_max":742,"o":"m 410 -11 q 236 29 311 -11 q 120 142 161 69 q 79 311 79 215 l 79 661 q 120 830 79 757 q 236 943 161 903 q 410 983 311 983 q 583 943 508 983 q 700 830 658 903 q 742 661 742 757 l 742 311 q 700 142 742 215 q 583 29 658 69 q 410 -11 508 -11 m 410 74 q 579 138 515 74 q 643 307 643 201 l 643 663 q 579 833 643 768 q 410 897 515 897 q 242 833 306 897 q 178 663 178 768 l 178 307 q 242 138 178 201 q 410 74 306 74 z "},"Ổ":{"ha":821,"x_min":79,"x_max":742,"o":"m 410 -11 q 236 29 311 -11 q 120 142 161 69 q 79 311 79 215 l 79 661 q 120 830 79 757 q 236 943 161 903 q 410 983 311 983 q 583 943 508 983 q 700 830 658 903 q 742 661 742 757 l 742 311 q 700 142 742 215 q 583 29 658 69 q 410 -11 508 -11 m 410 74 q 579 138 515 74 q 643 307 643 201 l 643 663 q 579 833 643 768 q 410 897 515 897 q 242 833 306 897 q 178 663 178 768 l 178 307 q 242 138 178 201 q 410 74 306 74 z "},"Ỗ":{"ha":821,"x_min":79,"x_max":742,"o":"m 410 -11 q 236 29 311 -11 q 120 142 161 69 q 79 311 79 215 l 79 661 q 120 830 79 757 q 236 943 161 903 q 410 983 311 983 q 583 943 508 983 q 700 830 658 903 q 742 661 742 757 l 742 311 q 700 142 742 215 q 583 29 658 69 q 410 -11 508 -11 m 410 74 q 579 138 515 74 q 643 307 643 201 l 643 663 q 579 833 643 768 q 410 897 515 897 q 242 833 306 897 q 178 663 178 768 l 178 307 q 242 138 178 201 q 410 74 306 74 z "},"Ö":{"ha":863,"x_min":79,"x_max":742,"o":"m 410 -11 q 236 29 311 -11 q 120 142 161 69 q 79 311 79 215 l 79 661 q 120 830 79 757 q 236 943 161 903 q 410 983 311 983 q 583 943 508 983 q 700 830 658 903 q 742 661 742 757 l 742 311 q 700 142 742 215 q 583 29 658 69 q 410 -11 508 -11 m 410 74 q 579 138 515 74 q 643 307 643 201 l 643 663 q 579 833 643 768 q 410 897 515 897 q 242 833 306 897 q 178 663 178 768 l 178 307 q 242 138 178 201 q 410 74 306 74 z "},"Ọ":{"ha":821,"x_min":79,"x_max":742,"o":"m 410 -11 q 236 29 311 -11 q 120 142 161 69 q 79 311 79 215 l 79 661 q 120 830 79 757 q 236 943 161 903 q 410 983 311 983 q 583 943 508 983 q 700 830 658 903 q 742 661 742 757 l 742 311 q 700 142 742 215 q 583 29 658 69 q 410 -11 508 -11 m 410 74 q 579 138 515 74 q 643 307 643 201 l 643 663 q 579 833 643 768 q 410 897 515 897 q 242 833 306 897 q 178 663 178 768 l 178 307 q 242 138 178 201 q 410 74 306 74 m 413 -253 q 360 -232 381 -253 q 339 -179 339 -211 q 360 -126 339 -147 q 413 -106 381 -106 q 465 -126 444 -106 q 486 -179 486 -147 q 465 -232 486 -211 q 413 -253 444 -253 z "},"Ò":{"ha":863,"x_min":79,"x_max":742,"o":"m 410 -11 q 236 29 311 -11 q 120 142 161 69 q 79 311 79 215 l 79 661 q 120 830 79 757 q 236 943 161 903 q 410 983 311 983 q 583 943 508 983 q 700 830 658 903 q 742 661 742 757 l 742 311 q 700 142 742 215 q 583 29 658 69 q 410 -11 508 -11 m 410 74 q 579 138 515 74 q 643 307 643 201 l 643 663 q 579 833 643 768 q 410 897 515 897 q 242 833 306 897 q 178 663 178 768 l 178 307 q 242 138 178 201 q 410 74 306 74 m 408 1064 q 392 1074 399 1064 l 297 1225 q 294 1233 294 1231 q 307 1242 294 1242 l 369 1242 q 386 1232 382 1242 l 468 1081 l 471 1074 q 467 1067 471 1069 q 458 1064 464 1064 l 408 1064 z "},"Ỏ":{"ha":821,"x_min":79,"x_max":742,"o":"m 410 -11 q 236 29 311 -11 q 120 142 161 69 q 79 311 79 215 l 79 661 q 120 830 79 757 q 236 943 161 903 q 410 983 311 983 q 583 943 508 983 q 700 830 658 903 q 742 661 742 757 l 742 311 q 700 142 742 215 q 583 29 658 69 q 410 -11 508 -11 m 410 74 q 579 138 515 74 q 643 307 643 201 l 643 663 q 579 833 643 768 q 410 897 515 897 q 242 833 306 897 q 178 663 178 768 l 178 307 q 242 138 178 201 q 410 74 306 74 m 399 1039 q 389 1045 392 1040 q 389 1056 386 1050 q 411 1093 399 1076 q 436 1122 424 1110 q 463 1153 454 1139 q 471 1188 471 1167 q 453 1222 471 1207 q 413 1238 436 1238 q 373 1226 389 1238 q 338 1188 357 1215 q 318 1185 329 1176 l 296 1199 q 292 1218 285 1207 q 344 1276 318 1258 q 415 1293 371 1293 q 499 1264 467 1293 q 532 1188 532 1235 q 519 1137 532 1157 q 481 1089 507 1117 q 442 1042 451 1063 q 424 1033 436 1032 l 399 1039 z "},"Ơ":{"ha":821,"x_min":79,"x_max":761,"o":"m 747 1040 q 761 1026 761 1040 q 731 942 757 976 q 665 888 706 907 q 664 881 660 885 q 722 783 701 839 q 742 661 742 726 l 742 311 q 700 142 742 215 q 583 29 658 69 q 410 -11 508 -11 q 236 29 311 -11 q 120 142 161 69 q 79 311 79 215 l 79 661 q 120 830 79 757 q 236 943 161 903 q 410 983 311 983 q 603 932 521 983 q 610 931 604 928 q 667 962 643 938 q 694 1026 690 986 q 708 1040 694 1040 l 747 1040 m 643 663 q 579 833 643 768 q 410 897 515 897 q 242 833 306 897 q 178 663 178 768 l 178 307 q 242 138 178 201 q 410 74 306 74 q 579 138 515 74 q 643 307 643 201 l 643 663 z "},"Ớ":{"ha":821,"x_min":79,"x_max":761,"o":"m 747 1040 q 761 1026 761 1040 q 731 942 757 976 q 665 888 706 907 q 664 881 660 885 q 722 783 701 839 q 742 661 742 726 l 742 311 q 700 142 742 215 q 583 29 658 69 q 410 -11 508 -11 q 236 29 311 -11 q 120 142 161 69 q 79 311 79 215 l 79 661 q 120 830 79 757 q 236 943 161 903 q 410 983 311 983 q 603 932 521 983 q 610 931 604 928 q 667 962 643 938 q 694 1026 690 986 q 708 1040 694 1040 l 747 1040 m 643 663 q 579 833 643 768 q 410 897 515 897 q 242 833 306 897 q 178 663 178 768 l 178 307 q 242 138 178 201 q 410 74 306 74 q 579 138 515 74 q 643 307 643 201 l 643 663 m 436 1232 q 453 1242 440 1242 l 515 1242 q 526 1237 524 1242 q 524 1225 528 1232 l 429 1074 q 413 1064 422 1064 l 364 1064 q 353 1069 357 1064 q 354 1081 350 1074 l 436 1232 z "},"Ợ":{"ha":821,"x_min":79,"x_max":761,"o":"m 747 1040 q 761 1026 761 1040 q 731 942 757 976 q 665 888 706 907 q 664 881 660 885 q 722 783 701 839 q 742 661 742 726 l 742 311 q 700 142 742 215 q 583 29 658 69 q 410 -11 508 -11 q 236 29 311 -11 q 120 142 161 69 q 79 311 79 215 l 79 661 q 120 830 79 757 q 236 943 161 903 q 410 983 311 983 q 603 932 521 983 q 610 931 604 928 q 667 962 643 938 q 694 1026 690 986 q 708 1040 694 1040 l 747 1040 m 643 663 q 579 833 643 768 q 410 897 515 897 q 242 833 306 897 q 178 663 178 768 l 178 307 q 242 138 178 201 q 410 74 306 74 q 579 138 515 74 q 643 307 643 201 l 643 663 m 413 -253 q 360 -232 381 -253 q 339 -179 339 -211 q 360 -126 339 -147 q 413 -106 381 -106 q 465 -126 444 -106 q 486 -179 486 -147 q 465 -232 486 -211 q 413 -253 444 -253 z "},"Ờ":{"ha":821,"x_min":79,"x_max":761,"o":"m 747 1040 q 761 1026 761 1040 q 731 942 757 976 q 665 888 706 907 q 664 881 660 885 q 722 783 701 839 q 742 661 742 726 l 742 311 q 700 142 742 215 q 583 29 658 69 q 410 -11 508 -11 q 236 29 311 -11 q 120 142 161 69 q 79 311 79 215 l 79 661 q 120 830 79 757 q 236 943 161 903 q 410 983 311 983 q 603 932 521 983 q 610 931 604 928 q 667 962 643 938 q 694 1026 690 986 q 708 1040 694 1040 l 747 1040 m 643 663 q 579 833 643 768 q 410 897 515 897 q 242 833 306 897 q 178 663 178 768 l 178 307 q 242 138 178 201 q 410 74 306 74 q 579 138 515 74 q 643 307 643 201 l 643 663 m 388 1064 q 371 1074 378 1064 l 276 1225 q 274 1233 274 1231 q 286 1242 274 1242 l 349 1242 q 365 1232 361 1242 l 447 1081 l 450 1074 q 447 1067 450 1069 q 438 1064 443 1064 l 388 1064 z "},"Ở":{"ha":821,"x_min":79,"x_max":761,"o":"m 747 1040 q 761 1026 761 1040 q 731 942 757 976 q 665 888 706 907 q 664 881 660 885 q 722 783 701 839 q 742 661 742 726 l 742 311 q 700 142 742 215 q 583 29 658 69 q 410 -11 508 -11 q 236 29 311 -11 q 120 142 161 69 q 79 311 79 215 l 79 661 q 120 830 79 757 q 236 943 161 903 q 410 983 311 983 q 603 932 521 983 q 610 931 604 928 q 667 962 643 938 q 694 1026 690 986 q 708 1040 694 1040 l 747 1040 m 643 663 q 579 833 643 768 q 410 897 515 897 q 242 833 306 897 q 178 663 178 768 l 178 307 q 242 138 178 201 q 410 74 306 74 q 579 138 515 74 q 643 307 643 201 l 643 663 m 399 1039 q 389 1045 392 1040 q 389 1056 386 1050 q 411 1093 399 1076 q 436 1122 424 1110 q 463 1153 454 1139 q 471 1188 471 1167 q 453 1222 471 1207 q 413 1238 436 1238 q 373 1226 389 1238 q 338 1188 357 1215 q 318 1185 329 1176 l 296 1199 q 292 1218 285 1207 q 344 1276 318 1258 q 415 1293 371 1293 q 499 1264 467 1293 q 532 1188 532 1235 q 519 1137 532 1157 q 481 1089 507 1117 q 442 1042 451 1063 q 424 1033 436 1032 l 399 1039 z "},"Ỡ":{"ha":821,"x_min":79,"x_max":761,"o":"m 747 1040 q 761 1026 761 1040 q 731 942 757 976 q 665 888 706 907 q 664 881 660 885 q 722 783 701 839 q 742 661 742 726 l 742 311 q 700 142 742 215 q 583 29 658 69 q 410 -11 508 -11 q 236 29 311 -11 q 120 142 161 69 q 79 311 79 215 l 79 661 q 120 830 79 757 q 236 943 161 903 q 410 983 311 983 q 603 932 521 983 q 610 931 604 928 q 667 962 643 938 q 694 1026 690 986 q 708 1040 694 1040 l 747 1040 m 643 663 q 579 833 643 768 q 410 897 515 897 q 242 833 306 897 q 178 663 178 768 l 178 307 q 242 138 178 201 q 410 74 306 74 q 579 138 515 74 q 643 307 643 201 l 643 663 m 488 1119 q 442 1128 461 1119 q 401 1150 422 1136 q 363 1171 376 1165 q 332 1176 349 1176 q 290 1169 307 1176 q 256 1142 272 1161 q 236 1139 247 1129 l 211 1164 q 208 1183 201 1174 q 328 1251 254 1251 q 367 1244 350 1251 q 399 1230 385 1238 q 418 1219 414 1222 q 438 1208 424 1217 q 465 1196 453 1200 q 488 1192 476 1192 q 527 1200 510 1192 q 561 1231 544 1208 q 581 1233 569 1244 l 604 1210 q 607 1189 613 1201 q 555 1138 588 1156 q 488 1119 522 1119 z "},"Ő":{"ha":863,"x_min":79,"x_max":742,"o":"m 410 -11 q 236 29 311 -11 q 120 142 161 69 q 79 311 79 215 l 79 661 q 120 830 79 757 q 236 943 161 903 q 410 983 311 983 q 583 943 508 983 q 700 830 658 903 q 742 661 742 757 l 742 311 q 700 142 742 215 q 583 29 658 69 q 410 -11 508 -11 m 410 74 q 579 138 515 74 q 643 307 643 201 l 643 663 q 579 833 643 768 q 410 897 515 897 q 242 833 306 897 q 178 663 178 768 l 178 307 q 242 138 178 201 q 410 74 306 74 m 351 1232 q 368 1242 356 1242 l 432 1242 q 443 1237 440 1242 q 442 1225 446 1232 l 358 1074 q 342 1064 354 1064 l 283 1064 q 274 1069 276 1064 q 274 1081 271 1074 l 351 1232 m 582 1232 q 599 1242 586 1242 l 658 1242 q 669 1237 667 1242 q 668 1225 672 1232 l 583 1074 q 567 1064 576 1064 l 511 1064 q 499 1069 503 1064 q 500 1081 496 1074 l 582 1232 z "},"Ō":{"ha":863,"x_min":79,"x_max":742,"o":"m 410 -11 q 236 29 311 -11 q 120 142 161 69 q 79 311 79 215 l 79 661 q 120 830 79 757 q 236 943 161 903 q 410 983 311 983 q 583 943 508 983 q 700 830 658 903 q 742 661 742 757 l 742 311 q 700 142 742 215 q 583 29 658 69 q 410 -11 508 -11 m 410 74 q 579 138 515 74 q 643 307 643 201 l 643 663 q 579 833 643 768 q 410 897 515 897 q 242 833 306 897 q 178 663 178 768 l 178 307 q 242 138 178 201 q 410 74 306 74 m 244 1151 q 258 1165 244 1165 l 604 1165 q 618 1151 618 1165 l 618 1108 q 604 1094 618 1094 l 258 1094 q 244 1108 244 1094 l 244 1151 z "},"Ø":{"ha":857,"x_min":79,"x_max":778,"o":"m 767 969 q 771 950 778 961 l 700 839 q 700 831 699 835 q 742 661 742 760 l 742 311 q 700 142 742 215 q 583 29 658 69 q 410 -11 508 -11 q 200 51 286 -11 q 193 50 196 56 l 149 -18 q 131 -22 142 -29 l 99 -1 q 93 17 88 7 l 144 97 q 144 106 147 101 q 79 311 79 189 l 79 661 q 120 830 79 757 q 236 943 161 903 q 410 983 311 983 q 544 960 483 983 q 650 896 606 938 q 657 897 654 892 l 715 988 q 724 994 718 993 q 735 992 729 996 l 767 969 m 178 307 q 201 197 178 247 q 208 197 203 192 l 597 803 q 597 811 600 807 q 519 875 567 853 q 410 897 471 897 q 242 833 306 897 q 178 663 178 768 l 178 307 m 643 663 q 636 728 643 693 q 633 731 635 731 q 628 728 631 731 l 249 138 q 250 131 246 132 q 410 74 314 74 q 579 138 515 74 q 643 307 643 201 l 643 663 z "},"Õ":{"ha":863,"x_min":79,"x_max":742,"o":"m 410 -11 q 236 29 311 -11 q 120 142 161 69 q 79 311 79 215 l 79 661 q 120 830 79 757 q 236 943 161 903 q 410 983 311 983 q 583 943 508 983 q 700 830 658 903 q 742 661 742 757 l 742 311 q 700 142 742 215 q 583 29 658 69 q 410 -11 508 -11 m 410 74 q 579 138 515 74 q 643 307 643 201 l 643 663 q 579 833 643 768 q 410 897 515 897 q 242 833 306 897 q 178 663 178 768 l 178 307 q 242 138 178 201 q 410 74 306 74 m 517 1107 q 471 1115 490 1107 q 431 1138 451 1124 q 392 1158 406 1153 q 361 1164 378 1164 q 319 1156 336 1164 q 285 1129 301 1149 q 265 1126 276 1117 l 240 1151 q 238 1171 231 1161 q 357 1239 283 1239 q 397 1232 379 1239 q 428 1217 414 1225 q 447 1207 443 1210 q 467 1196 453 1204 q 494 1183 482 1188 q 517 1179 506 1179 q 556 1188 539 1179 q 590 1218 574 1196 q 610 1221 599 1232 l 633 1197 q 636 1176 642 1189 q 584 1125 617 1143 q 517 1107 551 1107 z "},"Œ":{"ha":1250,"x_min":97,"x_max":1194,"o":"m 1194 900 q 1181 886 1194 886 l 726 886 q 721 881 721 886 l 721 538 q 726 532 721 532 l 1026 532 q 1040 518 1040 532 l 1040 460 q 1026 446 1040 446 l 726 446 q 721 440 721 446 l 721 92 q 726 86 721 86 l 1181 86 q 1194 72 1194 86 l 1194 14 q 1181 0 1194 0 l 636 0 q 622 14 622 0 l 622 82 q 615 85 622 89 q 515 14 574 39 q 388 -11 456 -11 q 238 28 304 -11 q 135 135 172 67 q 97 290 97 203 l 97 681 q 135 837 97 768 q 238 944 172 906 q 388 983 304 983 q 515 958 456 983 q 615 888 574 933 q 622 890 622 883 l 622 958 q 636 972 622 972 l 1181 972 q 1194 958 1194 972 l 1194 900 m 408 74 q 563 134 503 74 q 622 288 622 194 l 622 682 q 563 836 622 775 q 408 897 503 897 q 255 837 314 897 q 196 682 196 776 l 196 288 q 255 134 196 194 q 408 74 314 74 z "},"P":{"ha":821,"x_min":119,"x_max":769,"o":"m 499 974 q 695 899 621 974 q 769 701 769 824 q 694 507 769 581 q 494 433 618 433 l 224 433 q 218 428 218 433 l 218 14 q 204 0 218 0 l 133 0 q 119 14 119 0 l 119 960 q 133 974 119 974 l 499 974 m 488 515 q 621 566 569 515 q 672 700 672 617 q 621 836 672 785 q 488 888 569 888 l 224 888 q 218 882 218 888 l 218 521 q 224 515 218 515 l 488 515 z "},"Þ":{"ha":804,"x_min":119,"x_max":736,"o":"m 464 754 q 661 680 586 754 q 736 485 736 606 q 701 345 736 406 q 603 251 665 285 q 461 218 540 218 l 224 218 q 218 213 218 218 l 218 14 q 204 0 218 0 l 133 0 q 119 14 119 0 l 119 958 q 133 972 119 972 l 204 972 q 218 958 218 972 l 218 760 q 224 754 218 754 l 464 754 m 454 300 q 588 350 538 300 q 639 483 639 400 q 588 617 639 567 q 454 668 538 668 l 224 668 q 218 663 218 668 l 218 306 q 224 300 218 300 l 454 300 z "},"Q":{"ha":797,"x_min":79,"x_max":718,"o":"m 399 983 q 566 944 493 983 q 678 833 639 904 q 718 669 718 763 l 718 297 q 646 90 718 172 q 453 -8 574 8 q 447 -14 447 -8 l 447 -146 q 433 -160 447 -160 l 363 -160 q 349 -146 349 -160 l 349 -14 q 343 -8 349 -8 q 151 90 222 8 q 79 297 79 172 l 79 669 q 119 833 79 763 q 231 944 158 904 q 399 983 304 983 m 619 674 q 558 835 619 774 q 399 897 497 897 q 239 835 300 897 q 178 674 178 774 l 178 299 q 239 137 178 199 q 399 75 300 75 q 558 137 497 75 q 619 299 619 199 l 619 674 z "},"R":{"ha":829,"x_min":119,"x_max":769,"o":"m 686 0 q 669 10 674 0 l 465 440 q 460 444 464 444 l 224 444 q 218 439 218 444 l 218 14 q 204 0 218 0 l 133 0 q 119 14 119 0 l 119 958 q 133 972 119 972 l 492 972 q 686 898 613 972 q 760 704 760 824 q 708 540 760 607 q 565 453 656 472 q 561 446 558 450 l 768 17 q 769 10 769 14 q 758 0 769 0 l 686 0 m 224 886 q 218 881 218 886 l 218 529 q 224 524 218 524 l 482 524 q 613 574 563 524 q 663 704 663 624 q 613 835 663 785 q 482 886 563 886 l 224 886 z "},"Ŕ":{"ha":853,"x_min":119,"x_max":769,"o":"m 686 0 q 669 10 674 0 l 465 440 q 460 444 464 444 l 224 444 q 218 439 218 444 l 218 14 q 204 0 218 0 l 133 0 q 119 14 119 0 l 119 958 q 133 972 119 972 l 492 972 q 686 898 613 972 q 760 704 760 824 q 708 540 760 607 q 565 453 656 472 q 561 446 558 450 l 768 17 q 769 10 769 14 q 758 0 769 0 l 686 0 m 224 886 q 218 881 218 886 l 218 529 q 224 524 218 524 l 482 524 q 613 574 563 524 q 663 704 663 624 q 613 835 663 785 q 482 886 563 886 l 224 886 m 447 1232 q 464 1242 451 1242 l 526 1242 q 537 1237 535 1242 q 535 1225 539 1232 l 440 1074 q 424 1064 433 1064 l 375 1064 q 365 1069 368 1064 q 365 1081 361 1074 l 447 1232 z "},"Ř":{"ha":853,"x_min":119,"x_max":769,"o":"m 686 0 q 669 10 674 0 l 465 440 q 460 444 464 444 l 224 444 q 218 439 218 444 l 218 14 q 204 0 218 0 l 133 0 q 119 14 119 0 l 119 958 q 133 972 119 972 l 492 972 q 686 898 613 972 q 760 704 760 824 q 708 540 760 607 q 565 453 656 472 q 561 446 558 450 l 768 17 q 769 10 769 14 q 758 0 769 0 l 686 0 m 224 886 q 218 881 218 886 l 218 529 q 224 524 218 524 l 482 524 q 613 574 563 524 q 663 704 663 624 q 613 835 663 785 q 482 886 563 886 l 224 886 m 253 1225 q 250 1233 250 1228 q 253 1239 250 1236 q 261 1242 256 1242 l 317 1242 q 335 1233 329 1242 l 419 1119 q 424 1118 421 1118 q 428 1119 426 1118 l 511 1233 q 529 1242 517 1242 l 585 1242 q 596 1237 593 1242 q 593 1225 599 1232 l 481 1075 q 463 1067 475 1067 l 382 1067 q 364 1075 369 1067 l 253 1225 z "},"S":{"ha":764,"x_min":47,"x_max":711,"o":"m 386 -11 q 138 60 229 -11 q 47 249 47 131 l 47 292 q 61 306 47 306 l 129 306 q 143 292 143 306 l 143 254 q 210 124 143 174 q 394 75 276 75 q 557 120 501 75 q 613 240 613 165 q 587 324 613 289 q 508 389 561 358 q 357 460 454 419 q 195 533 253 501 q 102 613 138 564 q 67 738 67 663 q 148 919 67 854 q 371 983 229 983 q 614 911 525 983 q 703 719 703 839 l 703 689 q 689 675 703 675 l 619 675 q 606 689 606 675 l 606 714 q 542 846 606 794 q 367 897 479 897 q 215 857 268 897 q 163 740 163 817 q 188 658 163 690 q 262 601 214 625 q 410 538 310 576 q 573 460 511 496 q 673 372 635 424 q 711 244 711 319 q 625 58 711 128 q 386 -11 539 -11 z "},"Ś":{"ha":800,"x_min":47,"x_max":711,"o":"m 386 -11 q 138 60 229 -11 q 47 249 47 131 l 47 292 q 61 306 47 306 l 129 306 q 143 292 143 306 l 143 254 q 210 124 143 174 q 394 75 276 75 q 557 120 501 75 q 613 240 613 165 q 587 324 613 289 q 508 389 561 358 q 357 460 454 419 q 195 533 253 501 q 102 613 138 564 q 67 738 67 663 q 148 919 67 854 q 371 983 229 983 q 614 911 525 983 q 703 719 703 839 l 703 689 q 689 675 703 675 l 619 675 q 606 689 606 675 l 606 714 q 542 846 606 794 q 367 897 479 897 q 215 857 268 897 q 163 740 163 817 q 188 658 163 690 q 262 601 214 625 q 410 538 310 576 q 573 460 511 496 q 673 372 635 424 q 711 244 711 319 q 625 58 711 128 q 386 -11 539 -11 m 418 1232 q 435 1242 422 1242 l 497 1242 q 508 1237 506 1242 q 506 1225 510 1232 l 411 1074 q 394 1064 404 1064 l 346 1064 q 335 1069 339 1064 q 336 1081 332 1074 l 418 1232 z "},"Š":{"ha":800,"x_min":47,"x_max":711,"o":"m 386 -11 q 138 60 229 -11 q 47 249 47 131 l 47 292 q 61 306 47 306 l 129 306 q 143 292 143 306 l 143 254 q 210 124 143 174 q 394 75 276 75 q 557 120 501 75 q 613 240 613 165 q 587 324 613 289 q 508 389 561 358 q 357 460 454 419 q 195 533 253 501 q 102 613 138 564 q 67 738 67 663 q 148 919 67 854 q 371 983 229 983 q 614 911 525 983 q 703 719 703 839 l 703 689 q 689 675 703 675 l 619 675 q 606 689 606 675 l 606 714 q 542 846 606 794 q 367 897 479 897 q 215 857 268 897 q 163 740 163 817 q 188 658 163 690 q 262 601 214 625 q 410 538 310 576 q 573 460 511 496 q 673 372 635 424 q 711 244 711 319 q 625 58 711 128 q 386 -11 539 -11 m 224 1225 q 221 1233 221 1228 q 224 1239 221 1236 q 232 1242 226 1242 l 288 1242 q 306 1233 300 1242 l 390 1119 q 394 1118 392 1118 q 399 1119 397 1118 l 482 1233 q 500 1242 488 1242 l 556 1242 q 567 1237 564 1242 q 564 1225 569 1232 l 451 1075 q 433 1067 446 1067 l 353 1067 q 335 1075 340 1067 l 224 1225 z "},"Ş":{"ha":800,"x_min":47,"x_max":711,"o":"m 711 244 q 641 73 711 140 q 443 -8 571 6 q 440 -15 435 -10 q 513 -144 513 -78 q 508 -175 513 -161 q 463 -239 497 -219 q 386 -258 429 -258 q 329 -251 357 -258 q 319 -235 318 -247 l 325 -203 q 331 -194 326 -196 q 342 -193 336 -192 q 372 -197 357 -197 q 420 -181 401 -197 q 439 -132 439 -164 q 418 -71 439 -101 q 364 -14 397 -40 q 357 -11 363 -11 q 131 66 214 -4 q 47 249 47 136 l 47 292 q 61 306 47 306 l 129 306 q 143 292 143 306 l 143 254 q 210 124 143 174 q 394 75 276 75 q 557 120 501 75 q 613 240 613 165 q 587 324 613 289 q 508 389 561 358 q 357 460 454 419 q 195 533 253 501 q 102 613 138 564 q 67 738 67 663 q 148 919 67 854 q 371 983 229 983 q 614 911 525 983 q 703 719 703 839 l 703 689 q 689 675 703 675 l 619 675 q 606 689 606 675 l 606 714 q 542 846 606 794 q 367 897 479 897 q 215 857 268 897 q 163 740 163 817 q 188 658 163 690 q 262 601 214 625 q 410 538 310 576 q 573 460 511 496 q 673 372 635 424 q 711 244 711 319 z "},"Ŝ":{"ha":764,"x_min":47,"x_max":711,"o":"m 386 -11 q 138 60 229 -11 q 47 249 47 131 l 47 292 q 61 306 47 306 l 129 306 q 143 292 143 306 l 143 254 q 210 124 143 174 q 394 75 276 75 q 557 120 501 75 q 613 240 613 165 q 587 324 613 289 q 508 389 561 358 q 357 460 454 419 q 195 533 253 501 q 102 613 138 564 q 67 738 67 663 q 148 919 67 854 q 371 983 229 983 q 614 911 525 983 q 703 719 703 839 l 703 689 q 689 675 703 675 l 619 675 q 606 689 606 675 l 606 714 q 542 846 606 794 q 367 897 479 897 q 215 857 268 897 q 163 740 163 817 q 188 658 163 690 q 262 601 214 625 q 410 538 310 576 q 573 460 511 496 q 673 372 635 424 q 711 244 711 319 q 625 58 711 128 q 386 -11 539 -11 m 314 1233 q 332 1242 319 1242 l 413 1242 q 431 1233 425 1242 l 543 1083 q 546 1075 546 1081 q 543 1069 546 1072 q 535 1067 540 1067 l 479 1067 q 461 1075 467 1067 l 378 1189 q 374 1192 376 1192 q 369 1189 371 1192 l 285 1075 q 267 1067 279 1067 l 211 1067 q 200 1072 203 1067 q 203 1083 197 1076 l 314 1233 z "},"Ə":{"ha":768,"x_min":68,"x_max":692,"o":"m 672 586 q 688 503 683 549 q 692 389 692 458 q 688 282 692 324 q 676 204 685 240 q 572 47 650 106 q 382 -12 493 -12 q 176 56 257 -12 q 75 238 96 124 q 68 344 68 276 l 68 411 q 82 425 68 425 l 589 425 q 594 431 594 425 q 582 556 592 524 q 508 669 564 628 q 367 711 453 711 q 247 676 299 710 q 167 588 194 643 q 149 581 160 574 l 92 614 q 86 633 81 621 q 197 752 124 708 q 371 796 271 796 q 564 740 485 796 q 672 586 643 685 m 382 74 q 515 116 461 74 q 585 229 568 158 q 594 333 592 261 q 589 339 594 339 l 172 339 q 167 333 167 339 q 175 232 169 254 q 246 117 192 160 q 382 74 300 74 z "},"T":{"ha":728,"x_min":29,"x_max":699,"o":"m 685 972 q 699 958 699 972 l 699 899 q 685 885 699 885 l 413 885 q 407 879 407 885 l 407 14 q 393 0 407 0 l 322 0 q 308 14 308 0 l 308 879 q 303 885 308 885 l 43 885 q 29 899 29 885 l 29 958 q 43 972 29 972 l 685 972 z "},"Ŧ":{"ha":789,"x_min":29,"x_max":699,"o":"m 699 899 q 685 885 699 885 l 413 885 q 407 879 407 885 l 407 588 q 413 582 407 582 l 597 582 q 611 568 611 582 l 611 529 q 597 515 611 515 l 413 515 q 407 510 407 515 l 407 14 q 393 0 407 0 l 322 0 q 308 14 308 0 l 308 510 q 303 515 308 515 l 185 515 q 171 529 171 515 l 171 568 q 185 582 171 582 l 303 582 q 308 588 308 582 l 308 879 q 303 885 308 885 l 43 885 q 29 899 29 885 l 29 958 q 43 972 29 972 l 685 972 q 699 958 699 972 l 699 899 z "},"Ť":{"ha":789,"x_min":29,"x_max":699,"o":"m 685 972 q 699 958 699 972 l 699 899 q 685 885 699 885 l 413 885 q 407 879 407 885 l 407 14 q 393 0 407 0 l 322 0 q 308 14 308 0 l 308 879 q 303 885 308 885 l 43 885 q 29 899 29 885 l 29 958 q 43 972 29 972 l 685 972 z "},"U":{"ha":883,"x_min":113,"x_max":772,"o":"m 442 -11 q 269 28 344 -11 q 153 137 194 67 q 113 300 113 207 l 113 958 q 126 972 113 972 l 197 972 q 211 958 211 972 l 211 297 q 274 137 211 199 q 442 75 338 75 q 610 137 546 75 q 674 297 674 199 l 674 958 q 688 972 674 972 l 758 972 q 772 958 772 972 l 772 300 q 731 137 772 207 q 615 28 690 67 q 442 -11 540 -11 z "},"Ú":{"ha":910,"x_min":113,"x_max":772,"o":"m 442 -11 q 269 28 344 -11 q 153 137 194 67 q 113 300 113 207 l 113 958 q 126 972 113 972 l 197 972 q 211 958 211 972 l 211 297 q 274 137 211 199 q 442 75 338 75 q 610 137 546 75 q 674 297 674 199 l 674 958 q 688 972 674 972 l 758 972 q 772 958 772 972 l 772 300 q 731 137 772 207 q 615 28 690 67 q 442 -11 540 -11 m 481 1232 q 497 1242 485 1242 l 560 1242 q 570 1237 568 1242 q 568 1225 572 1232 l 474 1074 q 457 1064 467 1064 l 408 1064 q 398 1069 401 1064 q 399 1081 394 1074 l 481 1232 z "},"Ŭ":{"ha":883,"x_min":113,"x_max":772,"o":"m 442 -11 q 269 28 344 -11 q 153 137 194 67 q 113 300 113 207 l 113 958 q 126 972 113 972 l 197 972 q 211 958 211 972 l 211 297 q 274 137 211 199 q 442 75 338 75 q 610 137 546 75 q 674 297 674 199 l 674 958 q 688 972 674 972 l 758 972 q 772 958 772 972 l 772 300 q 731 137 772 207 q 615 28 690 67 q 442 -11 540 -11 m 440 1078 q 325 1117 372 1078 q 271 1215 278 1157 l 271 1218 q 283 1229 271 1229 l 321 1229 q 336 1215 335 1229 q 371 1157 342 1181 q 440 1133 400 1133 q 512 1156 482 1133 q 546 1215 542 1179 q 561 1229 547 1229 l 599 1229 q 613 1217 613 1229 q 558 1117 607 1157 q 440 1078 510 1078 z "},"Û":{"ha":910,"x_min":113,"x_max":772,"o":"m 442 -11 q 269 28 344 -11 q 153 137 194 67 q 113 300 113 207 l 113 958 q 126 972 113 972 l 197 972 q 211 958 211 972 l 211 297 q 274 137 211 199 q 442 75 338 75 q 610 137 546 75 q 674 297 674 199 l 674 958 q 688 972 674 972 l 758 972 q 772 958 772 972 l 772 300 q 731 137 772 207 q 615 28 690 67 q 442 -11 540 -11 m 394 1233 q 413 1242 400 1242 l 493 1242 q 511 1233 506 1242 l 624 1083 q 626 1075 626 1081 q 624 1069 626 1072 q 615 1067 621 1067 l 560 1067 q 542 1075 547 1067 l 458 1189 q 454 1192 457 1192 q 450 1189 451 1192 l 365 1075 q 347 1067 360 1067 l 292 1067 q 281 1072 283 1067 q 283 1083 278 1076 l 394 1233 z "},"Ü":{"ha":910,"x_min":113,"x_max":772,"o":"m 442 -11 q 269 28 344 -11 q 153 137 194 67 q 113 300 113 207 l 113 958 q 126 972 113 972 l 197 972 q 211 958 211 972 l 211 297 q 274 137 211 199 q 442 75 338 75 q 610 137 546 75 q 674 297 674 199 l 674 958 q 688 972 674 972 l 758 972 q 772 958 772 972 l 772 300 q 731 137 772 207 q 615 28 690 67 q 442 -11 540 -11 z "},"Ụ":{"ha":883,"x_min":113,"x_max":772,"o":"m 442 -11 q 269 28 344 -11 q 153 137 194 67 q 113 300 113 207 l 113 958 q 126 972 113 972 l 197 972 q 211 958 211 972 l 211 297 q 274 137 211 199 q 442 75 338 75 q 610 137 546 75 q 674 297 674 199 l 674 958 q 688 972 674 972 l 758 972 q 772 958 772 972 l 772 300 q 731 137 772 207 q 615 28 690 67 q 442 -11 540 -11 m 446 -253 q 393 -232 414 -253 q 372 -179 372 -211 q 393 -126 372 -147 q 446 -106 414 -106 q 499 -126 478 -106 q 519 -179 519 -147 q 499 -232 519 -211 q 446 -253 478 -253 z "},"Ù":{"ha":910,"x_min":113,"x_max":772,"o":"m 442 -11 q 269 28 344 -11 q 153 137 194 67 q 113 300 113 207 l 113 958 q 126 972 113 972 l 197 972 q 211 958 211 972 l 211 297 q 274 137 211 199 q 442 75 338 75 q 610 137 546 75 q 674 297 674 199 l 674 958 q 688 972 674 972 l 758 972 q 772 958 772 972 l 772 300 q 731 137 772 207 q 615 28 690 67 q 442 -11 540 -11 m 433 1064 q 417 1074 424 1064 l 322 1225 q 319 1233 319 1231 q 332 1242 319 1242 l 394 1242 q 411 1232 407 1242 l 493 1081 l 496 1074 q 492 1067 496 1069 q 483 1064 489 1064 l 433 1064 z "},"Ủ":{"ha":883,"x_min":113,"x_max":772,"o":"m 442 -11 q 269 28 344 -11 q 153 137 194 67 q 113 300 113 207 l 113 958 q 126 972 113 972 l 197 972 q 211 958 211 972 l 211 297 q 274 137 211 199 q 442 75 338 75 q 610 137 546 75 q 674 297 674 199 l 674 958 q 688 972 674 972 l 758 972 q 772 958 772 972 l 772 300 q 731 137 772 207 q 615 28 690 67 q 442 -11 540 -11 m 432 1039 q 422 1045 425 1040 q 422 1056 419 1050 q 444 1093 432 1076 q 469 1122 457 1110 q 496 1153 488 1139 q 504 1188 504 1167 q 487 1222 504 1207 q 446 1238 469 1238 q 406 1226 422 1238 q 371 1188 390 1215 q 351 1185 363 1176 l 329 1199 q 325 1218 318 1207 q 378 1276 351 1258 q 449 1293 404 1293 q 533 1264 500 1293 q 565 1188 565 1235 q 553 1137 565 1157 q 514 1089 540 1117 q 475 1042 485 1063 q 457 1033 469 1032 l 432 1039 z "},"Ư":{"ha":883,"x_min":113,"x_max":861,"o":"m 847 1040 q 861 1026 861 1040 q 776 893 853 935 q 772 886 772 889 l 772 300 q 731 137 772 207 q 615 28 690 67 q 442 -11 540 -11 q 269 28 344 -11 q 153 137 194 67 q 113 300 113 207 l 113 958 q 126 972 113 972 l 197 972 q 211 958 211 972 l 211 297 q 274 137 211 199 q 442 75 338 75 q 610 137 546 75 q 674 297 674 199 l 674 958 q 688 972 674 972 l 758 972 q 772 971 772 972 q 779 979 776 974 q 794 1026 790 999 q 808 1040 794 1040 l 847 1040 z "},"Ứ":{"ha":883,"x_min":113,"x_max":861,"o":"m 847 1040 q 861 1026 861 1040 q 776 893 853 935 q 772 886 772 889 l 772 300 q 731 137 772 207 q 615 28 690 67 q 442 -11 540 -11 q 269 28 344 -11 q 153 137 194 67 q 113 300 113 207 l 113 958 q 126 972 113 972 l 197 972 q 211 958 211 972 l 211 297 q 274 137 211 199 q 442 75 338 75 q 610 137 546 75 q 674 297 674 199 l 674 958 q 688 972 674 972 l 758 972 q 772 971 772 972 q 779 979 776 974 q 794 1026 790 999 q 808 1040 794 1040 l 847 1040 m 468 1232 q 485 1242 472 1242 l 547 1242 q 558 1237 556 1242 q 556 1225 560 1232 l 461 1074 q 444 1064 454 1064 l 396 1064 q 385 1069 389 1064 q 386 1081 382 1074 l 468 1232 z "},"Ự":{"ha":883,"x_min":113,"x_max":861,"o":"m 847 1040 q 861 1026 861 1040 q 776 893 853 935 q 772 886 772 889 l 772 300 q 731 137 772 207 q 615 28 690 67 q 442 -11 540 -11 q 269 28 344 -11 q 153 137 194 67 q 113 300 113 207 l 113 958 q 126 972 113 972 l 197 972 q 211 958 211 972 l 211 297 q 274 137 211 199 q 442 75 338 75 q 610 137 546 75 q 674 297 674 199 l 674 958 q 688 972 674 972 l 758 972 q 772 971 772 972 q 779 979 776 974 q 794 1026 790 999 q 808 1040 794 1040 l 847 1040 m 446 -253 q 393 -232 414 -253 q 372 -179 372 -211 q 393 -126 372 -147 q 446 -106 414 -106 q 499 -126 478 -106 q 519 -179 519 -147 q 499 -232 519 -211 q 446 -253 478 -253 z "},"Ừ":{"ha":883,"x_min":113,"x_max":861,"o":"m 847 1040 q 861 1026 861 1040 q 776 893 853 935 q 772 886 772 889 l 772 300 q 731 137 772 207 q 615 28 690 67 q 442 -11 540 -11 q 269 28 344 -11 q 153 137 194 67 q 113 300 113 207 l 113 958 q 126 972 113 972 l 197 972 q 211 958 211 972 l 211 297 q 274 137 211 199 q 442 75 338 75 q 610 137 546 75 q 674 297 674 199 l 674 958 q 688 972 674 972 l 758 972 q 772 971 772 972 q 779 979 776 974 q 794 1026 790 999 q 808 1040 794 1040 l 847 1040 m 421 1064 q 404 1074 411 1064 l 310 1225 q 307 1233 307 1231 q 319 1242 307 1242 l 382 1242 q 399 1232 394 1242 l 481 1081 l 483 1074 q 480 1067 483 1069 q 471 1064 476 1064 l 421 1064 z "},"Ử":{"ha":883,"x_min":113,"x_max":861,"o":"m 847 1040 q 861 1026 861 1040 q 776 893 853 935 q 772 886 772 889 l 772 300 q 731 137 772 207 q 615 28 690 67 q 442 -11 540 -11 q 269 28 344 -11 q 153 137 194 67 q 113 300 113 207 l 113 958 q 126 972 113 972 l 197 972 q 211 958 211 972 l 211 297 q 274 137 211 199 q 442 75 338 75 q 610 137 546 75 q 674 297 674 199 l 674 958 q 688 972 674 972 l 758 972 q 772 971 772 972 q 779 979 776 974 q 794 1026 790 999 q 808 1040 794 1040 l 847 1040 m 432 1039 q 422 1045 425 1040 q 422 1056 419 1050 q 444 1093 432 1076 q 469 1122 457 1110 q 496 1153 488 1139 q 504 1188 504 1167 q 487 1222 504 1207 q 446 1238 469 1238 q 406 1226 422 1238 q 371 1188 390 1215 q 351 1185 363 1176 l 329 1199 q 325 1218 318 1207 q 378 1276 351 1258 q 449 1293 404 1293 q 533 1264 500 1293 q 565 1188 565 1235 q 553 1137 565 1157 q 514 1089 540 1117 q 475 1042 485 1063 q 457 1033 469 1032 l 432 1039 z "},"Ữ":{"ha":883,"x_min":113,"x_max":861,"o":"m 847 1040 q 861 1026 861 1040 q 776 893 853 935 q 772 886 772 889 l 772 300 q 731 137 772 207 q 615 28 690 67 q 442 -11 540 -11 q 269 28 344 -11 q 153 137 194 67 q 113 300 113 207 l 113 958 q 126 972 113 972 l 197 972 q 211 958 211 972 l 211 297 q 274 137 211 199 q 442 75 338 75 q 610 137 546 75 q 674 297 674 199 l 674 958 q 688 972 674 972 l 758 972 q 772 971 772 972 q 779 979 776 974 q 794 1026 790 999 q 808 1040 794 1040 l 847 1040 m 529 1107 q 483 1115 503 1107 q 443 1138 464 1124 q 404 1158 418 1153 q 374 1164 390 1164 q 331 1156 349 1164 q 297 1129 314 1149 q 278 1126 289 1117 l 253 1151 q 250 1171 243 1161 q 369 1239 296 1239 q 409 1232 392 1239 q 441 1217 426 1225 q 460 1207 456 1210 q 480 1196 465 1204 q 506 1183 494 1188 q 529 1179 518 1179 q 569 1188 551 1179 q 603 1218 586 1196 q 622 1221 611 1232 l 646 1197 q 649 1176 654 1189 q 597 1125 629 1143 q 529 1107 564 1107 z "},"Ű":{"ha":910,"x_min":113,"x_max":772,"o":"m 442 -11 q 269 28 344 -11 q 153 137 194 67 q 113 300 113 207 l 113 958 q 126 972 113 972 l 197 972 q 211 958 211 972 l 211 297 q 274 137 211 199 q 442 75 338 75 q 610 137 546 75 q 674 297 674 199 l 674 958 q 688 972 674 972 l 758 972 q 772 958 772 972 l 772 300 q 731 137 772 207 q 615 28 690 67 q 442 -11 540 -11 m 376 1232 q 393 1242 381 1242 l 457 1242 q 468 1237 465 1242 q 467 1225 471 1232 l 383 1074 q 367 1064 379 1064 l 308 1064 q 299 1069 301 1064 q 299 1081 296 1074 l 376 1232 m 607 1232 q 624 1242 611 1242 l 683 1242 q 694 1237 692 1242 q 693 1225 697 1232 l 608 1074 q 592 1064 601 1064 l 536 1064 q 524 1069 528 1064 q 525 1081 521 1074 l 607 1232 z "},"Ū":{"ha":910,"x_min":113,"x_max":772,"o":"m 442 -11 q 269 28 344 -11 q 153 137 194 67 q 113 300 113 207 l 113 958 q 126 972 113 972 l 197 972 q 211 958 211 972 l 211 297 q 274 137 211 199 q 442 75 338 75 q 610 137 546 75 q 674 297 674 199 l 674 958 q 688 972 674 972 l 758 972 q 772 958 772 972 l 772 300 q 731 137 772 207 q 615 28 690 67 q 442 -11 540 -11 m 268 1151 q 282 1165 268 1165 l 628 1165 q 642 1151 642 1165 l 642 1108 q 628 1094 642 1094 l 282 1094 q 268 1108 268 1094 l 268 1151 z "},"Ų":{"ha":910,"x_min":113,"x_max":772,"o":"m 674 958 q 688 972 674 972 l 758 972 q 772 958 772 972 l 772 300 q 694 87 772 171 q 485 -10 615 3 q 478 -12 481 -10 q 415 -119 415 -68 q 434 -169 415 -153 q 483 -186 453 -186 q 514 -182 497 -186 l 519 -181 q 531 -192 528 -181 l 536 -224 l 536 -226 q 525 -240 536 -236 q 468 -247 497 -247 q 391 -228 424 -247 q 347 -164 358 -208 q 343 -132 343 -147 q 401 -15 343 -72 q 400 -8 408 -11 q 190 88 268 4 q 113 300 113 171 l 113 958 q 126 972 113 972 l 197 972 q 211 958 211 972 l 211 297 q 274 137 211 199 q 442 75 338 75 q 610 137 546 75 q 674 297 674 199 l 674 958 z "},"Ů":{"ha":910,"x_min":113,"x_max":772,"o":"m 442 -11 q 269 28 344 -11 q 153 137 194 67 q 113 300 113 207 l 113 958 q 126 972 113 972 l 197 972 q 211 958 211 972 l 211 297 q 274 137 211 199 q 442 75 338 75 q 610 137 546 75 q 674 297 674 199 l 674 958 q 688 972 674 972 l 758 972 q 772 958 772 972 l 772 300 q 731 137 772 207 q 615 28 690 67 q 442 -11 540 -11 m 456 1074 q 347 1117 390 1074 q 303 1224 303 1160 q 347 1330 303 1286 q 456 1374 392 1374 q 563 1330 519 1374 q 607 1224 607 1286 q 563 1117 607 1160 q 456 1074 519 1074 m 456 1133 q 520 1159 493 1133 q 547 1224 547 1185 q 520 1289 547 1263 q 456 1315 493 1315 q 390 1289 417 1315 q 363 1224 363 1263 q 390 1159 363 1185 q 456 1133 417 1133 z "},"Ũ":{"ha":883,"x_min":113,"x_max":772,"o":"m 442 -11 q 269 28 344 -11 q 153 137 194 67 q 113 300 113 207 l 113 958 q 126 972 113 972 l 197 972 q 211 958 211 972 l 211 297 q 274 137 211 199 q 442 75 338 75 q 610 137 546 75 q 674 297 674 199 l 674 958 q 688 972 674 972 l 758 972 q 772 958 772 972 l 772 300 q 731 137 772 207 q 615 28 690 67 q 442 -11 540 -11 m 529 1107 q 483 1115 503 1107 q 443 1138 464 1124 q 404 1158 418 1153 q 374 1164 390 1164 q 331 1156 349 1164 q 297 1129 314 1149 q 278 1126 289 1117 l 253 1151 q 250 1171 243 1161 q 369 1239 296 1239 q 409 1232 392 1239 q 441 1217 426 1225 q 460 1207 456 1210 q 480 1196 465 1204 q 506 1183 494 1188 q 529 1179 518 1179 q 569 1188 551 1179 q 603 1218 586 1196 q 622 1221 611 1232 l 646 1197 q 649 1176 654 1189 q 597 1125 629 1143 q 529 1107 564 1107 z "},"V":{"ha":790,"x_min":35,"x_max":758,"o":"m 654 961 q 671 972 658 972 l 743 972 q 754 957 758 972 l 450 11 q 433 0 446 0 l 356 0 q 339 11 343 0 l 36 957 l 35 963 q 47 972 35 972 l 124 972 q 140 961 136 972 l 392 140 q 396 138 393 138 q 400 140 399 138 l 654 961 z "},"W":{"ha":1214,"x_min":36,"x_max":1181,"o":"m 1081 960 q 1096 972 1083 972 l 1167 972 q 1177 968 1174 972 q 1179 957 1181 964 l 917 11 q 901 0 914 0 l 828 0 q 813 13 815 0 l 610 794 q 606 797 608 797 q 603 794 604 797 l 404 13 q 389 0 403 0 l 319 0 q 304 11 308 0 l 38 957 l 36 961 q 50 972 36 972 l 124 972 q 139 961 136 972 l 350 197 q 353 194 351 194 q 357 197 356 194 l 553 960 q 568 972 556 972 l 643 972 q 658 960 656 972 l 864 196 q 867 193 865 193 q 871 196 869 193 l 1081 960 z "},"Ẃ":{"ha":1232,"x_min":36,"x_max":1181,"o":"m 1081 960 q 1096 972 1083 972 l 1167 972 q 1177 968 1174 972 q 1179 957 1181 964 l 917 11 q 901 0 914 0 l 828 0 q 813 13 815 0 l 610 794 q 606 797 608 797 q 603 794 604 797 l 404 13 q 389 0 403 0 l 319 0 q 304 11 308 0 l 38 957 l 36 961 q 50 972 36 972 l 124 972 q 139 961 136 972 l 350 197 q 353 194 351 194 q 357 197 356 194 l 553 960 q 568 972 556 972 l 643 972 q 658 960 656 972 l 864 196 q 867 193 865 193 q 871 196 869 193 l 1081 960 m 642 1232 q 658 1242 646 1242 l 721 1242 q 731 1237 729 1242 q 729 1225 733 1232 l 635 1074 q 618 1064 628 1064 l 569 1064 q 559 1069 563 1064 q 560 1081 556 1074 l 642 1232 z "},"Ŵ":{"ha":1232,"x_min":36,"x_max":1181,"o":"m 1081 960 q 1096 972 1083 972 l 1167 972 q 1177 968 1174 972 q 1179 957 1181 964 l 917 11 q 901 0 914 0 l 828 0 q 813 13 815 0 l 610 794 q 606 797 608 797 q 603 794 604 797 l 404 13 q 389 0 403 0 l 319 0 q 304 11 308 0 l 38 957 l 36 961 q 50 972 36 972 l 124 972 q 139 961 136 972 l 350 197 q 353 194 351 194 q 357 197 356 194 l 553 960 q 568 972 556 972 l 643 972 q 658 960 656 972 l 864 196 q 867 193 865 193 q 871 196 869 193 l 1081 960 m 554 1233 q 572 1242 560 1242 l 653 1242 q 671 1233 665 1242 l 783 1083 q 786 1075 786 1081 q 783 1069 786 1072 q 775 1067 781 1067 l 719 1067 q 701 1075 707 1067 l 618 1189 q 614 1192 617 1192 q 610 1189 611 1192 l 525 1075 q 507 1067 519 1067 l 451 1067 q 440 1072 443 1067 q 443 1083 438 1076 l 554 1233 z "},"Ẅ":{"ha":1232,"x_min":36,"x_max":1181,"o":"m 1081 960 q 1096 972 1083 972 l 1167 972 q 1177 968 1174 972 q 1179 957 1181 964 l 917 11 q 901 0 914 0 l 828 0 q 813 13 815 0 l 610 794 q 606 797 608 797 q 603 794 604 797 l 404 13 q 389 0 403 0 l 319 0 q 304 11 308 0 l 38 957 l 36 961 q 50 972 36 972 l 124 972 q 139 961 136 972 l 350 197 q 353 194 351 194 q 357 197 356 194 l 553 960 q 568 972 556 972 l 643 972 q 658 960 656 972 l 864 196 q 867 193 865 193 q 871 196 869 193 l 1081 960 z "},"Ẁ":{"ha":1232,"x_min":36,"x_max":1181,"o":"m 1081 960 q 1096 972 1083 972 l 1167 972 q 1177 968 1174 972 q 1179 957 1181 964 l 917 11 q 901 0 914 0 l 828 0 q 813 13 815 0 l 610 794 q 606 797 608 797 q 603 794 604 797 l 404 13 q 389 0 403 0 l 319 0 q 304 11 308 0 l 38 957 l 36 961 q 50 972 36 972 l 124 972 q 139 961 136 972 l 350 197 q 353 194 351 194 q 357 197 356 194 l 553 960 q 568 972 556 972 l 643 972 q 658 960 656 972 l 864 196 q 867 193 865 193 q 871 196 869 193 l 1081 960 m 593 1064 q 576 1074 583 1064 l 482 1225 q 479 1233 479 1231 q 492 1242 479 1242 l 554 1242 q 571 1232 567 1242 l 653 1081 l 656 1074 q 652 1067 656 1069 q 643 1064 649 1064 l 593 1064 z "},"X":{"ha":783,"x_min":35,"x_max":749,"o":"m 331 482 q 331 490 333 486 l 39 956 q 36 964 36 961 q 47 972 36 972 l 125 972 q 142 963 135 972 l 389 567 q 393 565 390 565 q 397 567 396 565 l 642 963 q 658 972 649 972 l 736 972 q 747 967 744 972 q 744 956 749 963 l 454 489 q 454 481 453 485 l 744 17 q 747 8 747 11 q 736 0 747 0 l 660 0 q 643 10 650 0 l 397 404 q 393 407 396 407 q 389 404 390 407 l 142 10 q 125 0 135 0 l 47 0 q 37 5 39 0 q 39 17 35 10 l 331 482 z "},"Y":{"ha":765,"x_min":40,"x_max":726,"o":"m 333 426 q 332 433 333 432 l 43 956 q 40 964 40 961 q 53 972 40 972 l 128 972 q 144 963 140 972 l 378 539 q 382 538 379 538 q 386 539 385 538 l 621 963 q 638 972 626 972 l 713 972 q 724 967 721 972 q 722 956 726 963 l 433 433 q 432 426 432 432 l 432 15 q 418 1 432 1 l 347 1 q 333 15 333 1 l 333 426 z "},"Ý":{"ha":775,"x_min":40,"x_max":726,"o":"m 333 426 q 332 433 333 432 l 43 956 q 40 964 40 961 q 53 972 40 972 l 128 972 q 144 963 140 972 l 378 539 q 382 538 379 538 q 386 539 385 538 l 621 963 q 638 972 626 972 l 713 972 q 724 967 721 972 q 722 956 726 963 l 433 433 q 432 426 432 432 l 432 15 q 418 1 432 1 l 347 1 q 333 15 333 1 l 333 426 m 414 1231 q 431 1240 418 1240 l 493 1240 q 503 1235 501 1240 q 501 1224 506 1231 l 407 1072 q 390 1063 400 1063 l 342 1063 q 331 1067 335 1063 q 332 1079 328 1072 l 414 1231 z "},"Ŷ":{"ha":775,"x_min":40,"x_max":726,"o":"m 333 426 q 332 433 333 432 l 43 956 q 40 964 40 961 q 53 972 40 972 l 128 972 q 144 963 140 972 l 378 539 q 382 538 379 538 q 386 539 385 538 l 621 963 q 638 972 626 972 l 713 972 q 724 967 721 972 q 722 956 726 963 l 433 433 q 432 426 432 432 l 432 15 q 418 1 432 1 l 347 1 q 333 15 333 1 l 333 426 m 328 1232 q 346 1240 333 1240 l 426 1240 q 444 1232 439 1240 l 557 1082 q 560 1074 560 1079 q 557 1068 560 1071 q 549 1065 554 1065 l 493 1065 q 475 1074 481 1065 l 392 1188 q 388 1190 390 1190 q 383 1188 385 1190 l 299 1074 q 281 1065 293 1065 l 225 1065 q 214 1070 217 1065 q 217 1082 211 1075 l 328 1232 z "},"Ÿ":{"ha":775,"x_min":40,"x_max":726,"o":"m 333 426 q 332 433 333 432 l 43 956 q 40 964 40 961 q 53 972 40 972 l 128 972 q 144 963 140 972 l 378 539 q 382 538 379 538 q 386 539 385 538 l 621 963 q 638 972 626 972 l 713 972 q 724 967 721 972 q 722 956 726 963 l 433 433 q 432 426 432 432 l 432 15 q 418 1 432 1 l 347 1 q 333 15 333 1 l 333 426 z "},"Ỵ":{"ha":765,"x_min":40,"x_max":726,"o":"m 333 426 q 332 433 333 432 l 43 956 q 40 964 40 961 q 53 972 40 972 l 128 972 q 144 963 140 972 l 378 539 q 382 538 379 538 q 386 539 385 538 l 621 963 q 638 972 626 972 l 713 972 q 724 967 721 972 q 722 956 726 963 l 433 433 q 432 426 432 432 l 432 15 q 418 1 432 1 l 347 1 q 333 15 333 1 l 333 426 m 385 -253 q 332 -232 353 -253 q 311 -179 311 -211 q 332 -126 311 -147 q 385 -106 353 -106 q 438 -126 417 -106 q 458 -179 458 -147 q 438 -232 458 -211 q 385 -253 417 -253 z "},"Ỳ":{"ha":775,"x_min":40,"x_max":726,"o":"m 333 426 q 332 433 333 432 l 43 956 q 40 964 40 961 q 53 972 40 972 l 128 972 q 144 963 140 972 l 378 539 q 382 538 379 538 q 386 539 385 538 l 621 963 q 638 972 626 972 l 713 972 q 724 967 721 972 q 722 956 726 963 l 433 433 q 432 426 432 432 l 432 15 q 418 1 432 1 l 347 1 q 333 15 333 1 l 333 426 m 367 1063 q 350 1072 357 1063 l 256 1224 q 253 1232 253 1229 q 265 1240 253 1240 l 328 1240 q 344 1231 340 1240 l 426 1079 l 429 1072 q 426 1065 429 1068 q 417 1063 422 1063 l 367 1063 z "},"Ỷ":{"ha":765,"x_min":40,"x_max":726,"o":"m 333 426 q 332 433 333 432 l 43 956 q 40 964 40 961 q 53 972 40 972 l 128 972 q 144 963 140 972 l 378 539 q 382 538 379 538 q 386 539 385 538 l 621 963 q 638 972 626 972 l 713 972 q 724 967 721 972 q 722 956 726 963 l 433 433 q 432 426 432 432 l 432 15 q 418 1 432 1 l 347 1 q 333 15 333 1 l 333 426 m 372 1038 q 363 1044 365 1039 q 363 1054 360 1049 q 385 1092 372 1075 q 410 1121 397 1108 q 436 1151 428 1138 q 444 1186 444 1165 q 427 1221 444 1206 q 386 1236 410 1236 q 347 1225 363 1236 q 311 1186 331 1214 q 292 1183 303 1175 l 269 1197 q 265 1217 258 1206 q 318 1274 292 1257 q 389 1292 344 1292 q 473 1263 440 1292 q 506 1186 506 1233 q 493 1135 506 1156 q 454 1088 481 1115 q 415 1040 425 1061 q 397 1032 410 1031 l 372 1038 z "},"Ỹ":{"ha":765,"x_min":40,"x_max":726,"o":"m 333 426 q 332 433 333 432 l 43 956 q 40 964 40 961 q 53 972 40 972 l 128 972 q 144 963 140 972 l 378 539 q 382 538 379 538 q 386 539 385 538 l 621 963 q 638 972 626 972 l 713 972 q 724 967 721 972 q 722 956 726 963 l 433 433 q 432 426 432 432 l 432 15 q 418 1 432 1 l 347 1 q 333 15 333 1 l 333 426 m 471 1107 q 425 1115 444 1107 q 385 1138 406 1124 q 346 1158 360 1153 q 315 1164 332 1164 q 273 1156 290 1164 q 239 1129 256 1149 q 219 1126 231 1117 l 194 1151 q 192 1171 185 1161 q 311 1239 238 1239 q 351 1232 333 1239 q 383 1217 368 1225 q 401 1207 397 1210 q 422 1196 407 1204 q 448 1183 436 1188 q 471 1179 460 1179 q 510 1188 493 1179 q 544 1218 528 1196 q 564 1221 553 1232 l 588 1197 q 590 1176 596 1189 q 538 1125 571 1143 q 471 1107 506 1107 z "},"Z":{"ha":738,"x_min":56,"x_max":682,"o":"m 56 81 q 61 99 56 88 l 569 879 q 569 883 571 881 q 565 886 568 886 l 69 886 q 56 900 56 886 l 56 958 q 69 972 56 972 l 668 972 q 682 958 682 972 l 682 892 q 676 874 682 885 l 169 93 q 169 89 168 92 q 174 86 171 86 l 668 86 q 682 72 682 86 l 682 14 q 668 0 682 0 l 69 0 q 56 14 56 0 l 56 81 z "},"Ź":{"ha":767,"x_min":56,"x_max":682,"o":"m 56 81 q 61 99 56 88 l 569 879 q 569 883 571 881 q 565 886 568 886 l 69 886 q 56 900 56 886 l 56 958 q 69 972 56 972 l 668 972 q 682 958 682 972 l 682 892 q 676 874 682 885 l 169 93 q 169 89 168 92 q 174 86 171 86 l 668 86 q 682 72 682 86 l 682 14 q 668 0 682 0 l 69 0 q 56 14 56 0 l 56 81 m 401 1232 q 418 1242 406 1242 l 481 1242 q 491 1237 489 1242 q 489 1225 493 1232 l 394 1074 q 378 1064 388 1064 l 329 1064 q 319 1069 322 1064 q 319 1081 315 1074 l 401 1232 z "},"Ž":{"ha":767,"x_min":56,"x_max":682,"o":"m 56 81 q 61 99 56 88 l 569 879 q 569 883 571 881 q 565 886 568 886 l 69 886 q 56 900 56 886 l 56 958 q 69 972 56 972 l 668 972 q 682 958 682 972 l 682 892 q 676 874 682 885 l 169 93 q 169 89 168 92 q 174 86 171 86 l 668 86 q 682 72 682 86 l 682 14 q 668 0 682 0 l 69 0 q 56 14 56 0 l 56 81 m 208 1225 q 206 1233 206 1228 q 208 1239 206 1236 q 217 1242 211 1242 l 272 1242 q 290 1233 285 1242 l 375 1119 q 379 1118 376 1118 q 383 1119 382 1118 l 467 1233 q 485 1242 472 1242 l 540 1242 q 551 1237 549 1242 q 549 1225 554 1232 l 436 1075 q 418 1067 431 1067 l 338 1067 q 319 1075 325 1067 l 208 1225 z "},"Ż":{"ha":767,"x_min":56,"x_max":682,"o":"m 56 81 q 61 99 56 88 l 569 879 q 569 883 571 881 q 565 886 568 886 l 69 886 q 56 900 56 886 l 56 958 q 69 972 56 972 l 668 972 q 682 958 682 972 l 682 892 q 676 874 682 885 l 169 93 q 169 89 168 92 q 174 86 171 86 l 668 86 q 682 72 682 86 l 682 14 q 668 0 682 0 l 69 0 q 56 14 56 0 l 56 81 m 375 1100 q 319 1122 340 1100 q 297 1178 297 1144 q 319 1234 297 1213 q 375 1256 340 1256 q 431 1234 408 1256 q 453 1178 453 1213 q 431 1122 453 1144 q 375 1100 408 1100 z "},"Ģ":{"ha":850,"x_min":78,"x_max":729,"o":"m 404 -11 q 233 27 307 -11 q 119 135 160 65 q 78 294 78 204 l 78 678 q 119 838 78 768 q 233 945 160 907 q 404 983 307 983 q 574 946 500 983 q 689 841 649 908 q 729 689 729 774 l 729 671 q 715 657 729 657 l 644 657 q 631 671 631 657 l 631 688 q 569 839 631 781 q 404 897 507 897 q 239 838 301 897 q 176 681 176 778 l 176 292 q 240 135 176 194 q 408 75 304 75 q 570 131 510 75 q 631 279 631 186 l 631 406 q 625 411 631 411 l 421 411 q 407 425 407 411 l 407 483 q 421 497 407 497 l 715 497 q 729 483 729 497 l 729 304 q 641 72 729 156 q 404 -11 553 -11 z "},"Ķ":{"ha":847,"x_min":119,"x_max":800,"o":"m 119 958 q 133 972 119 972 l 204 972 q 218 958 218 972 l 218 488 q 221 483 218 485 q 225 485 224 482 l 664 965 q 681 972 669 972 l 761 972 q 772 967 769 972 q 768 956 774 961 l 428 571 q 428 563 425 568 l 797 17 l 800 10 q 788 0 800 0 l 707 0 q 690 8 696 0 l 361 492 q 357 494 360 494 q 353 493 354 494 l 221 353 q 218 346 218 350 l 218 14 q 204 0 218 0 l 133 0 q 119 14 119 0 l 119 958 z "},"Ņ":{"ha":950,"x_min":119,"x_max":797,"o":"m 699 958 q 713 972 699 972 l 783 972 q 797 958 797 972 l 797 14 q 783 0 797 0 l 714 0 q 697 10 704 0 l 224 781 q 219 784 222 785 q 217 779 217 783 l 218 14 q 204 0 218 0 l 133 0 q 119 14 119 0 l 119 958 q 133 972 119 972 l 203 972 q 219 963 213 972 l 693 189 q 697 185 694 185 q 700 190 700 186 l 699 958 z "},"Ŗ":{"ha":853,"x_min":119,"x_max":769,"o":"m 686 0 q 669 10 674 0 l 465 440 q 460 444 464 444 l 224 444 q 218 439 218 444 l 218 14 q 204 0 218 0 l 133 0 q 119 14 119 0 l 119 958 q 133 972 119 972 l 492 972 q 686 898 613 972 q 760 704 760 824 q 708 540 760 607 q 565 453 656 472 q 561 446 558 450 l 768 17 q 769 10 769 14 q 758 0 769 0 l 686 0 m 224 886 q 218 881 218 886 l 218 529 q 224 524 218 524 l 482 524 q 613 574 563 524 q 663 704 663 624 q 613 835 663 785 q 482 886 563 886 l 224 886 z "},"Ţ":{"ha":789,"x_min":29,"x_max":699,"o":"m 685 972 q 699 958 699 972 l 699 899 q 685 885 699 885 l 413 885 q 407 879 407 885 l 407 14 q 393 0 407 0 l 322 0 q 308 14 308 0 l 308 879 q 303 885 308 885 l 43 885 q 29 899 29 885 l 29 958 q 43 972 29 972 l 685 972 m 343 -203 q 349 -194 344 -196 q 360 -193 354 -192 q 390 -197 374 -197 q 438 -181 418 -197 q 457 -132 457 -164 q 388 -17 457 -79 q 382 -7 382 -12 q 393 0 382 0 l 429 0 q 446 -6 440 0 q 529 -147 529 -71 q 526 -175 529 -156 q 481 -239 515 -219 q 404 -258 447 -258 q 347 -251 375 -258 q 338 -235 336 -247 l 343 -203 z "},"Ș":{"ha":800,"x_min":47,"x_max":711,"o":"m 386 -11 q 138 60 229 -11 q 47 249 47 131 l 47 292 q 61 306 47 306 l 129 306 q 143 292 143 306 l 143 254 q 210 124 143 174 q 394 75 276 75 q 557 120 501 75 q 613 240 613 165 q 587 324 613 289 q 508 389 561 358 q 357 460 454 419 q 195 533 253 501 q 102 613 138 564 q 67 738 67 663 q 148 919 67 854 q 371 983 229 983 q 614 911 525 983 q 703 719 703 839 l 703 689 q 689 675 703 675 l 619 675 q 606 689 606 675 l 606 714 q 542 846 606 794 q 367 897 479 897 q 215 857 268 897 q 163 740 163 817 q 188 658 163 690 q 262 601 214 625 q 410 538 310 576 q 573 460 511 496 q 673 372 635 424 q 711 244 711 319 q 625 58 711 128 q 386 -11 539 -11 z "},"Ț":{"ha":789,"x_min":29,"x_max":699,"o":"m 685 972 q 699 958 699 972 l 699 899 q 685 885 699 885 l 413 885 q 407 879 407 885 l 407 14 q 393 0 407 0 l 322 0 q 308 14 308 0 l 308 879 q 303 885 308 885 l 43 885 q 29 899 29 885 l 29 958 q 43 972 29 972 l 685 972 z "},"a":{"ha":710,"x_min":58,"x_max":610,"o":"m 349 714 q 542 650 474 714 q 610 481 610 586 l 610 14 q 596 0 610 0 l 525 0 q 511 14 511 0 l 511 71 q 509 75 511 74 q 504 74 507 76 q 414 10 469 32 q 290 -11 358 -11 q 125 39 192 -11 q 58 192 58 89 q 134 356 58 296 q 344 417 210 417 l 506 417 q 511 422 511 417 l 511 475 q 472 587 511 546 q 349 628 432 628 q 240 602 282 628 q 189 531 199 576 q 172 518 185 517 l 97 528 q 85 539 82 531 q 168 665 96 617 q 349 714 240 714 m 310 74 q 451 115 392 74 q 511 225 511 156 l 511 333 q 506 339 511 339 l 360 339 q 213 301 268 339 q 157 197 157 264 q 199 105 157 136 q 310 74 242 74 z "},"á":{"ha":714,"x_min":58,"x_max":610,"o":"m 349 714 q 542 650 474 714 q 610 481 610 586 l 610 14 q 596 0 610 0 l 525 0 q 511 14 511 0 l 511 71 q 509 75 511 74 q 504 74 507 76 q 414 10 469 32 q 290 -11 358 -11 q 125 39 192 -11 q 58 192 58 89 q 134 356 58 296 q 344 417 210 417 l 506 417 q 511 422 511 417 l 511 475 q 472 587 511 546 q 349 628 432 628 q 240 602 282 628 q 189 531 199 576 q 172 518 185 517 l 97 528 q 85 539 82 531 q 168 665 96 617 q 349 714 240 714 m 310 74 q 451 115 392 74 q 511 225 511 156 l 511 333 q 506 339 511 339 l 360 339 q 213 301 268 339 q 157 197 157 264 q 199 105 157 136 q 310 74 242 74 m 385 963 q 401 972 389 972 l 464 972 q 474 967 472 972 q 472 956 476 963 l 378 804 q 361 794 371 794 l 313 794 q 302 799 306 794 q 303 811 299 804 l 385 963 z "},"ă":{"ha":714,"x_min":58,"x_max":610,"o":"m 349 714 q 542 650 474 714 q 610 481 610 586 l 610 14 q 596 0 610 0 l 525 0 q 511 14 511 0 l 511 71 q 509 75 511 74 q 504 74 507 76 q 414 10 469 32 q 290 -11 358 -11 q 125 39 192 -11 q 58 192 58 89 q 134 356 58 296 q 344 417 210 417 l 506 417 q 511 422 511 417 l 511 475 q 472 587 511 546 q 349 628 432 628 q 240 602 282 628 q 189 531 199 576 q 172 518 185 517 l 97 528 q 85 539 82 531 q 168 665 96 617 q 349 714 240 714 m 310 74 q 451 115 392 74 q 511 225 511 156 l 511 333 q 506 339 511 339 l 360 339 q 213 301 268 339 q 157 197 157 264 q 199 105 157 136 q 310 74 242 74 m 357 781 q 241 820 289 781 q 186 921 193 860 q 200 935 186 935 l 242 935 q 257 921 256 935 q 290 862 261 885 q 357 839 318 839 q 426 862 397 839 q 458 921 454 885 q 474 935 460 935 l 515 935 q 529 922 529 935 q 475 821 524 861 q 357 781 426 781 z "},"ắ":{"ha":710,"x_min":58,"x_max":610,"o":"m 349 714 q 542 650 474 714 q 610 481 610 586 l 610 14 q 596 0 610 0 l 525 0 q 511 14 511 0 l 511 71 q 509 75 511 74 q 504 74 507 76 q 414 10 469 32 q 290 -11 358 -11 q 125 39 192 -11 q 58 192 58 89 q 134 356 58 296 q 344 417 210 417 l 506 417 q 511 422 511 417 l 511 475 q 472 587 511 546 q 349 628 432 628 q 240 602 282 628 q 189 531 199 576 q 172 518 185 517 l 97 528 q 85 539 82 531 q 168 665 96 617 q 349 714 240 714 m 310 74 q 451 115 392 74 q 511 225 511 156 l 511 333 q 506 339 511 339 l 360 339 q 213 301 268 339 q 157 197 157 264 q 199 105 157 136 q 310 74 242 74 z "},"ặ":{"ha":710,"x_min":58,"x_max":610,"o":"m 349 714 q 542 650 474 714 q 610 481 610 586 l 610 14 q 596 0 610 0 l 525 0 q 511 14 511 0 l 511 71 q 509 75 511 74 q 504 74 507 76 q 414 10 469 32 q 290 -11 358 -11 q 125 39 192 -11 q 58 192 58 89 q 134 356 58 296 q 344 417 210 417 l 506 417 q 511 422 511 417 l 511 475 q 472 587 511 546 q 349 628 432 628 q 240 602 282 628 q 189 531 199 576 q 172 518 185 517 l 97 528 q 85 539 82 531 q 168 665 96 617 q 349 714 240 714 m 310 74 q 451 115 392 74 q 511 225 511 156 l 511 333 q 506 339 511 339 l 360 339 q 213 301 268 339 q 157 197 157 264 q 199 105 157 136 q 310 74 242 74 m 351 -253 q 299 -232 319 -253 q 278 -179 278 -211 q 299 -126 278 -147 q 351 -106 319 -106 q 404 -126 383 -106 q 425 -179 425 -147 q 404 -232 425 -211 q 351 -253 383 -253 m 346 814 q 231 853 278 814 q 176 951 183 893 l 176 954 q 189 965 176 965 l 226 965 q 242 951 240 965 q 276 893 247 917 q 346 869 306 869 q 417 892 388 869 q 451 951 447 915 q 467 965 453 965 l 504 965 q 518 953 518 965 q 464 853 513 893 q 346 814 415 814 z "},"ằ":{"ha":710,"x_min":58,"x_max":610,"o":"m 349 714 q 542 650 474 714 q 610 481 610 586 l 610 14 q 596 0 610 0 l 525 0 q 511 14 511 0 l 511 71 q 509 75 511 74 q 504 74 507 76 q 414 10 469 32 q 290 -11 358 -11 q 125 39 192 -11 q 58 192 58 89 q 134 356 58 296 q 344 417 210 417 l 506 417 q 511 422 511 417 l 511 475 q 472 587 511 546 q 349 628 432 628 q 240 602 282 628 q 189 531 199 576 q 172 518 185 517 l 97 528 q 85 539 82 531 q 168 665 96 617 q 349 714 240 714 m 310 74 q 451 115 392 74 q 511 225 511 156 l 511 333 q 506 339 511 339 l 360 339 q 213 301 268 339 q 157 197 157 264 q 199 105 157 136 q 310 74 242 74 z "},"ẳ":{"ha":710,"x_min":58,"x_max":610,"o":"m 349 714 q 542 650 474 714 q 610 481 610 586 l 610 14 q 596 0 610 0 l 525 0 q 511 14 511 0 l 511 71 q 509 75 511 74 q 504 74 507 76 q 414 10 469 32 q 290 -11 358 -11 q 125 39 192 -11 q 58 192 58 89 q 134 356 58 296 q 344 417 210 417 l 506 417 q 511 422 511 417 l 511 475 q 472 587 511 546 q 349 628 432 628 q 240 602 282 628 q 189 531 199 576 q 172 518 185 517 l 97 528 q 85 539 82 531 q 168 665 96 617 q 349 714 240 714 m 310 74 q 451 115 392 74 q 511 225 511 156 l 511 333 q 506 339 511 339 l 360 339 q 213 301 268 339 q 157 197 157 264 q 199 105 157 136 q 310 74 242 74 z "},"ẵ":{"ha":710,"x_min":58,"x_max":610,"o":"m 349 714 q 542 650 474 714 q 610 481 610 586 l 610 14 q 596 0 610 0 l 525 0 q 511 14 511 0 l 511 71 q 509 75 511 74 q 504 74 507 76 q 414 10 469 32 q 290 -11 358 -11 q 125 39 192 -11 q 58 192 58 89 q 134 356 58 296 q 344 417 210 417 l 506 417 q 511 422 511 417 l 511 475 q 472 587 511 546 q 349 628 432 628 q 240 602 282 628 q 189 531 199 576 q 172 518 185 517 l 97 528 q 85 539 82 531 q 168 665 96 617 q 349 714 240 714 m 310 74 q 451 115 392 74 q 511 225 511 156 l 511 333 q 506 339 511 339 l 360 339 q 213 301 268 339 q 157 197 157 264 q 199 105 157 136 q 310 74 242 74 m 432 1017 q 350 1044 392 1017 q 313 1065 325 1060 q 285 1071 300 1071 q 244 1063 261 1071 q 213 1038 228 1056 q 193 1035 204 1025 l 169 1057 q 167 1076 160 1067 q 281 1142 207 1142 q 317 1135 301 1142 q 347 1122 333 1129 q 365 1111 360 1114 q 384 1101 369 1108 q 410 1089 399 1093 q 432 1085 422 1085 q 469 1093 453 1085 q 501 1122 486 1101 q 521 1124 511 1133 l 543 1103 q 544 1082 553 1093 q 496 1033 526 1050 q 432 1017 465 1017 m 346 814 q 230 853 278 814 q 176 951 182 893 l 176 954 q 189 965 176 965 l 226 965 q 242 951 240 965 q 276 893 247 917 q 346 869 306 869 q 416 892 386 869 q 451 951 446 915 q 467 965 453 965 l 504 965 q 518 953 518 965 q 464 853 513 893 q 346 814 415 814 z "},"ǎ":{"ha":714,"x_min":58,"x_max":610,"o":"m 349 714 q 542 650 474 714 q 610 481 610 586 l 610 14 q 596 0 610 0 l 525 0 q 511 14 511 0 l 511 71 q 509 75 511 74 q 504 74 507 76 q 414 10 469 32 q 290 -11 358 -11 q 125 39 192 -11 q 58 192 58 89 q 134 356 58 296 q 344 417 210 417 l 506 417 q 511 422 511 417 l 511 475 q 472 587 511 546 q 349 628 432 628 q 240 602 282 628 q 189 531 199 576 q 172 518 185 517 l 97 528 q 85 539 82 531 q 168 665 96 617 q 349 714 240 714 m 310 74 q 451 115 392 74 q 511 225 511 156 l 511 333 q 506 339 511 339 l 360 339 q 213 301 268 339 q 157 197 157 264 q 199 105 157 136 q 310 74 242 74 z "},"â":{"ha":714,"x_min":58,"x_max":610,"o":"m 349 714 q 542 650 474 714 q 610 481 610 586 l 610 14 q 596 0 610 0 l 525 0 q 511 14 511 0 l 511 71 q 509 75 511 74 q 504 74 507 76 q 414 10 469 32 q 290 -11 358 -11 q 125 39 192 -11 q 58 192 58 89 q 134 356 58 296 q 344 417 210 417 l 506 417 q 511 422 511 417 l 511 475 q 472 587 511 546 q 349 628 432 628 q 240 602 282 628 q 189 531 199 576 q 172 518 185 517 l 97 528 q 85 539 82 531 q 168 665 96 617 q 349 714 240 714 m 310 74 q 451 115 392 74 q 511 225 511 156 l 511 333 q 506 339 511 339 l 360 339 q 213 301 268 339 q 157 197 157 264 q 199 105 157 136 q 310 74 242 74 m 297 964 q 315 972 303 972 l 396 972 q 414 964 408 972 l 526 814 q 529 806 529 811 q 526 800 529 803 q 518 797 524 797 l 463 797 q 444 806 450 797 l 361 919 q 357 922 360 922 q 353 919 354 922 l 268 806 q 250 797 263 797 l 194 797 q 183 802 186 797 q 186 814 181 807 l 297 964 z "},"ấ":{"ha":710,"x_min":58,"x_max":692,"o":"m 349 714 q 542 650 474 714 q 610 481 610 586 l 610 14 q 596 0 610 0 l 525 0 q 511 14 511 0 l 511 71 q 509 75 511 74 q 504 74 507 76 q 414 10 469 32 q 290 -11 358 -11 q 125 39 192 -11 q 58 192 58 89 q 134 356 58 296 q 344 417 210 417 l 506 417 q 511 422 511 417 l 511 475 q 472 587 511 546 q 349 628 432 628 q 240 602 282 628 q 189 531 199 576 q 172 518 185 517 l 97 528 q 85 539 82 531 q 168 665 96 617 q 349 714 240 714 m 310 74 q 451 115 392 74 q 511 225 511 156 l 511 333 q 506 339 511 339 l 360 339 q 213 301 268 339 q 157 197 157 264 q 199 105 157 136 q 310 74 242 74 z "},"ậ":{"ha":710,"x_min":58,"x_max":610,"o":"m 349 714 q 542 650 474 714 q 610 481 610 586 l 610 14 q 596 0 610 0 l 525 0 q 511 14 511 0 l 511 71 q 509 75 511 74 q 504 74 507 76 q 414 10 469 32 q 290 -11 358 -11 q 125 39 192 -11 q 58 192 58 89 q 134 356 58 296 q 344 417 210 417 l 506 417 q 511 422 511 417 l 511 475 q 472 587 511 546 q 349 628 432 628 q 240 602 282 628 q 189 531 199 576 q 172 518 185 517 l 97 528 q 85 539 82 531 q 168 665 96 617 q 349 714 240 714 m 310 74 q 451 115 392 74 q 511 225 511 156 l 511 333 q 506 339 511 339 l 360 339 q 213 301 268 339 q 157 197 157 264 q 199 105 157 136 q 310 74 242 74 m 351 -253 q 299 -232 319 -253 q 278 -179 278 -211 q 299 -126 278 -147 q 351 -106 319 -106 q 404 -126 383 -106 q 425 -179 425 -147 q 404 -232 425 -211 q 351 -253 383 -253 m 286 971 q 304 979 292 979 l 385 979 q 403 971 397 979 l 515 821 q 518 813 518 818 q 515 807 518 810 q 507 804 513 804 l 451 804 q 433 813 439 804 l 350 926 q 346 929 349 929 q 342 926 343 929 l 257 813 q 239 804 251 804 l 183 804 q 172 809 175 804 q 175 821 169 814 l 286 971 z "},"ầ":{"ha":710,"x_min":58,"x_max":610,"o":"m 349 714 q 542 650 474 714 q 610 481 610 586 l 610 14 q 596 0 610 0 l 525 0 q 511 14 511 0 l 511 71 q 509 75 511 74 q 504 74 507 76 q 414 10 469 32 q 290 -11 358 -11 q 125 39 192 -11 q 58 192 58 89 q 134 356 58 296 q 344 417 210 417 l 506 417 q 511 422 511 417 l 511 475 q 472 587 511 546 q 349 628 432 628 q 240 602 282 628 q 189 531 199 576 q 172 518 185 517 l 97 528 q 85 539 82 531 q 168 665 96 617 q 349 714 240 714 m 310 74 q 451 115 392 74 q 511 225 511 156 l 511 333 q 506 339 511 339 l 360 339 q 213 301 268 339 q 157 197 157 264 q 199 105 157 136 q 310 74 242 74 z "},"ẩ":{"ha":710,"x_min":58,"x_max":631,"o":"m 349 714 q 542 650 474 714 q 610 481 610 586 l 610 14 q 596 0 610 0 l 525 0 q 511 14 511 0 l 511 71 q 509 75 511 74 q 504 74 507 76 q 414 10 469 32 q 290 -11 358 -11 q 125 39 192 -11 q 58 192 58 89 q 134 356 58 296 q 344 417 210 417 l 506 417 q 511 422 511 417 l 511 475 q 472 587 511 546 q 349 628 432 628 q 240 602 282 628 q 189 531 199 576 q 172 518 185 517 l 97 528 q 85 539 82 531 q 168 665 96 617 q 349 714 240 714 m 310 74 q 451 115 392 74 q 511 225 511 156 l 511 333 q 506 339 511 339 l 360 339 q 213 301 268 339 q 157 197 157 264 q 199 105 157 136 q 310 74 242 74 z "},"ẫ":{"ha":710,"x_min":58,"x_max":610,"o":"m 349 714 q 542 650 474 714 q 610 481 610 586 l 610 14 q 596 0 610 0 l 525 0 q 511 14 511 0 l 511 71 q 509 75 511 74 q 504 74 507 76 q 414 10 469 32 q 290 -11 358 -11 q 125 39 192 -11 q 58 192 58 89 q 134 356 58 296 q 344 417 210 417 l 506 417 q 511 422 511 417 l 511 475 q 472 587 511 546 q 349 628 432 628 q 240 602 282 628 q 189 531 199 576 q 172 518 185 517 l 97 528 q 85 539 82 531 q 168 665 96 617 q 349 714 240 714 m 310 74 q 451 115 392 74 q 511 225 511 156 l 511 333 q 506 339 511 339 l 360 339 q 213 301 268 339 q 157 197 157 264 q 199 105 157 136 q 310 74 242 74 z "},"ä":{"ha":714,"x_min":58,"x_max":610,"o":"m 349 714 q 542 650 474 714 q 610 481 610 586 l 610 14 q 596 0 610 0 l 525 0 q 511 14 511 0 l 511 71 q 509 75 511 74 q 504 74 507 76 q 414 10 469 32 q 290 -11 358 -11 q 125 39 192 -11 q 58 192 58 89 q 134 356 58 296 q 344 417 210 417 l 506 417 q 511 422 511 417 l 511 475 q 472 587 511 546 q 349 628 432 628 q 240 602 282 628 q 189 531 199 576 q 172 518 185 517 l 97 528 q 85 539 82 531 q 168 665 96 617 q 349 714 240 714 m 310 74 q 451 115 392 74 q 511 225 511 156 l 511 333 q 506 339 511 339 l 360 339 q 213 301 268 339 q 157 197 157 264 q 199 105 157 136 q 310 74 242 74 z "},"ạ":{"ha":710,"x_min":58,"x_max":610,"o":"m 349 714 q 542 650 474 714 q 610 481 610 586 l 610 14 q 596 0 610 0 l 525 0 q 511 14 511 0 l 511 71 q 509 75 511 74 q 504 74 507 76 q 414 10 469 32 q 290 -11 358 -11 q 125 39 192 -11 q 58 192 58 89 q 134 356 58 296 q 344 417 210 417 l 506 417 q 511 422 511 417 l 511 475 q 472 587 511 546 q 349 628 432 628 q 240 602 282 628 q 189 531 199 576 q 172 518 185 517 l 97 528 q 85 539 82 531 q 168 665 96 617 q 349 714 240 714 m 310 74 q 451 115 392 74 q 511 225 511 156 l 511 333 q 506 339 511 339 l 360 339 q 213 301 268 339 q 157 197 157 264 q 199 105 157 136 q 310 74 242 74 m 351 -253 q 299 -232 319 -253 q 278 -179 278 -211 q 299 -126 278 -147 q 351 -106 319 -106 q 404 -126 383 -106 q 425 -179 425 -147 q 404 -232 425 -211 q 351 -253 383 -253 z "},"à":{"ha":714,"x_min":58,"x_max":610,"o":"m 349 714 q 542 650 474 714 q 610 481 610 586 l 610 14 q 596 0 610 0 l 525 0 q 511 14 511 0 l 511 71 q 509 75 511 74 q 504 74 507 76 q 414 10 469 32 q 290 -11 358 -11 q 125 39 192 -11 q 58 192 58 89 q 134 356 58 296 q 344 417 210 417 l 506 417 q 511 422 511 417 l 511 475 q 472 587 511 546 q 349 628 432 628 q 240 602 282 628 q 189 531 199 576 q 172 518 185 517 l 97 528 q 85 539 82 531 q 168 665 96 617 q 349 714 240 714 m 310 74 q 451 115 392 74 q 511 225 511 156 l 511 333 q 506 339 511 339 l 360 339 q 213 301 268 339 q 157 197 157 264 q 199 105 157 136 q 310 74 242 74 m 336 794 q 319 804 326 794 l 225 956 q 222 964 222 961 q 235 972 222 972 l 297 972 q 314 963 310 972 l 396 811 l 399 804 q 395 797 399 800 q 386 794 392 794 l 336 794 z "},"ả":{"ha":710,"x_min":58,"x_max":610,"o":"m 349 714 q 542 650 474 714 q 610 481 610 586 l 610 14 q 596 0 610 0 l 525 0 q 511 14 511 0 l 511 71 q 509 75 511 74 q 504 74 507 76 q 414 10 469 32 q 290 -11 358 -11 q 125 39 192 -11 q 58 192 58 89 q 134 356 58 296 q 344 417 210 417 l 506 417 q 511 422 511 417 l 511 475 q 472 587 511 546 q 349 628 432 628 q 240 602 282 628 q 189 531 199 576 q 172 518 185 517 l 97 528 q 85 539 82 531 q 168 665 96 617 q 349 714 240 714 m 310 74 q 451 115 392 74 q 511 225 511 156 l 511 333 q 506 339 511 339 l 360 339 q 213 301 268 339 q 157 197 157 264 q 199 105 157 136 q 310 74 242 74 m 336 776 q 326 783 329 778 q 326 793 324 788 q 349 831 336 814 q 374 860 361 847 q 400 890 392 876 q 408 925 408 904 q 391 960 408 944 q 350 975 374 975 q 310 964 326 975 q 275 925 294 953 q 256 922 267 914 l 233 936 q 229 956 222 944 q 282 1013 256 996 q 353 1031 308 1031 q 437 1001 404 1031 q 469 925 469 972 q 457 874 469 894 q 418 826 444 854 q 379 779 389 800 q 361 771 374 769 l 336 776 z "},"ā":{"ha":714,"x_min":58,"x_max":610,"o":"m 349 714 q 542 650 474 714 q 610 481 610 586 l 610 14 q 596 0 610 0 l 525 0 q 511 14 511 0 l 511 71 q 509 75 511 74 q 504 74 507 76 q 414 10 469 32 q 290 -11 358 -11 q 125 39 192 -11 q 58 192 58 89 q 134 356 58 296 q 344 417 210 417 l 506 417 q 511 422 511 417 l 511 475 q 472 587 511 546 q 349 628 432 628 q 240 602 282 628 q 189 531 199 576 q 172 518 185 517 l 97 528 q 85 539 82 531 q 168 665 96 617 q 349 714 240 714 m 310 74 q 451 115 392 74 q 511 225 511 156 l 511 333 q 506 339 511 339 l 360 339 q 213 301 268 339 q 157 197 157 264 q 199 105 157 136 q 310 74 242 74 m 171 882 q 185 896 171 896 l 531 896 q 544 882 544 896 l 544 839 q 531 825 544 825 l 185 825 q 171 839 171 825 l 171 882 z "},"ą":{"ha":708,"x_min":58,"x_max":644,"o":"m 628 -192 q 639 -203 636 -192 l 644 -235 l 644 -239 q 635 -251 644 -247 q 578 -258 607 -258 q 501 -239 535 -258 q 456 -175 467 -219 q 453 -146 453 -165 q 535 -7 453 -71 q 536 -3 538 -6 q 532 0 535 0 l 525 0 q 511 14 511 0 l 511 71 q 509 75 511 74 q 504 74 507 76 q 414 10 469 32 q 290 -11 358 -11 q 125 39 192 -11 q 58 192 58 89 q 134 356 58 296 q 344 417 210 417 l 506 417 q 511 422 511 417 l 511 475 q 472 587 511 546 q 349 628 432 628 q 240 602 282 628 q 189 531 199 576 q 172 518 185 517 l 97 528 q 85 543 83 531 q 170 667 99 619 q 349 714 242 714 q 542 650 474 714 q 610 481 610 586 l 610 4 q 610 1 610 4 q 610 -3 611 -1 l 596 -17 q 525 -131 525 -76 q 544 -181 525 -164 q 592 -197 563 -197 q 622 -193 608 -197 l 628 -192 m 310 74 q 451 115 392 74 q 511 225 511 156 l 511 333 q 506 339 511 339 l 360 339 q 213 301 268 339 q 157 197 157 264 q 199 105 157 136 q 310 74 242 74 z "},"å":{"ha":714,"x_min":58,"x_max":610,"o":"m 349 714 q 542 650 474 714 q 610 481 610 586 l 610 14 q 596 0 610 0 l 525 0 q 511 14 511 0 l 511 71 q 509 75 511 74 q 504 74 507 76 q 414 10 469 32 q 290 -11 358 -11 q 125 39 192 -11 q 58 192 58 89 q 134 356 58 296 q 344 417 210 417 l 506 417 q 511 422 511 417 l 511 475 q 472 587 511 546 q 349 628 432 628 q 240 602 282 628 q 189 531 199 576 q 172 518 185 517 l 97 528 q 85 539 82 531 q 168 665 96 617 q 349 714 240 714 m 310 74 q 451 115 392 74 q 511 225 511 156 l 511 333 q 506 339 511 339 l 360 339 q 213 301 268 339 q 157 197 157 264 q 199 105 157 136 q 310 74 242 74 m 358 804 q 249 847 293 804 q 206 954 206 890 q 250 1060 206 1017 q 358 1104 294 1104 q 466 1060 422 1104 q 510 954 510 1017 q 466 847 510 890 q 358 804 422 804 m 358 864 q 423 890 396 864 q 450 954 450 915 q 423 1019 450 993 q 358 1046 396 1046 q 292 1019 319 1046 q 265 954 265 993 q 292 890 265 915 q 358 864 319 864 z "},"ã":{"ha":714,"x_min":58,"x_max":610,"o":"m 349 714 q 542 650 474 714 q 610 481 610 586 l 610 14 q 596 0 610 0 l 525 0 q 511 14 511 0 l 511 71 q 509 75 511 74 q 504 74 507 76 q 414 10 469 32 q 290 -11 358 -11 q 125 39 192 -11 q 58 192 58 89 q 134 356 58 296 q 344 417 210 417 l 506 417 q 511 422 511 417 l 511 475 q 472 587 511 546 q 349 628 432 628 q 240 602 282 628 q 189 531 199 576 q 172 518 185 517 l 97 528 q 85 539 82 531 q 168 665 96 617 q 349 714 240 714 m 310 74 q 451 115 392 74 q 511 225 511 156 l 511 333 q 506 339 511 339 l 360 339 q 213 301 268 339 q 157 197 157 264 q 199 105 157 136 q 310 74 242 74 m 443 838 q 397 846 417 838 q 357 868 378 854 q 318 889 332 883 q 288 894 304 894 q 245 887 263 894 q 211 860 228 879 q 192 857 203 847 l 167 882 q 164 901 157 892 q 283 969 210 969 q 323 963 306 969 q 355 948 340 956 q 374 938 369 940 q 394 926 379 935 q 420 914 408 918 q 443 910 432 910 q 483 918 465 910 q 517 949 500 926 q 536 951 525 963 l 560 928 q 563 907 568 919 q 510 856 543 874 q 443 838 478 838 z "},"æ":{"ha":1139,"x_min":63,"x_max":1071,"o":"m 307 -11 q 132 36 201 -11 q 63 183 63 83 q 138 344 63 286 q 349 403 213 403 l 510 403 q 515 408 515 403 l 515 468 q 474 584 515 540 q 349 628 433 628 q 242 601 285 628 q 189 531 199 575 q 172 518 185 517 l 101 528 q 89 543 88 531 q 173 667 101 619 q 347 714 244 714 q 488 680 429 714 q 571 592 547 646 q 578 590 574 583 q 663 678 604 642 q 794 714 722 714 q 962 662 889 714 q 1057 522 1035 610 q 1068 453 1065 493 q 1071 335 1071 414 q 1057 319 1071 319 l 622 319 q 617 314 617 319 q 618 226 617 261 q 676 119 622 157 q 808 82 729 82 q 982 183 935 82 q 1000 190 988 196 l 1049 164 q 1056 146 1060 157 q 959 33 1028 78 q 797 -11 890 -11 q 658 21 718 -11 q 569 107 597 53 q 567 110 568 110 q 564 108 565 110 q 465 21 535 53 q 307 -11 394 -11 m 967 403 q 972 408 972 403 q 967 492 972 468 q 907 590 954 551 q 793 628 860 628 q 679 590 725 628 q 622 492 633 553 q 615 408 618 471 q 621 403 615 403 l 967 403 m 317 68 q 456 108 397 68 q 515 222 515 147 l 515 314 q 510 319 515 319 l 363 319 q 215 287 269 319 q 161 192 161 254 q 204 101 161 133 q 317 68 247 68 z "},"b":{"ha":736,"x_min":107,"x_max":664,"o":"m 646 524 q 664 351 664 463 q 644 175 664 243 q 552 39 618 89 q 389 -11 486 -11 q 288 11 333 -11 q 213 74 243 33 q 208 76 210 76 q 206 72 206 75 l 206 14 q 192 0 206 0 l 121 0 q 107 14 107 0 l 107 958 q 121 972 107 972 l 192 972 q 206 958 206 972 l 206 631 q 208 627 206 628 q 213 629 210 626 q 288 692 243 669 q 389 714 333 714 q 555 663 489 714 q 646 524 621 613 m 539 183 q 558 249 553 213 q 564 351 564 286 q 556 458 564 419 q 533 526 549 496 q 475 600 515 572 q 379 628 435 628 q 287 599 325 628 q 232 524 249 571 q 213 456 218 494 q 207 351 207 418 q 213 247 207 285 q 231 182 218 210 q 286 104 249 133 q 379 75 324 75 q 481 104 438 75 q 539 183 524 133 z "},"c":{"ha":696,"x_min":72,"x_max":640,"o":"m 360 -11 q 188 41 260 -11 q 90 182 117 93 q 72 354 72 243 q 90 524 72 454 q 188 662 115 610 q 360 714 260 714 q 535 663 461 714 q 632 535 610 611 q 640 493 639 510 l 640 490 q 628 478 640 481 l 558 468 l 556 468 q 543 481 546 468 l 539 501 q 478 591 526 554 q 360 628 429 628 q 244 591 290 628 q 183 493 197 554 q 171 353 171 440 q 183 211 171 261 q 244 112 197 149 q 360 75 290 75 q 477 110 428 75 q 539 201 526 146 l 539 207 l 540 213 q 557 224 542 226 l 625 213 q 638 200 638 210 q 632 169 638 194 q 536 39 611 89 q 360 -11 461 -11 z "},"ć":{"ha":719,"x_min":72,"x_max":640,"o":"m 360 -11 q 188 41 260 -11 q 90 182 117 93 q 72 354 72 243 q 90 524 72 454 q 188 662 115 610 q 360 714 260 714 q 535 663 461 714 q 632 535 610 611 q 640 493 639 510 l 640 490 q 628 478 640 481 l 558 468 l 556 468 q 543 481 546 468 l 539 501 q 478 591 526 554 q 360 628 429 628 q 244 591 290 628 q 183 493 197 554 q 171 353 171 440 q 183 211 171 261 q 244 112 197 149 q 360 75 290 75 q 477 110 428 75 q 539 201 526 146 l 539 207 l 540 213 q 557 224 542 226 l 625 213 q 638 200 638 210 q 632 169 638 194 q 536 39 611 89 q 360 -11 461 -11 m 403 963 q 419 972 407 972 l 482 972 q 492 967 490 972 q 490 956 494 963 l 396 804 q 379 794 389 794 l 331 794 q 320 799 324 794 q 321 811 317 804 l 403 963 z "},"č":{"ha":719,"x_min":72,"x_max":640,"o":"m 360 -11 q 188 41 260 -11 q 90 182 117 93 q 72 354 72 243 q 90 524 72 454 q 188 662 115 610 q 360 714 260 714 q 535 663 461 714 q 632 535 610 611 q 640 493 639 510 l 640 490 q 628 478 640 481 l 558 468 l 556 468 q 543 481 546 468 l 539 501 q 478 591 526 554 q 360 628 429 628 q 244 591 290 628 q 183 493 197 554 q 171 353 171 440 q 183 211 171 261 q 244 112 197 149 q 360 75 290 75 q 477 110 428 75 q 539 201 526 146 l 539 207 l 540 213 q 557 224 542 226 l 625 213 q 638 200 638 210 q 632 169 638 194 q 536 39 611 89 q 360 -11 461 -11 m 208 956 q 206 964 206 958 q 208 969 206 967 q 217 972 211 972 l 272 972 q 290 964 285 972 l 375 850 q 379 849 376 849 q 383 850 382 849 l 467 964 q 485 972 472 972 l 540 972 q 551 967 549 972 q 549 956 554 963 l 436 806 q 418 797 431 797 l 338 797 q 319 806 325 797 l 208 956 z "},"ç":{"ha":719,"x_min":72,"x_max":640,"o":"m 539 207 l 540 213 q 557 224 542 226 l 625 213 q 638 200 638 210 q 632 169 638 194 q 553 52 613 100 q 408 -7 493 4 q 406 -14 399 -10 q 479 -144 479 -78 q 475 -175 479 -161 q 430 -239 464 -219 q 353 -258 396 -258 q 296 -251 324 -258 q 286 -235 285 -247 l 292 -203 q 298 -194 293 -196 q 308 -193 303 -192 q 339 -197 325 -197 q 387 -181 368 -197 q 406 -132 406 -164 q 385 -71 406 -101 q 329 -12 364 -40 q 322 -10 328 -10 q 176 51 236 0 q 90 182 115 101 q 72 354 72 243 q 90 524 72 454 q 188 662 115 610 q 360 714 260 714 q 535 663 461 714 q 632 535 610 611 q 640 493 639 510 l 640 490 q 628 478 640 481 l 558 468 l 556 468 q 543 481 546 468 l 539 501 q 478 591 526 554 q 360 628 429 628 q 244 591 290 628 q 183 493 197 554 q 171 353 171 440 q 183 211 171 261 q 244 112 197 149 q 360 75 290 75 q 477 110 428 75 q 539 201 526 146 l 539 207 z "},"ĉ":{"ha":696,"x_min":72,"x_max":640,"o":"m 360 -11 q 188 41 260 -11 q 90 182 117 93 q 72 354 72 243 q 90 524 72 454 q 188 662 115 610 q 360 714 260 714 q 535 663 461 714 q 632 535 610 611 q 640 493 639 510 l 640 490 q 628 478 640 481 l 558 468 l 556 468 q 543 481 546 468 l 539 501 q 478 591 526 554 q 360 628 429 628 q 244 591 290 628 q 183 493 197 554 q 171 353 171 440 q 183 211 171 261 q 244 112 197 149 q 360 75 290 75 q 477 110 428 75 q 539 201 526 146 l 539 207 l 540 213 q 557 224 542 226 l 625 213 q 638 200 638 210 q 632 169 638 194 q 536 39 611 89 q 360 -11 461 -11 m 299 964 q 317 972 304 972 l 397 972 q 415 964 410 972 l 528 814 q 531 806 531 811 q 528 800 531 803 q 519 797 525 797 l 464 797 q 446 806 451 797 l 363 919 q 358 922 361 922 q 354 919 356 922 l 269 806 q 251 797 264 797 l 196 797 q 185 802 188 797 q 188 814 182 807 l 299 964 z "},"ċ":{"ha":719,"x_min":72,"x_max":640,"o":"m 360 -11 q 188 41 260 -11 q 90 182 117 93 q 72 354 72 243 q 90 524 72 454 q 188 662 115 610 q 360 714 260 714 q 535 663 461 714 q 632 535 610 611 q 640 493 639 510 l 640 490 q 628 478 640 481 l 558 468 l 556 468 q 543 481 546 468 l 539 501 q 478 591 526 554 q 360 628 429 628 q 244 591 290 628 q 183 493 197 554 q 171 353 171 440 q 183 211 171 261 q 244 112 197 149 q 360 75 290 75 q 477 110 428 75 q 539 201 526 146 l 539 207 l 540 213 q 557 224 542 226 l 625 213 q 638 200 638 210 q 632 169 638 194 q 536 39 611 89 q 360 -11 461 -11 m 375 831 q 319 853 340 831 q 297 908 297 875 q 319 965 297 943 q 375 986 340 986 q 431 965 408 986 q 453 908 453 943 q 431 853 453 875 q 375 831 408 831 z "},"d":{"ha":758,"x_min":94,"x_max":651,"o":"m 553 958 q 567 972 553 972 l 638 972 q 651 958 651 972 l 651 14 q 638 0 651 0 l 567 0 q 553 14 553 0 l 553 72 q 551 76 553 75 q 546 74 549 76 q 470 11 515 33 q 369 -11 425 -11 q 206 39 272 -11 q 114 175 140 89 q 94 351 94 243 q 111 524 94 461 q 203 663 136 613 q 369 714 269 714 q 470 692 425 714 q 546 629 515 669 q 551 627 549 626 q 553 631 553 628 l 553 958 m 528 182 q 546 247 540 210 q 551 351 551 285 q 545 457 551 419 q 525 524 539 494 q 471 599 508 571 q 379 628 433 628 q 283 600 324 628 q 225 526 243 572 q 202 458 210 496 q 194 351 194 419 q 200 249 194 286 q 219 183 206 213 q 277 104 235 133 q 379 75 319 75 q 472 104 435 75 q 528 182 510 133 z "},"ð":{"ha":704,"x_min":69,"x_max":625,"o":"m 617 493 q 625 339 625 440 q 623 236 625 271 q 613 174 621 201 q 517 40 588 90 q 347 -11 446 -11 q 180 40 250 -11 q 85 174 110 90 q 72 242 75 204 q 69 339 69 279 q 73 435 69 397 q 85 503 76 472 q 156 616 103 571 q 283 668 208 661 q 332 672 307 672 q 420 660 378 672 q 490 626 463 649 q 494 624 493 624 q 494 629 496 625 q 401 792 465 711 q 394 794 399 797 l 267 757 l 261 756 q 249 767 253 756 l 240 797 l 240 801 q 250 815 240 811 l 349 844 q 350 851 357 847 q 242 956 299 906 q 236 964 236 960 q 249 972 236 972 l 326 972 q 343 965 336 972 q 435 874 389 921 q 442 872 438 871 l 550 904 l 556 906 q 568 894 564 906 l 576 863 l 576 858 q 567 846 576 850 l 489 822 q 485 817 483 821 q 574 672 540 750 q 617 493 608 594 m 518 200 q 526 336 526 233 q 518 469 526 438 q 458 566 504 529 q 347 603 413 603 q 237 567 282 603 q 178 469 192 531 q 169 336 169 436 q 179 200 169 232 q 237 103 192 140 q 347 67 282 67 q 458 103 413 67 q 518 200 504 140 z "},"ď":{"ha":785,"x_min":94,"x_max":896,"o":"m 553 958 q 567 972 553 972 l 638 972 q 651 958 651 972 l 651 14 q 638 0 651 0 l 567 0 q 553 14 553 0 l 553 72 q 551 76 553 75 q 546 74 549 76 q 470 11 515 33 q 369 -11 425 -11 q 206 39 272 -11 q 114 175 140 89 q 94 351 94 243 q 111 524 94 461 q 203 663 136 613 q 369 714 269 714 q 470 692 425 714 q 546 629 515 669 q 551 627 549 626 q 553 631 553 628 l 553 958 m 528 182 q 546 247 540 210 q 551 351 551 285 q 545 457 551 419 q 525 524 539 494 q 471 599 508 571 q 379 628 433 628 q 283 600 324 628 q 225 526 243 572 q 202 458 210 496 q 194 351 194 419 q 200 249 194 286 q 219 183 206 213 q 277 104 235 133 q 379 75 319 75 q 472 104 435 75 q 528 182 510 133 z "},"đ":{"ha":758,"x_min":94,"x_max":749,"o":"m 735 861 q 749 847 749 861 l 749 810 q 735 796 749 796 l 657 796 q 651 790 651 796 l 651 14 q 638 0 651 0 l 567 0 q 553 14 553 0 l 553 72 q 551 76 553 75 q 546 74 549 76 q 470 11 515 33 q 369 -11 425 -11 q 206 39 272 -11 q 114 175 140 89 q 94 351 94 243 q 111 524 94 461 q 203 663 136 613 q 369 714 269 714 q 470 692 425 714 q 546 629 515 669 q 551 627 549 626 q 553 631 553 628 l 553 790 q 547 796 553 796 l 321 796 q 307 810 307 796 l 307 847 q 321 861 307 861 l 547 861 q 553 867 553 861 l 553 958 q 567 972 553 972 l 638 972 q 651 958 651 972 l 651 867 q 657 861 651 861 l 735 861 m 528 182 q 546 247 540 210 q 551 351 551 285 q 545 457 551 419 q 525 524 539 494 q 471 599 508 571 q 379 628 433 628 q 283 600 324 628 q 225 526 243 572 q 202 458 210 496 q 194 351 194 419 q 200 249 194 286 q 219 183 206 213 q 277 104 235 133 q 379 75 319 75 q 472 104 435 75 q 528 182 510 133 z "},"e":{"ha":700,"x_min":71,"x_max":638,"o":"m 632 469 q 638 372 638 431 l 638 328 q 624 314 638 314 l 175 314 q 169 308 169 314 q 178 210 169 235 q 242 111 192 147 q 371 75 293 75 q 474 101 429 75 q 543 176 518 128 q 563 182 551 189 l 617 150 q 622 131 628 143 q 518 26 588 64 q 358 -12 449 -12 q 193 35 260 -11 q 97 163 126 81 q 71 354 71 232 q 85 515 71 461 q 180 660 108 606 q 353 714 251 714 q 547 650 479 714 q 632 469 615 586 m 353 628 q 240 592 285 628 q 181 497 194 557 q 169 403 172 468 q 175 397 169 397 l 535 397 q 540 403 540 397 q 531 492 538 468 q 470 591 517 554 q 353 628 424 628 z "},"é":{"ha":739,"x_min":71,"x_max":638,"o":"m 632 469 q 638 372 638 431 l 638 328 q 624 314 638 314 l 175 314 q 169 308 169 314 q 178 210 169 235 q 242 111 192 147 q 371 75 293 75 q 474 101 429 75 q 543 176 518 128 q 563 182 551 189 l 617 150 q 622 131 628 143 q 518 26 588 64 q 358 -12 449 -12 q 193 35 260 -11 q 97 163 126 81 q 71 354 71 232 q 85 515 71 461 q 180 660 108 606 q 353 714 251 714 q 547 650 479 714 q 632 469 615 586 m 353 628 q 240 592 285 628 q 181 497 194 557 q 169 403 172 468 q 175 397 169 397 l 535 397 q 540 403 540 397 q 531 492 538 468 q 470 591 517 554 q 353 628 424 628 m 396 963 q 413 972 400 972 l 475 972 q 485 967 483 972 q 483 956 488 963 l 389 804 q 372 794 382 794 l 324 794 q 313 799 317 794 q 314 811 310 804 l 396 963 z "},"ě":{"ha":739,"x_min":71,"x_max":638,"o":"m 632 469 q 638 372 638 431 l 638 328 q 624 314 638 314 l 175 314 q 169 308 169 314 q 178 210 169 235 q 242 111 192 147 q 371 75 293 75 q 474 101 429 75 q 543 176 518 128 q 563 182 551 189 l 617 150 q 622 131 628 143 q 518 26 588 64 q 358 -12 449 -12 q 193 35 260 -11 q 97 163 126 81 q 71 354 71 232 q 85 515 71 461 q 180 660 108 606 q 353 714 251 714 q 547 650 479 714 q 632 469 615 586 m 353 628 q 240 592 285 628 q 181 497 194 557 q 169 403 172 468 q 175 397 169 397 l 535 397 q 540 403 540 397 q 531 492 538 468 q 470 591 517 554 q 353 628 424 628 z "},"ȩ":{"ha":739,"x_min":71,"x_max":638,"o":"m 632 469 q 638 372 638 431 l 638 328 q 624 314 638 314 l 175 314 q 169 308 169 314 q 178 210 169 235 q 242 111 192 147 q 371 75 293 75 q 474 101 429 75 q 543 176 518 128 q 563 182 551 189 l 617 150 q 622 131 628 143 q 539 40 593 76 q 414 -8 485 3 q 413 -15 406 -11 q 481 -143 481 -74 q 478 -172 481 -162 q 433 -236 467 -217 q 354 -256 399 -256 q 299 -249 326 -256 q 289 -232 288 -244 l 294 -200 q 300 -191 296 -194 q 311 -189 304 -187 q 343 -193 328 -193 q 390 -176 372 -193 q 408 -128 408 -160 q 338 -14 408 -71 q 331 -11 336 -11 q 184 42 243 -3 q 97 163 125 88 q 71 354 71 232 q 85 515 71 461 q 180 660 108 606 q 353 714 251 714 q 547 650 479 714 q 632 469 615 586 m 353 628 q 240 592 285 628 q 181 497 194 557 q 169 403 172 468 q 175 397 169 397 l 535 397 q 540 403 540 397 q 531 492 538 468 q 470 591 517 554 q 353 628 424 628 z "},"ê":{"ha":739,"x_min":71,"x_max":638,"o":"m 632 469 q 638 372 638 431 l 638 328 q 624 314 638 314 l 175 314 q 169 308 169 314 q 178 210 169 235 q 242 111 192 147 q 371 75 293 75 q 474 101 429 75 q 543 176 518 128 q 563 182 551 189 l 617 150 q 622 131 628 143 q 518 26 588 64 q 358 -12 449 -12 q 193 35 260 -11 q 97 163 126 81 q 71 354 71 232 q 85 515 71 461 q 180 660 108 606 q 353 714 251 714 q 547 650 479 714 q 632 469 615 586 m 353 628 q 240 592 285 628 q 181 497 194 557 q 169 403 172 468 q 175 397 169 397 l 535 397 q 540 403 540 397 q 531 492 538 468 q 470 591 517 554 q 353 628 424 628 m 310 964 q 328 972 315 972 l 408 972 q 426 964 421 972 l 539 814 q 542 806 542 811 q 539 800 542 803 q 531 797 536 797 l 475 797 q 457 806 463 797 l 374 919 q 369 922 372 922 q 365 919 367 922 l 281 806 q 263 797 275 797 l 207 797 q 196 802 199 797 q 199 814 193 807 l 310 964 z "},"ế":{"ha":700,"x_min":71,"x_max":699,"o":"m 632 469 q 638 372 638 431 l 638 328 q 624 314 638 314 l 175 314 q 169 308 169 314 q 178 210 169 235 q 242 111 192 147 q 371 75 293 75 q 474 101 429 75 q 543 176 518 128 q 563 182 551 189 l 617 150 q 622 131 628 143 q 518 26 588 64 q 358 -12 449 -12 q 193 35 260 -11 q 97 163 126 81 q 71 354 71 232 q 85 515 71 461 q 180 660 108 606 q 353 714 251 714 q 547 650 479 714 q 632 469 615 586 m 353 628 q 240 592 285 628 q 181 497 194 557 q 169 403 172 468 q 175 397 169 397 l 535 397 q 540 403 540 397 q 531 492 538 468 q 470 591 517 554 q 353 628 424 628 z "},"ệ":{"ha":700,"x_min":71,"x_max":638,"o":"m 632 469 q 638 372 638 431 l 638 328 q 624 314 638 314 l 175 314 q 169 308 169 314 q 178 210 169 235 q 242 111 192 147 q 371 75 293 75 q 474 101 429 75 q 543 176 518 128 q 563 182 551 189 l 617 150 q 622 131 628 143 q 518 26 588 64 q 358 -12 449 -12 q 193 35 260 -11 q 97 163 126 81 q 71 354 71 232 q 85 515 71 461 q 180 660 108 606 q 353 714 251 714 q 547 650 479 714 q 632 469 615 586 m 353 628 q 240 592 285 628 q 181 497 194 557 q 169 403 172 468 q 175 397 169 397 l 535 397 q 540 403 540 397 q 531 492 538 468 q 470 591 517 554 q 353 628 424 628 m 358 -265 q 306 -244 326 -265 q 285 -192 285 -224 q 306 -139 285 -160 q 358 -118 326 -118 q 411 -139 390 -118 q 432 -192 432 -160 q 411 -244 432 -224 q 358 -265 390 -265 m 293 964 q 311 972 299 972 l 392 972 q 410 964 404 972 l 522 814 q 525 806 525 811 q 522 800 525 803 q 514 797 519 797 l 458 797 q 440 806 446 797 l 357 919 q 353 922 356 922 q 349 919 350 922 l 264 806 q 246 797 258 797 l 190 797 q 179 802 182 797 q 182 814 176 807 l 293 964 z "},"ề":{"ha":700,"x_min":71,"x_max":638,"o":"m 632 469 q 638 372 638 431 l 638 328 q 624 314 638 314 l 175 314 q 169 308 169 314 q 178 210 169 235 q 242 111 192 147 q 371 75 293 75 q 474 101 429 75 q 543 176 518 128 q 563 182 551 189 l 617 150 q 622 131 628 143 q 518 26 588 64 q 358 -12 449 -12 q 193 35 260 -11 q 97 163 126 81 q 71 354 71 232 q 85 515 71 461 q 180 660 108 606 q 353 714 251 714 q 547 650 479 714 q 632 469 615 586 m 353 628 q 240 592 285 628 q 181 497 194 557 q 169 403 172 468 q 175 397 169 397 l 535 397 q 540 403 540 397 q 531 492 538 468 q 470 591 517 554 q 353 628 424 628 z "},"ể":{"ha":700,"x_min":71,"x_max":638,"o":"m 632 469 q 638 372 638 431 l 638 328 q 624 314 638 314 l 175 314 q 169 308 169 314 q 178 210 169 235 q 242 111 192 147 q 371 75 293 75 q 474 101 429 75 q 543 176 518 128 q 563 182 551 189 l 617 150 q 622 131 628 143 q 518 26 588 64 q 358 -12 449 -12 q 193 35 260 -11 q 97 163 126 81 q 71 354 71 232 q 85 515 71 461 q 180 660 108 606 q 353 714 251 714 q 547 650 479 714 q 632 469 615 586 m 353 628 q 240 592 285 628 q 181 497 194 557 q 169 403 172 468 q 175 397 169 397 l 535 397 q 540 403 540 397 q 531 492 538 468 q 470 591 517 554 q 353 628 424 628 z "},"ễ":{"ha":700,"x_min":71,"x_max":638,"o":"m 632 469 q 638 372 638 431 l 638 328 q 624 314 638 314 l 175 314 q 169 308 169 314 q 178 210 169 235 q 242 111 192 147 q 371 75 293 75 q 474 101 429 75 q 543 176 518 128 q 563 182 551 189 l 617 150 q 622 131 628 143 q 518 26 588 64 q 358 -12 449 -12 q 193 35 260 -11 q 97 163 126 81 q 71 354 71 232 q 85 515 71 461 q 180 660 108 606 q 353 714 251 714 q 547 650 479 714 q 632 469 615 586 m 353 628 q 240 592 285 628 q 181 497 194 557 q 169 403 172 468 q 175 397 169 397 l 535 397 q 540 403 540 397 q 531 492 538 468 q 470 591 517 554 q 353 628 424 628 z "},"ë":{"ha":739,"x_min":71,"x_max":638,"o":"m 632 469 q 638 372 638 431 l 638 328 q 624 314 638 314 l 175 314 q 169 308 169 314 q 178 210 169 235 q 242 111 192 147 q 371 75 293 75 q 474 101 429 75 q 543 176 518 128 q 563 182 551 189 l 617 150 q 622 131 628 143 q 518 26 588 64 q 358 -12 449 -12 q 193 35 260 -11 q 97 163 126 81 q 71 354 71 232 q 85 515 71 461 q 180 660 108 606 q 353 714 251 714 q 547 650 479 714 q 632 469 615 586 m 353 628 q 240 592 285 628 q 181 497 194 557 q 169 403 172 468 q 175 397 169 397 l 535 397 q 540 403 540 397 q 531 492 538 468 q 470 591 517 554 q 353 628 424 628 z "},"ė":{"ha":739,"x_min":71,"x_max":638,"o":"m 632 469 q 638 372 638 431 l 638 328 q 624 314 638 314 l 175 314 q 169 308 169 314 q 178 210 169 235 q 242 111 192 147 q 371 75 293 75 q 474 101 429 75 q 543 176 518 128 q 563 182 551 189 l 617 150 q 622 131 628 143 q 518 26 588 64 q 358 -12 449 -12 q 193 35 260 -11 q 97 163 126 81 q 71 354 71 232 q 85 515 71 461 q 180 660 108 606 q 353 714 251 714 q 547 650 479 714 q 632 469 615 586 m 353 628 q 240 592 285 628 q 181 497 194 557 q 169 403 172 468 q 175 397 169 397 l 535 397 q 540 403 540 397 q 531 492 538 468 q 470 591 517 554 q 353 628 424 628 m 369 831 q 313 853 335 831 q 292 908 292 875 q 313 965 292 943 q 369 986 335 986 q 425 965 403 986 q 447 908 447 943 q 425 853 447 875 q 369 831 403 831 z "},"ẹ":{"ha":700,"x_min":71,"x_max":638,"o":"m 632 469 q 638 372 638 431 l 638 328 q 624 314 638 314 l 175 314 q 169 308 169 314 q 178 210 169 235 q 242 111 192 147 q 371 75 293 75 q 474 101 429 75 q 543 176 518 128 q 563 182 551 189 l 617 150 q 622 131 628 143 q 518 26 588 64 q 358 -12 449 -12 q 193 35 260 -11 q 97 163 126 81 q 71 354 71 232 q 85 515 71 461 q 180 660 108 606 q 353 714 251 714 q 547 650 479 714 q 632 469 615 586 m 353 628 q 240 592 285 628 q 181 497 194 557 q 169 403 172 468 q 175 397 169 397 l 535 397 q 540 403 540 397 q 531 492 538 468 q 470 591 517 554 q 353 628 424 628 m 358 -265 q 306 -244 326 -265 q 285 -192 285 -224 q 306 -139 285 -160 q 358 -118 326 -118 q 411 -139 390 -118 q 432 -192 432 -160 q 411 -244 432 -224 q 358 -265 390 -265 z "},"è":{"ha":739,"x_min":71,"x_max":638,"o":"m 632 469 q 638 372 638 431 l 638 328 q 624 314 638 314 l 175 314 q 169 308 169 314 q 178 210 169 235 q 242 111 192 147 q 371 75 293 75 q 474 101 429 75 q 543 176 518 128 q 563 182 551 189 l 617 150 q 622 131 628 143 q 518 26 588 64 q 358 -12 449 -12 q 193 35 260 -11 q 97 163 126 81 q 71 354 71 232 q 85 515 71 461 q 180 660 108 606 q 353 714 251 714 q 547 650 479 714 q 632 469 615 586 m 353 628 q 240 592 285 628 q 181 497 194 557 q 169 403 172 468 q 175 397 169 397 l 535 397 q 540 403 540 397 q 531 492 538 468 q 470 591 517 554 q 353 628 424 628 m 349 794 q 332 804 339 794 l 238 956 q 235 964 235 961 q 247 972 235 972 l 310 972 q 326 963 322 972 l 408 811 l 411 804 q 408 797 411 800 q 399 794 404 794 l 349 794 z "},"ẻ":{"ha":700,"x_min":71,"x_max":638,"o":"m 632 469 q 638 372 638 431 l 638 328 q 624 314 638 314 l 175 314 q 169 308 169 314 q 178 210 169 235 q 242 111 192 147 q 371 75 293 75 q 474 101 429 75 q 543 176 518 128 q 563 182 551 189 l 617 150 q 622 131 628 143 q 518 26 588 64 q 358 -12 449 -12 q 193 35 260 -11 q 97 163 126 81 q 71 354 71 232 q 85 515 71 461 q 180 660 108 606 q 353 714 251 714 q 547 650 479 714 q 632 469 615 586 m 353 628 q 240 592 285 628 q 181 497 194 557 q 169 403 172 468 q 175 397 169 397 l 535 397 q 540 403 540 397 q 531 492 538 468 q 470 591 517 554 q 353 628 424 628 m 342 769 q 332 776 335 771 q 332 786 329 781 q 354 824 342 807 q 379 853 367 840 q 406 883 397 869 q 414 918 414 897 q 397 953 414 938 q 356 968 379 968 q 316 957 332 968 q 281 918 300 946 q 261 915 272 907 l 239 929 q 235 949 228 938 q 288 1006 261 989 q 358 1024 314 1024 q 442 994 410 1024 q 475 918 475 965 q 463 867 475 888 q 424 819 450 847 q 385 772 394 793 q 367 764 379 763 l 342 769 z "},"ē":{"ha":739,"x_min":71,"x_max":638,"o":"m 632 469 q 638 372 638 431 l 638 328 q 624 314 638 314 l 175 314 q 169 308 169 314 q 178 210 169 235 q 242 111 192 147 q 371 75 293 75 q 474 101 429 75 q 543 176 518 128 q 563 182 551 189 l 617 150 q 622 131 628 143 q 518 26 588 64 q 358 -12 449 -12 q 193 35 260 -11 q 97 163 126 81 q 71 354 71 232 q 85 515 71 461 q 180 660 108 606 q 353 714 251 714 q 547 650 479 714 q 632 469 615 586 m 353 628 q 240 592 285 628 q 181 497 194 557 q 169 403 172 468 q 175 397 169 397 l 535 397 q 540 403 540 397 q 531 492 538 468 q 470 591 517 554 q 353 628 424 628 m 183 921 q 197 935 183 935 l 543 935 q 557 921 557 935 l 557 876 q 543 863 557 863 l 197 863 q 183 876 183 863 l 183 921 z "},"ę":{"ha":739,"x_min":71,"x_max":638,"o":"m 632 469 q 638 372 638 431 l 638 328 q 624 314 638 314 l 175 314 q 169 308 169 314 q 178 210 169 235 q 242 111 192 147 q 371 75 293 75 q 474 101 429 75 q 543 176 518 128 q 563 182 551 189 l 617 150 q 622 131 628 143 q 534 37 590 74 q 404 -10 478 0 q 397 -12 400 -10 q 325 -128 325 -72 q 344 -177 325 -161 q 393 -193 363 -193 q 424 -189 407 -193 l 428 -187 q 440 -200 438 -187 l 446 -232 l 446 -235 q 435 -247 446 -244 q 378 -254 407 -254 q 301 -235 335 -254 q 257 -172 268 -215 q 253 -140 253 -156 q 319 -17 253 -75 q 318 -10 326 -12 q 180 44 236 0 q 97 163 124 89 q 71 354 71 232 q 85 515 71 461 q 180 660 108 606 q 353 714 251 714 q 547 650 479 714 q 632 469 615 586 m 353 628 q 240 592 285 628 q 181 497 194 557 q 169 403 172 468 q 175 397 169 397 l 535 397 q 540 403 540 397 q 531 492 538 468 q 470 591 517 554 q 353 628 424 628 z "},"ẽ":{"ha":700,"x_min":71,"x_max":638,"o":"m 632 469 q 638 372 638 431 l 638 328 q 624 314 638 314 l 175 314 q 169 308 169 314 q 178 210 169 235 q 242 111 192 147 q 371 75 293 75 q 474 101 429 75 q 543 176 518 128 q 563 182 551 189 l 617 150 q 622 131 628 143 q 518 26 588 64 q 358 -12 449 -12 q 193 35 260 -11 q 97 163 126 81 q 71 354 71 232 q 85 515 71 461 q 180 660 108 606 q 353 714 251 714 q 547 650 479 714 q 632 469 615 586 m 353 628 q 240 592 285 628 q 181 497 194 557 q 169 403 172 468 q 175 397 169 397 l 535 397 q 540 403 540 397 q 531 492 538 468 q 470 591 517 554 q 353 628 424 628 m 440 838 q 394 846 414 838 q 354 868 375 854 q 315 889 329 883 q 285 894 301 894 q 242 887 260 894 q 208 860 225 879 q 189 857 200 847 l 164 882 q 161 901 154 892 q 281 969 207 969 q 320 963 303 969 q 352 948 338 956 q 371 938 367 940 q 391 926 376 935 q 417 914 406 918 q 440 910 429 910 q 480 918 463 910 q 514 949 497 926 q 533 951 522 963 l 557 928 q 560 907 565 919 q 508 856 540 874 q 440 838 475 838 z "},"ə":{"ha":701,"x_min":63,"x_max":629,"o":"m 603 540 q 629 349 629 471 q 615 188 629 242 q 520 43 592 97 q 347 -11 449 -11 q 153 53 221 -11 q 68 233 85 117 q 63 331 63 272 l 63 375 q 76 389 63 389 l 525 389 q 531 394 531 389 q 522 493 531 468 q 458 592 508 556 q 329 628 407 628 q 226 601 271 628 q 157 526 182 575 q 138 521 149 514 l 83 553 q 78 572 72 560 q 182 677 113 639 q 342 715 251 715 q 507 668 440 714 q 603 540 574 622 m 347 75 q 460 110 415 75 q 519 206 506 146 q 531 300 528 235 q 525 306 531 306 l 165 306 q 160 300 160 306 q 169 211 163 235 q 231 113 183 150 q 347 75 278 75 z "},"ʒ":{"ha":685,"x_min":60,"x_max":632,"o":"m 279 379 q 282 372 272 372 q 480 328 401 372 q 595 212 558 283 q 632 53 632 140 q 583 -125 632 -51 q 449 -235 533 -199 q 258 -272 364 -272 q 71 -244 163 -272 q 60 -228 60 -240 l 63 -168 q 67 -158 63 -161 q 79 -157 72 -154 q 258 -183 171 -183 q 459 -125 383 -183 q 535 49 535 -67 q 507 170 535 114 q 421 260 479 226 q 275 294 363 294 q 125 272 208 294 q 118 271 122 271 q 107 279 111 271 l 88 317 q 86 324 86 319 q 92 336 86 331 l 422 606 q 424 610 425 608 q 419 613 422 613 l 79 613 q 65 626 65 613 l 65 689 q 79 703 65 703 l 553 703 q 567 689 567 703 l 567 626 q 558 610 567 618 l 279 379 z "},"ǯ":{"ha":685,"x_min":60,"x_max":632,"o":"m 279 379 q 282 372 272 372 q 480 328 401 372 q 595 212 558 283 q 632 53 632 140 q 583 -125 632 -51 q 449 -235 533 -199 q 258 -272 364 -272 q 71 -244 163 -272 q 60 -228 60 -240 l 63 -168 q 67 -158 63 -161 q 79 -157 72 -154 q 258 -183 171 -183 q 459 -125 383 -183 q 535 49 535 -67 q 507 170 535 114 q 421 260 479 226 q 275 294 363 294 q 125 272 208 294 q 118 271 122 271 q 107 279 111 271 l 88 317 q 86 324 86 319 q 92 336 86 331 l 422 606 q 424 610 425 608 q 419 613 422 613 l 79 613 q 65 626 65 613 l 65 689 q 79 703 65 703 l 553 703 q 567 689 567 703 l 567 626 q 558 610 567 618 l 279 379 z "},"f":{"ha":453,"x_min":40,"x_max":428,"o":"m 383 886 q 278 852 306 886 q 250 736 250 818 l 250 708 q 256 703 250 703 l 413 703 q 426 689 426 703 l 426 626 q 413 613 426 613 l 256 613 q 250 607 250 613 l 250 14 q 236 0 250 0 l 167 0 q 153 14 153 0 l 153 607 q 147 613 153 613 l 54 613 q 40 626 40 613 l 40 689 q 54 703 40 703 l 147 703 q 153 708 153 703 l 153 742 q 172 877 153 828 q 240 949 192 926 q 374 972 288 972 l 414 972 q 428 958 428 972 l 428 900 q 414 886 428 886 l 383 886 z "},"g":{"ha":736,"x_min":72,"x_max":632,"o":"m 533 689 q 547 703 533 703 l 618 703 q 632 689 632 703 l 632 24 q 542 -204 632 -132 q 294 -276 451 -276 q 246 -275 263 -276 q 232 -260 232 -274 l 235 -196 q 239 -186 235 -190 q 250 -183 243 -182 l 288 -185 q 475 -134 417 -185 q 533 26 533 -83 l 533 78 q 531 81 533 81 q 526 79 529 82 q 344 -4 463 -4 q 184 44 254 -4 q 89 182 114 93 q 72 351 72 239 q 92 529 72 469 q 181 663 115 613 q 339 714 247 714 q 526 632 463 714 q 531 631 529 629 q 533 635 533 632 l 533 689 m 526 213 q 532 262 531 236 q 533 353 533 288 q 531 444 533 419 q 525 493 529 469 q 469 590 514 551 q 358 628 425 628 q 249 590 293 628 q 186 493 204 553 q 172 354 172 449 q 185 214 172 249 q 247 117 200 156 q 360 79 293 79 q 472 117 428 79 q 526 213 515 154 z "},"ğ":{"ha":747,"x_min":72,"x_max":632,"o":"m 533 689 q 547 703 533 703 l 618 703 q 632 689 632 703 l 632 24 q 542 -204 632 -132 q 294 -276 451 -276 q 246 -275 263 -276 q 232 -260 232 -274 l 235 -196 q 239 -186 235 -190 q 250 -183 243 -182 l 288 -185 q 475 -134 417 -185 q 533 26 533 -83 l 533 78 q 531 81 533 81 q 526 79 529 82 q 344 -4 463 -4 q 184 44 254 -4 q 89 182 114 93 q 72 351 72 239 q 92 529 72 469 q 181 663 115 613 q 339 714 247 714 q 526 632 463 714 q 531 631 529 629 q 533 635 533 632 l 533 689 m 526 213 q 532 262 531 236 q 533 353 533 288 q 531 444 533 419 q 525 493 529 469 q 469 590 514 551 q 358 628 425 628 q 249 590 293 628 q 186 493 204 553 q 172 354 172 449 q 185 214 172 249 q 247 117 200 156 q 360 79 293 79 q 472 117 428 79 q 526 213 515 154 m 383 781 q 267 820 315 781 q 213 921 219 860 q 226 935 213 935 l 268 935 q 283 921 282 935 q 316 862 288 885 q 383 839 344 839 q 452 862 424 839 q 485 921 481 885 q 500 935 486 935 l 542 935 q 556 922 556 935 q 501 821 550 861 q 383 781 453 781 z "},"ǧ":{"ha":736,"x_min":72,"x_max":632,"o":"m 533 689 q 547 703 533 703 l 618 703 q 632 689 632 703 l 632 24 q 542 -204 632 -132 q 294 -276 451 -276 q 246 -275 263 -276 q 232 -260 232 -274 l 235 -196 q 239 -186 235 -190 q 250 -183 243 -182 l 288 -185 q 475 -134 417 -185 q 533 26 533 -83 l 533 78 q 531 81 533 81 q 526 79 529 82 q 344 -4 463 -4 q 184 44 254 -4 q 89 182 114 93 q 72 351 72 239 q 92 529 72 469 q 181 663 115 613 q 339 714 247 714 q 526 632 463 714 q 531 631 529 629 q 533 635 533 632 l 533 689 m 526 213 q 532 262 531 236 q 533 353 533 288 q 531 444 533 419 q 525 493 529 469 q 469 590 514 551 q 358 628 425 628 q 249 590 293 628 q 186 493 204 553 q 172 354 172 449 q 185 214 172 249 q 247 117 200 156 q 360 79 293 79 q 472 117 428 79 q 526 213 515 154 z "},"ĝ":{"ha":736,"x_min":72,"x_max":632,"o":"m 533 689 q 547 703 533 703 l 618 703 q 632 689 632 703 l 632 24 q 542 -204 632 -132 q 294 -276 451 -276 q 246 -275 263 -276 q 232 -260 232 -274 l 235 -196 q 239 -186 235 -190 q 250 -183 243 -182 l 288 -185 q 475 -134 417 -185 q 533 26 533 -83 l 533 78 q 531 81 533 81 q 526 79 529 82 q 344 -4 463 -4 q 184 44 254 -4 q 89 182 114 93 q 72 351 72 239 q 92 529 72 469 q 181 663 115 613 q 339 714 247 714 q 526 632 463 714 q 531 631 529 629 q 533 635 533 632 l 533 689 m 526 213 q 532 262 531 236 q 533 353 533 288 q 531 444 533 419 q 525 493 529 469 q 469 590 514 551 q 358 628 425 628 q 249 590 293 628 q 186 493 204 553 q 172 354 172 449 q 185 214 172 249 q 247 117 200 156 q 360 79 293 79 q 472 117 428 79 q 526 213 515 154 m 313 964 q 331 972 318 972 l 411 972 q 429 964 424 972 l 542 814 q 544 806 544 811 q 542 800 544 803 q 533 797 539 797 l 478 797 q 460 806 465 797 l 376 919 q 372 922 375 922 q 368 919 369 922 l 283 806 q 265 797 278 797 l 210 797 q 199 802 201 797 q 201 814 196 807 l 313 964 z "},"ġ":{"ha":747,"x_min":72,"x_max":632,"o":"m 533 689 q 547 703 533 703 l 618 703 q 632 689 632 703 l 632 24 q 542 -204 632 -132 q 294 -276 451 -276 q 246 -275 263 -276 q 232 -260 232 -274 l 235 -196 q 239 -186 235 -190 q 250 -183 243 -182 l 288 -185 q 475 -134 417 -185 q 533 26 533 -83 l 533 78 q 531 81 533 81 q 526 79 529 82 q 344 -4 463 -4 q 184 44 254 -4 q 89 182 114 93 q 72 351 72 239 q 92 529 72 469 q 181 663 115 613 q 339 714 247 714 q 526 632 463 714 q 531 631 529 629 q 533 635 533 632 l 533 689 m 526 213 q 532 262 531 236 q 533 353 533 288 q 531 444 533 419 q 525 493 529 469 q 469 590 514 551 q 358 628 425 628 q 249 590 293 628 q 186 493 204 553 q 172 354 172 449 q 185 214 172 249 q 247 117 200 156 q 360 79 293 79 q 472 117 428 79 q 526 213 515 154 m 383 831 q 327 853 349 831 q 306 908 306 875 q 327 965 306 943 q 383 986 349 986 q 439 965 417 986 q 461 908 461 943 q 439 853 461 875 q 383 831 417 831 z "},"ǥ":{"ha":776,"x_min":72,"x_max":779,"o":"m 765 389 q 779 375 779 389 l 779 338 q 765 324 779 324 l 638 324 q 632 318 632 324 l 632 24 q 542 -204 632 -132 q 294 -276 451 -276 q 246 -275 263 -276 q 232 -260 232 -274 l 235 -196 q 239 -186 235 -190 q 250 -183 243 -182 l 288 -185 q 475 -134 417 -185 q 533 26 533 -83 l 533 78 q 531 81 533 81 q 526 79 529 82 q 344 -4 463 -4 q 184 44 254 -4 q 89 182 114 93 q 72 351 72 239 q 92 529 72 469 q 181 663 115 613 q 339 714 247 714 q 526 632 463 714 q 531 631 529 629 q 533 635 533 632 l 533 689 q 547 703 533 703 l 618 703 q 632 689 632 703 l 632 394 q 638 389 632 389 l 765 389 m 360 79 q 472 117 428 79 q 526 213 515 154 q 533 318 533 251 q 528 324 533 324 l 365 324 q 351 338 351 324 l 351 375 q 365 389 351 389 l 528 389 q 533 394 533 389 q 525 493 532 456 q 469 590 514 551 q 358 628 425 628 q 249 590 293 628 q 186 493 204 553 q 172 354 172 449 q 185 214 172 249 q 247 117 200 156 q 360 79 293 79 z "},"h":{"ha":746,"x_min":107,"x_max":642,"o":"m 400 713 q 576 647 510 713 q 642 472 642 582 l 642 14 q 628 0 642 0 l 557 0 q 543 14 543 0 l 543 453 q 497 578 543 531 q 376 626 451 626 q 253 579 300 626 q 206 456 206 532 l 206 14 q 192 0 206 0 l 121 0 q 107 14 107 0 l 107 958 q 121 972 107 972 l 192 972 q 206 958 206 972 l 206 629 q 208 625 206 626 q 211 625 210 624 q 400 713 272 713 z "},"ħ":{"ha":756,"x_min":15,"x_max":642,"o":"m 400 713 q 576 647 510 713 q 642 472 642 582 l 642 14 q 628 0 642 0 l 557 0 q 543 14 543 0 l 543 453 q 497 578 543 531 q 376 626 451 626 q 253 579 300 626 q 206 456 206 532 l 206 14 q 192 0 206 0 l 121 0 q 107 14 107 0 l 107 769 q 101 775 107 775 l 29 775 q 15 789 15 775 l 15 826 q 29 840 15 840 l 101 840 q 107 846 107 840 l 107 958 q 121 972 107 972 l 192 972 q 206 958 206 972 l 206 846 q 211 840 206 840 l 442 840 q 456 826 456 840 l 456 789 q 442 775 456 775 l 211 775 q 206 769 206 775 l 206 629 q 208 625 206 626 q 211 625 210 624 q 400 713 272 713 z "},"ȟ":{"ha":746,"x_min":107,"x_max":642,"o":"m 400 713 q 576 647 510 713 q 642 472 642 582 l 642 14 q 628 0 642 0 l 557 0 q 543 14 543 0 l 543 453 q 497 578 543 531 q 376 626 451 626 q 253 579 300 626 q 206 456 206 532 l 206 14 q 192 0 206 0 l 121 0 q 107 14 107 0 l 107 958 q 121 972 107 972 l 192 972 q 206 958 206 972 l 206 629 q 208 625 206 626 q 211 625 210 624 q 400 713 272 713 z "},"ĥ":{"ha":746,"x_min":107,"x_max":642,"o":"m 400 713 q 576 647 510 713 q 642 472 642 582 l 642 14 q 628 0 642 0 l 557 0 q 543 14 543 0 l 543 453 q 497 578 543 531 q 376 626 451 626 q 253 579 300 626 q 206 456 206 532 l 206 14 q 192 0 206 0 l 121 0 q 107 14 107 0 l 107 958 q 121 972 107 972 l 192 972 q 206 958 206 972 l 206 629 q 208 625 206 626 q 211 625 210 624 q 400 713 272 713 m 324 1210 q 342 1218 329 1218 l 422 1218 q 440 1210 435 1218 l 553 1060 q 556 1051 556 1057 q 553 1046 556 1049 q 544 1043 550 1043 l 489 1043 q 471 1051 476 1043 l 388 1165 q 383 1168 386 1168 q 379 1165 381 1168 l 294 1051 q 276 1043 289 1043 l 221 1043 q 210 1048 213 1043 q 213 1060 207 1053 l 324 1210 z "},"i":{"ha":347,"x_min":97,"x_max":253,"o":"m 175 831 q 119 853 140 831 q 97 908 97 875 q 119 965 97 943 q 175 986 140 986 q 231 965 208 986 q 253 908 253 943 q 231 853 253 875 q 175 831 208 831 m 122 690 q 136 704 122 704 l 207 704 q 221 690 221 704 l 221 15 q 207 1 221 1 l 136 1 q 122 15 122 1 l 122 690 z "},"ı":{"ha":311,"x_min":107,"x_max":206,"o":"m 107 689 q 121 703 107 703 l 192 703 q 206 689 206 703 l 206 14 q 192 0 206 0 l 121 0 q 107 14 107 0 l 107 689 z "},"í":{"ha":311,"x_min":97,"x_max":275,"o":"m 107 689 q 121 703 107 703 l 192 703 q 206 689 206 703 l 206 14 q 192 0 206 0 l 121 0 q 107 14 107 0 l 107 689 m 183 963 q 200 972 188 972 l 263 972 q 273 967 271 972 q 271 956 275 963 l 176 804 q 160 794 169 794 l 111 794 q 101 799 104 794 q 101 811 97 804 l 183 963 z "},"ĭ":{"ha":311,"x_min":-14,"x_max":328,"o":"m 107 689 q 121 703 107 703 l 192 703 q 206 689 206 703 l 206 14 q 192 0 206 0 l 121 0 q 107 14 107 0 l 107 689 m 156 807 q 40 847 88 807 q -14 944 -7 886 l -14 947 q -1 958 -14 958 l 36 958 q 51 944 50 958 q 86 886 57 910 q 156 863 115 863 q 227 885 197 863 q 261 944 257 908 q 276 958 263 958 l 314 958 q 328 946 328 958 q 274 847 322 886 q 156 807 225 807 z "},"î":{"ha":301,"x_min":-26,"x_max":322,"o":"m 107 689 q 121 703 107 703 l 192 703 q 206 689 206 703 l 206 14 q 192 0 206 0 l 121 0 q 107 14 107 0 l 107 689 m 90 964 q 108 972 96 972 l 189 972 q 207 964 201 972 l 319 814 q 322 806 322 811 q 319 800 322 803 q 311 797 317 797 l 256 797 q 238 806 243 797 l 154 919 q 150 922 153 922 q 146 919 147 922 l 61 806 q 43 797 56 797 l -12 797 q -24 802 -21 797 q -21 814 -26 807 l 90 964 z "},"ï":{"ha":311,"x_min":-42,"x_max":351,"o":"m 107 689 q 121 703 107 703 l 192 703 q 206 689 206 703 l 206 14 q 192 0 206 0 l 121 0 q 107 14 107 0 l 107 689 z "},"ị":{"ha":347,"x_min":97,"x_max":253,"o":"m 175 831 q 119 853 140 831 q 97 908 97 875 q 119 965 97 943 q 175 986 140 986 q 231 965 208 986 q 253 908 253 943 q 231 853 253 875 q 175 831 208 831 m 122 690 q 136 704 122 704 l 207 704 q 221 690 221 704 l 221 15 q 207 1 221 1 l 136 1 q 122 15 122 1 l 122 690 m 176 -253 q 124 -232 144 -253 q 103 -179 103 -211 q 124 -126 103 -147 q 176 -106 144 -106 q 229 -126 208 -106 q 250 -179 250 -147 q 229 -232 250 -211 q 176 -253 208 -253 z "},"ì":{"ha":301,"x_min":15,"x_max":206,"o":"m 107 689 q 121 703 107 703 l 192 703 q 206 689 206 703 l 206 14 q 192 0 206 0 l 121 0 q 107 14 107 0 l 107 689 m 129 794 q 113 804 119 794 l 18 956 q 15 964 15 961 q 28 972 15 972 l 90 972 q 107 963 103 972 l 189 811 l 192 804 q 188 797 192 800 q 179 794 185 794 l 129 794 z "},"ỉ":{"ha":311,"x_min":32,"x_max":279,"o":"m 107 689 q 121 703 107 703 l 192 703 q 206 689 206 703 l 206 14 q 192 0 206 0 l 121 0 q 107 14 107 0 l 107 689 m 146 769 q 136 776 139 771 q 136 786 133 781 q 158 824 146 807 q 183 853 171 840 q 210 883 201 869 q 218 918 218 897 q 201 953 218 938 q 160 968 183 968 q 120 957 136 968 q 85 918 104 946 q 65 915 76 907 l 43 929 q 39 949 32 938 q 92 1006 65 989 q 163 1024 118 1024 q 247 994 214 1024 q 279 918 279 965 q 267 867 279 888 q 228 819 254 847 q 189 772 199 793 q 171 764 183 763 l 146 769 z "},"ĳ":{"ha":683,"x_min":97,"x_max":583,"o":"m 175 831 q 119 853 140 831 q 97 908 97 875 q 119 965 97 943 q 175 986 140 986 q 231 965 208 986 q 253 908 253 943 q 231 853 253 875 q 175 831 208 831 m 122 690 q 136 704 122 704 l 207 704 q 221 690 221 704 l 221 15 q 207 1 221 1 l 136 1 q 122 15 122 1 l 122 690 m 506 831 q 450 853 472 831 q 428 908 428 875 q 450 965 428 943 q 506 986 472 986 q 562 965 540 986 q 583 908 583 943 q 562 853 583 875 q 506 831 540 831 m 293 -218 q 307 -204 293 -204 q 456 -61 456 -203 l 456 689 q 469 703 456 703 l 540 703 q 554 689 554 703 l 554 -61 q 497 -233 554 -179 q 307 -289 439 -287 q 293 -275 293 -289 l 293 -218 z "},"ī":{"ha":301,"x_min":-35,"x_max":339,"o":"m 107 689 q 121 703 107 703 l 192 703 q 206 689 206 703 l 206 14 q 192 0 206 0 l 121 0 q 107 14 107 0 l 107 689 m -35 882 q -21 896 -35 896 l 325 896 q 339 882 339 896 l 339 839 q 325 825 339 825 l -21 825 q -35 839 -35 825 l -35 882 z "},"į":{"ha":394,"x_min":100,"x_max":296,"o":"m 174 689 q 188 703 174 703 l 258 703 q 272 689 272 703 l 272 14 q 258 0 272 0 l 188 0 q 174 14 174 0 l 174 689 m 218 831 q 162 853 183 831 q 140 908 140 875 q 162 965 140 943 q 218 986 183 986 q 274 965 251 986 q 296 908 296 943 q 274 853 296 875 q 218 831 251 831 m 292 -239 q 282 -251 292 -247 q 225 -258 254 -258 q 148 -239 181 -258 q 104 -175 115 -219 q 100 -143 100 -161 q 182 -6 100 -71 q 200 0 189 0 l 238 0 q 249 -7 249 0 q 242 -17 249 -10 q 172 -131 172 -76 q 190 -181 172 -164 q 239 -197 208 -197 q 271 -193 254 -197 l 275 -192 q 288 -204 285 -192 l 292 -235 l 292 -239 z "},"ĩ":{"ha":311,"x_min":-43,"x_max":368,"o":"m 107 689 q 121 703 107 703 l 192 703 q 206 689 206 703 l 206 14 q 192 0 206 0 l 121 0 q 107 14 107 0 l 107 689 m 243 838 q 197 846 217 838 q 157 868 178 854 q 118 889 132 883 q 88 894 104 894 q 45 887 63 894 q 11 860 28 879 q -8 857 3 847 l -33 882 q -36 901 -43 892 q 83 969 10 969 q 123 963 106 969 q 155 948 140 956 q 174 938 169 940 q 194 926 179 935 q 220 914 208 918 q 243 910 232 910 q 283 918 265 910 q 317 949 300 926 q 336 951 325 963 l 360 928 q 363 907 368 919 q 310 856 343 874 q 243 838 278 838 z "},"j":{"ha":319,"x_min":-49,"x_max":242,"o":"m 164 831 q 108 853 131 831 q 86 908 86 875 q 108 965 86 943 q 164 986 131 986 q 220 965 199 986 q 242 908 242 943 q 220 853 242 875 q 164 831 199 831 m -49 -218 q -35 -204 -49 -204 q 114 -61 114 -203 l 114 689 q 128 703 114 703 l 199 703 q 213 689 213 703 l 213 -61 q 155 -233 213 -179 q -35 -289 97 -287 q -49 -275 -49 -289 l -49 -218 z "},"ȷ":{"ha":319,"x_min":-49,"x_max":213,"o":"m -49 -218 q -35 -204 -49 -204 q 114 -61 114 -203 l 114 689 q 128 703 114 703 l 199 703 q 213 689 213 703 l 213 -61 q 154 -233 213 -179 q -35 -289 96 -287 q -49 -275 -49 -289 l -49 -218 z "},"ĵ":{"ha":319,"x_min":-49,"x_max":336,"o":"m -49 -218 q -35 -204 -49 -204 q 114 -61 114 -203 l 114 689 q 128 703 114 703 l 199 703 q 213 689 213 703 l 213 -61 q 154 -233 213 -179 q -35 -289 96 -287 q -49 -275 -49 -289 l -49 -218 m 104 964 q 122 972 110 972 l 203 972 q 221 964 215 972 l 333 814 q 336 806 336 811 q 333 800 336 803 q 325 797 331 797 l 269 797 q 251 806 257 797 l 168 919 q 164 922 167 922 q 160 919 161 922 l 75 806 q 57 797 69 797 l 1 797 q -10 802 -7 797 q -7 814 -12 807 l 104 964 z "},"k":{"ha":683,"x_min":107,"x_max":650,"o":"m 107 958 q 121 972 107 972 l 192 972 q 206 958 206 972 l 206 390 q 208 386 206 388 q 213 388 210 385 l 507 696 q 524 703 514 703 l 607 703 q 618 697 615 703 q 615 686 621 692 l 438 489 q 436 482 435 486 l 649 17 l 650 11 q 638 0 650 0 l 563 0 q 547 11 551 0 l 368 417 q 361 418 365 422 l 208 257 q 206 250 206 254 l 206 14 q 192 0 206 0 l 121 0 q 107 14 107 0 l 107 958 z "},"ǩ":{"ha":683,"x_min":107,"x_max":650,"o":"m 107 958 q 121 972 107 972 l 192 972 q 206 958 206 972 l 206 390 q 208 386 206 388 q 213 388 210 385 l 507 696 q 524 703 514 703 l 607 703 q 618 697 615 703 q 615 686 621 692 l 438 489 q 436 482 435 486 l 649 17 l 650 11 q 638 0 650 0 l 563 0 q 547 11 551 0 l 368 417 q 361 418 365 422 l 208 257 q 206 250 206 254 l 206 14 q 192 0 206 0 l 121 0 q 107 14 107 0 l 107 958 z "},"l":{"ha":311,"x_min":107,"x_max":206,"o":"m 107 958 q 121 972 107 972 l 192 972 q 206 958 206 972 l 206 14 q 192 0 206 0 l 121 0 q 107 14 107 0 l 107 958 z "},"ĺ":{"ha":326,"x_min":106,"x_max":283,"o":"m 107 958 q 121 972 107 972 l 192 972 q 206 958 206 972 l 206 14 q 192 0 206 0 l 121 0 q 107 14 107 0 l 107 958 m 192 1232 q 208 1242 196 1242 l 271 1242 q 281 1237 279 1242 q 279 1225 283 1232 l 185 1074 q 168 1064 178 1064 l 119 1064 q 109 1069 113 1064 q 110 1081 106 1074 l 192 1232 z "},"ľ":{"ha":336,"x_min":107,"x_max":449,"o":"m 107 958 q 121 972 107 972 l 192 972 q 206 958 206 972 l 206 14 q 192 0 206 0 l 121 0 q 107 14 107 0 l 107 958 z "},"ļ":{"ha":326,"x_min":18,"x_max":206,"o":"m 107 958 q 121 972 107 972 l 192 972 q 206 958 206 972 l 206 14 q 192 0 206 0 l 121 0 q 107 14 107 0 l 107 958 z "},"ŀ":{"ha":376,"x_min":107,"x_max":263,"o":"m 135 958 q 149 972 135 972 l 219 972 q 233 958 233 972 l 233 14 q 219 0 233 0 l 149 0 q 135 14 135 0 l 135 958 m 185 1100 q 128 1122 150 1100 q 107 1178 107 1144 q 128 1234 107 1213 q 185 1256 150 1256 q 240 1234 218 1256 q 263 1178 263 1213 q 240 1122 263 1144 q 185 1100 218 1100 z "},"ł":{"ha":475,"x_min":39,"x_max":446,"o":"m 446 571 q 438 558 446 565 l 283 467 q 279 460 279 465 l 279 14 q 265 0 279 0 l 194 0 q 181 14 181 0 l 181 396 q 178 400 181 399 q 174 400 176 401 l 85 347 l 78 344 q 65 353 71 344 l 42 394 q 39 403 39 400 q 46 414 39 411 l 176 492 q 181 499 181 494 l 181 958 q 194 972 181 972 l 265 972 q 279 958 279 972 l 279 561 q 281 557 279 558 q 286 557 283 556 l 399 625 q 407 628 404 628 q 418 619 414 628 l 443 578 l 446 571 z "},"m":{"ha":1144,"x_min":107,"x_max":1043,"o":"m 818 713 q 983 650 922 713 q 1043 479 1043 588 l 1043 14 q 1029 0 1043 0 l 960 0 q 946 14 946 0 l 946 460 q 902 581 946 536 q 788 626 858 626 q 669 582 714 626 q 624 463 624 538 l 624 14 q 610 0 624 0 l 539 0 q 525 14 525 0 l 525 460 q 482 581 525 536 q 367 626 439 626 q 249 582 293 626 q 206 463 206 538 l 206 14 q 192 0 206 0 l 121 0 q 107 14 107 0 l 107 689 q 121 703 107 703 l 192 703 q 206 689 206 703 l 206 633 q 208 630 206 631 q 213 632 210 629 q 291 692 243 672 q 399 713 339 713 q 521 683 469 713 q 599 599 572 654 q 606 599 601 592 q 692 684 636 656 q 818 713 747 713 z "},"n":{"ha":746,"x_min":107,"x_max":642,"o":"m 400 713 q 576 647 510 713 q 642 472 642 582 l 642 14 q 628 0 642 0 l 557 0 q 543 14 543 0 l 543 453 q 497 578 543 531 q 376 626 451 626 q 253 579 300 626 q 206 456 206 532 l 206 14 q 192 0 206 0 l 121 0 q 107 14 107 0 l 107 689 q 121 703 107 703 l 192 703 q 206 689 206 703 l 206 629 q 208 625 206 626 q 211 625 210 624 q 400 713 272 713 z "},"ń":{"ha":756,"x_min":107,"x_max":642,"o":"m 400 713 q 576 647 510 713 q 642 472 642 582 l 642 14 q 628 0 642 0 l 557 0 q 543 14 543 0 l 543 453 q 497 578 543 531 q 376 626 451 626 q 253 579 300 626 q 206 456 206 532 l 206 14 q 192 0 206 0 l 121 0 q 107 14 107 0 l 107 689 q 121 703 107 703 l 192 703 q 206 689 206 703 l 206 629 q 208 625 206 626 q 211 625 210 624 q 400 713 272 713 m 407 963 q 424 972 411 972 l 486 972 q 497 967 494 972 q 494 956 499 963 l 400 804 q 383 794 393 794 l 335 794 q 324 799 328 794 q 325 811 321 804 l 407 963 z "},"ň":{"ha":756,"x_min":107,"x_max":642,"o":"m 400 713 q 576 647 510 713 q 642 472 642 582 l 642 14 q 628 0 642 0 l 557 0 q 543 14 543 0 l 543 453 q 497 578 543 531 q 376 626 451 626 q 253 579 300 626 q 206 456 206 532 l 206 14 q 192 0 206 0 l 121 0 q 107 14 107 0 l 107 689 q 121 703 107 703 l 192 703 q 206 689 206 703 l 206 629 q 208 625 206 626 q 211 625 210 624 q 400 713 272 713 m 214 956 q 211 964 211 958 q 214 969 211 967 q 222 972 217 972 l 278 972 q 296 964 290 972 l 381 850 q 385 849 382 849 q 389 850 388 849 l 472 964 q 490 972 478 972 l 546 972 q 557 967 554 972 q 554 956 560 963 l 442 806 q 424 797 436 797 l 343 797 q 325 806 331 797 l 214 956 z "},"ŋ":{"ha":753,"x_min":107,"x_max":649,"o":"m 642 290 q 646 285 642 288 q 649 272 649 279 l 649 -11 q 599 -181 649 -125 q 432 -240 550 -237 q 418 -226 418 -240 l 418 -172 q 432 -158 418 -158 q 550 -14 550 -150 l 550 -4 q 546 1 550 -1 q 543 14 543 7 l 543 453 q 497 578 543 531 q 376 626 451 626 q 253 579 300 626 q 206 456 206 532 l 206 14 q 192 0 206 0 l 121 0 q 107 14 107 0 l 107 689 q 121 703 107 703 l 192 703 q 206 689 206 703 l 206 629 q 208 625 206 626 q 213 626 211 624 q 400 713 272 713 q 576 647 510 713 q 642 472 642 582 l 642 290 z "},"ñ":{"ha":756,"x_min":107,"x_max":642,"o":"m 400 713 q 576 647 510 713 q 642 472 642 582 l 642 14 q 628 0 642 0 l 557 0 q 543 14 543 0 l 543 453 q 497 578 543 531 q 376 626 451 626 q 253 579 300 626 q 206 456 206 532 l 206 14 q 192 0 206 0 l 121 0 q 107 14 107 0 l 107 689 q 121 703 107 703 l 192 703 q 206 689 206 703 l 206 629 q 208 625 206 626 q 211 625 210 624 q 400 713 272 713 m 467 838 q 421 846 440 838 q 381 868 401 854 q 342 889 356 883 q 311 894 328 894 q 269 887 286 894 q 235 860 251 879 q 215 857 226 847 l 190 882 q 188 901 181 892 q 307 969 233 969 q 347 963 329 969 q 378 948 364 956 q 397 938 393 940 q 417 926 403 935 q 444 914 432 918 q 467 910 456 910 q 506 918 489 910 q 540 949 524 926 q 560 951 549 963 l 583 928 q 586 907 592 919 q 534 856 567 874 q 467 838 501 838 z "},"o":{"ha":724,"x_min":71,"x_max":651,"o":"m 363 -11 q 190 40 263 -11 q 90 182 118 92 q 71 353 71 246 q 90 522 71 460 q 189 663 117 611 q 364 714 261 714 q 534 663 463 714 q 632 524 606 611 q 651 353 651 464 q 632 182 651 240 q 534 40 606 92 q 363 -11 463 -11 m 363 75 q 476 112 429 75 q 540 211 524 149 q 553 351 553 261 q 542 492 553 443 q 477 591 525 554 q 361 628 429 628 q 246 591 293 628 q 182 492 199 554 q 171 351 171 443 q 182 211 171 260 q 245 112 197 149 q 363 75 293 75 z "},"ó":{"ha":744,"x_min":71,"x_max":651,"o":"m 363 -11 q 190 40 263 -11 q 90 182 118 92 q 71 353 71 246 q 90 522 71 460 q 189 663 117 611 q 364 714 261 714 q 534 663 463 714 q 632 524 606 611 q 651 353 651 464 q 632 182 651 240 q 534 40 606 92 q 363 -11 463 -11 m 363 75 q 476 112 429 75 q 540 211 524 149 q 553 351 553 261 q 542 492 553 443 q 477 591 525 554 q 361 628 429 628 q 246 591 293 628 q 182 492 199 554 q 171 351 171 443 q 182 211 171 260 q 245 112 197 149 q 363 75 293 75 m 399 963 q 415 972 403 972 l 478 972 q 488 967 486 972 q 486 956 490 963 l 392 804 q 375 794 385 794 l 326 794 q 316 799 319 794 q 317 811 313 804 l 399 963 z "},"ŏ":{"ha":724,"x_min":71,"x_max":651,"o":"m 363 -11 q 190 40 263 -11 q 90 182 118 92 q 71 353 71 246 q 90 522 71 460 q 189 663 117 611 q 364 714 261 714 q 534 663 463 714 q 632 524 606 611 q 651 353 651 464 q 632 182 651 240 q 534 40 606 92 q 363 -11 463 -11 m 363 75 q 476 112 429 75 q 540 211 524 149 q 553 351 553 261 q 542 492 553 443 q 477 591 525 554 q 361 628 429 628 q 246 591 293 628 q 182 492 199 554 q 171 351 171 443 q 182 211 171 260 q 245 112 197 149 q 363 75 293 75 m 360 807 q 244 847 292 807 q 190 944 197 886 l 190 947 q 203 958 190 958 l 240 958 q 256 944 254 958 q 290 886 261 910 q 360 863 319 863 q 431 885 401 863 q 465 944 461 908 q 481 958 467 958 l 518 958 q 532 946 532 958 q 478 847 526 886 q 360 807 429 807 z "},"ô":{"ha":744,"x_min":71,"x_max":651,"o":"m 363 -11 q 190 40 263 -11 q 90 182 118 92 q 71 353 71 246 q 90 522 71 460 q 189 663 117 611 q 364 714 261 714 q 534 663 463 714 q 632 524 606 611 q 651 353 651 464 q 632 182 651 240 q 534 40 606 92 q 363 -11 463 -11 m 363 75 q 476 112 429 75 q 540 211 524 149 q 553 351 553 261 q 542 492 553 443 q 477 591 525 554 q 361 628 429 628 q 246 591 293 628 q 182 492 199 554 q 171 351 171 443 q 182 211 171 260 q 245 112 197 149 q 363 75 293 75 m 313 964 q 331 972 318 972 l 411 972 q 429 964 424 972 l 542 814 q 544 806 544 811 q 542 800 544 803 q 533 797 539 797 l 478 797 q 460 806 465 797 l 376 919 q 372 922 375 922 q 368 919 369 922 l 283 806 q 265 797 278 797 l 210 797 q 199 802 201 797 q 201 814 196 807 l 313 964 z "},"ố":{"ha":724,"x_min":71,"x_max":707,"o":"m 363 -11 q 190 40 263 -11 q 90 182 118 92 q 71 353 71 246 q 90 522 71 460 q 189 663 117 611 q 364 714 261 714 q 534 663 463 714 q 632 524 606 611 q 651 353 651 464 q 632 182 651 240 q 534 40 606 92 q 363 -11 463 -11 m 363 75 q 476 112 429 75 q 540 211 524 149 q 553 351 553 261 q 542 492 553 443 q 477 591 525 554 q 361 628 429 628 q 246 591 293 628 q 182 492 199 554 q 171 351 171 443 q 182 211 171 260 q 245 112 197 149 q 363 75 293 75 z "},"ộ":{"ha":724,"x_min":71,"x_max":651,"o":"m 363 -11 q 190 40 263 -11 q 90 182 118 92 q 71 353 71 246 q 90 522 71 460 q 189 663 117 611 q 364 714 261 714 q 534 663 463 714 q 632 524 606 611 q 651 353 651 464 q 632 182 651 240 q 534 40 606 92 q 363 -11 463 -11 m 363 75 q 476 112 429 75 q 540 211 524 149 q 553 351 553 261 q 542 492 553 443 q 477 591 525 554 q 361 628 429 628 q 246 591 293 628 q 182 492 199 554 q 171 351 171 443 q 182 211 171 260 q 245 112 197 149 q 363 75 293 75 m 364 -253 q 311 -232 332 -253 q 290 -179 290 -211 q 311 -126 290 -147 q 364 -106 332 -106 q 417 -126 396 -106 q 438 -179 438 -147 q 417 -232 438 -211 q 364 -253 396 -253 m 301 964 q 319 972 307 972 l 400 972 q 418 964 413 972 l 531 814 q 533 806 533 811 q 531 800 533 803 q 522 797 528 797 l 467 797 q 449 806 454 797 l 365 919 q 361 922 364 922 q 357 919 358 922 l 272 806 q 254 797 267 797 l 199 797 q 188 802 190 797 q 190 814 185 807 l 301 964 z "},"ồ":{"ha":724,"x_min":71,"x_max":651,"o":"m 363 -11 q 190 40 263 -11 q 90 182 118 92 q 71 353 71 246 q 90 522 71 460 q 189 663 117 611 q 364 714 261 714 q 534 663 463 714 q 632 524 606 611 q 651 353 651 464 q 632 182 651 240 q 534 40 606 92 q 363 -11 463 -11 m 363 75 q 476 112 429 75 q 540 211 524 149 q 553 351 553 261 q 542 492 553 443 q 477 591 525 554 q 361 628 429 628 q 246 591 293 628 q 182 492 199 554 q 171 351 171 443 q 182 211 171 260 q 245 112 197 149 q 363 75 293 75 z "},"ổ":{"ha":724,"x_min":71,"x_max":651,"o":"m 363 -11 q 190 40 263 -11 q 90 182 118 92 q 71 353 71 246 q 90 522 71 460 q 189 663 117 611 q 364 714 261 714 q 534 663 463 714 q 632 524 606 611 q 651 353 651 464 q 632 182 651 240 q 534 40 606 92 q 363 -11 463 -11 m 363 75 q 476 112 429 75 q 540 211 524 149 q 553 351 553 261 q 542 492 553 443 q 477 591 525 554 q 361 628 429 628 q 246 591 293 628 q 182 492 199 554 q 171 351 171 443 q 182 211 171 260 q 245 112 197 149 q 363 75 293 75 z "},"ỗ":{"ha":724,"x_min":71,"x_max":651,"o":"m 363 -11 q 190 40 263 -11 q 90 182 118 92 q 71 353 71 246 q 90 522 71 460 q 189 663 117 611 q 364 714 261 714 q 534 663 463 714 q 632 524 606 611 q 651 353 651 464 q 632 182 651 240 q 534 40 606 92 q 363 -11 463 -11 m 363 75 q 476 112 429 75 q 540 211 524 149 q 553 351 553 261 q 542 492 553 443 q 477 591 525 554 q 361 628 429 628 q 246 591 293 628 q 182 492 199 554 q 171 351 171 443 q 182 211 171 260 q 245 112 197 149 q 363 75 293 75 z "},"ö":{"ha":744,"x_min":71,"x_max":651,"o":"m 363 -11 q 190 40 263 -11 q 90 182 118 92 q 71 353 71 246 q 90 522 71 460 q 189 663 117 611 q 364 714 261 714 q 534 663 463 714 q 632 524 606 611 q 651 353 651 464 q 632 182 651 240 q 534 40 606 92 q 363 -11 463 -11 m 363 75 q 476 112 429 75 q 540 211 524 149 q 553 351 553 261 q 542 492 553 443 q 477 591 525 554 q 361 628 429 628 q 246 591 293 628 q 182 492 199 554 q 171 351 171 443 q 182 211 171 260 q 245 112 197 149 q 363 75 293 75 z "},"ọ":{"ha":724,"x_min":71,"x_max":651,"o":"m 363 -11 q 190 40 263 -11 q 90 182 118 92 q 71 353 71 246 q 90 522 71 460 q 189 663 117 611 q 364 714 261 714 q 534 663 463 714 q 632 524 606 611 q 651 353 651 464 q 632 182 651 240 q 534 40 606 92 q 363 -11 463 -11 m 363 75 q 476 112 429 75 q 540 211 524 149 q 553 351 553 261 q 542 492 553 443 q 477 591 525 554 q 361 628 429 628 q 246 591 293 628 q 182 492 199 554 q 171 351 171 443 q 182 211 171 260 q 245 112 197 149 q 363 75 293 75 m 364 -253 q 311 -232 332 -253 q 290 -179 290 -211 q 311 -126 290 -147 q 364 -106 332 -106 q 417 -126 396 -106 q 438 -179 438 -147 q 417 -232 438 -211 q 364 -253 396 -253 z "},"ò":{"ha":744,"x_min":71,"x_max":651,"o":"m 363 -11 q 190 40 263 -11 q 90 182 118 92 q 71 353 71 246 q 90 522 71 460 q 189 663 117 611 q 364 714 261 714 q 534 663 463 714 q 632 524 606 611 q 651 353 651 464 q 632 182 651 240 q 534 40 606 92 q 363 -11 463 -11 m 363 75 q 476 112 429 75 q 540 211 524 149 q 553 351 553 261 q 542 492 553 443 q 477 591 525 554 q 361 628 429 628 q 246 591 293 628 q 182 492 199 554 q 171 351 171 443 q 182 211 171 260 q 245 112 197 149 q 363 75 293 75 m 351 794 q 335 804 342 794 l 240 956 q 238 964 238 961 q 250 972 238 972 l 313 972 q 329 963 325 972 l 411 811 l 414 804 q 410 797 414 800 q 401 794 407 794 l 351 794 z "},"ỏ":{"ha":724,"x_min":71,"x_max":651,"o":"m 363 -11 q 190 40 263 -11 q 90 182 118 92 q 71 353 71 246 q 90 522 71 460 q 189 663 117 611 q 364 714 261 714 q 534 663 463 714 q 632 524 606 611 q 651 353 651 464 q 632 182 651 240 q 534 40 606 92 q 363 -11 463 -11 m 363 75 q 476 112 429 75 q 540 211 524 149 q 553 351 553 261 q 542 492 553 443 q 477 591 525 554 q 361 628 429 628 q 246 591 293 628 q 182 492 199 554 q 171 351 171 443 q 182 211 171 260 q 245 112 197 149 q 363 75 293 75 m 350 769 q 340 776 343 771 q 340 786 338 781 q 363 824 350 807 q 388 853 375 840 q 414 883 406 869 q 422 918 422 897 q 405 953 422 938 q 364 968 388 968 q 324 957 340 968 q 289 918 308 946 q 269 915 281 907 l 247 929 q 243 949 236 938 q 296 1006 269 989 q 367 1024 322 1024 q 451 994 418 1024 q 483 918 483 965 q 471 867 483 888 q 432 819 458 847 q 393 772 403 793 q 375 764 388 763 l 350 769 z "},"ơ":{"ha":724,"x_min":71,"x_max":651,"o":"m 632 524 q 651 353 651 464 q 632 182 651 240 q 534 40 606 92 q 363 -11 463 -11 q 190 40 263 -11 q 90 182 118 92 q 71 353 71 246 q 90 522 71 460 q 189 663 117 611 q 364 714 261 714 q 417 710 392 714 q 424 714 422 710 q 436 754 432 726 l 436 760 q 450 771 438 771 l 489 771 q 503 757 503 771 q 488 696 497 717 q 490 688 485 689 q 578 622 542 664 q 632 524 614 581 m 540 211 q 553 351 553 261 q 542 492 553 443 q 496 574 528 540 q 418 619 464 607 q 410 619 414 622 q 340 600 382 604 q 331 603 335 600 q 326 613 326 607 l 326 619 q 324 624 326 622 q 321 624 322 625 q 233 579 268 614 q 182 492 197 544 q 171 351 171 443 q 182 211 171 260 q 245 112 197 149 q 363 75 293 75 q 476 112 429 75 q 540 211 524 149 z "},"ớ":{"ha":724,"x_min":71,"x_max":651,"o":"m 632 524 q 651 353 651 464 q 632 182 651 240 q 534 40 606 92 q 363 -11 463 -11 q 190 40 263 -11 q 90 182 118 92 q 71 353 71 246 q 90 522 71 460 q 189 663 117 611 q 364 714 261 714 q 417 710 392 714 q 424 714 422 710 q 436 754 432 726 l 436 760 q 450 771 438 771 l 489 771 q 503 757 503 771 q 488 696 497 717 q 490 688 485 689 q 578 622 542 664 q 632 524 614 581 m 540 211 q 553 351 553 261 q 542 492 553 443 q 496 574 528 540 q 418 619 464 607 q 410 619 414 622 q 340 600 382 604 q 331 603 335 600 q 326 613 326 607 l 326 619 q 324 624 326 622 q 321 624 322 625 q 233 579 268 614 q 182 492 197 544 q 171 351 171 443 q 182 211 171 260 q 245 112 197 149 q 363 75 293 75 q 476 112 429 75 q 540 211 524 149 m 388 963 q 404 972 392 972 l 467 972 q 477 967 475 972 q 475 956 479 963 l 381 804 q 364 794 374 794 l 315 794 q 305 799 308 794 q 306 811 301 804 l 388 963 z "},"ợ":{"ha":724,"x_min":71,"x_max":651,"o":"m 632 524 q 651 353 651 464 q 632 182 651 240 q 534 40 606 92 q 363 -11 463 -11 q 190 40 263 -11 q 90 182 118 92 q 71 353 71 246 q 90 522 71 460 q 189 663 117 611 q 364 714 261 714 q 417 710 392 714 q 424 714 422 710 q 436 754 432 726 l 436 760 q 450 771 438 771 l 489 771 q 503 757 503 771 q 488 696 497 717 q 490 688 485 689 q 578 622 542 664 q 632 524 614 581 m 540 211 q 553 351 553 261 q 542 492 553 443 q 496 574 528 540 q 418 619 464 607 q 410 619 414 622 q 340 600 382 604 q 331 603 335 600 q 326 613 326 607 l 326 619 q 324 624 326 622 q 321 624 322 625 q 233 579 268 614 q 182 492 197 544 q 171 351 171 443 q 182 211 171 260 q 245 112 197 149 q 363 75 293 75 q 476 112 429 75 q 540 211 524 149 m 364 -253 q 311 -232 332 -253 q 290 -179 290 -211 q 311 -126 290 -147 q 364 -106 332 -106 q 417 -126 396 -106 q 438 -179 438 -147 q 417 -232 438 -211 q 364 -253 396 -253 z "},"ờ":{"ha":724,"x_min":71,"x_max":651,"o":"m 632 524 q 651 353 651 464 q 632 182 651 240 q 534 40 606 92 q 363 -11 463 -11 q 190 40 263 -11 q 90 182 118 92 q 71 353 71 246 q 90 522 71 460 q 189 663 117 611 q 364 714 261 714 q 417 710 392 714 q 424 714 422 710 q 436 754 432 726 l 436 760 q 450 771 438 771 l 489 771 q 503 757 503 771 q 488 696 497 717 q 490 688 485 689 q 578 622 542 664 q 632 524 614 581 m 540 211 q 553 351 553 261 q 542 492 553 443 q 496 574 528 540 q 418 619 464 607 q 410 619 414 622 q 340 600 382 604 q 331 603 335 600 q 326 613 326 607 l 326 619 q 324 624 326 622 q 321 624 322 625 q 233 579 268 614 q 182 492 197 544 q 171 351 171 443 q 182 211 171 260 q 245 112 197 149 q 363 75 293 75 q 476 112 429 75 q 540 211 524 149 m 340 794 q 324 804 331 794 l 229 956 q 226 964 226 961 q 239 972 226 972 l 301 972 q 318 963 314 972 l 400 811 l 403 804 q 399 797 403 800 q 390 794 396 794 l 340 794 z "},"ở":{"ha":724,"x_min":71,"x_max":651,"o":"m 632 524 q 651 353 651 464 q 632 182 651 240 q 534 40 606 92 q 363 -11 463 -11 q 190 40 263 -11 q 90 182 118 92 q 71 353 71 246 q 90 522 71 460 q 189 663 117 611 q 364 714 261 714 q 417 710 392 714 q 424 714 422 710 q 436 754 432 726 l 436 760 q 450 771 438 771 l 489 771 q 503 757 503 771 q 488 696 497 717 q 490 688 485 689 q 578 622 542 664 q 632 524 614 581 m 540 211 q 553 351 553 261 q 542 492 553 443 q 496 574 528 540 q 418 619 464 607 q 410 619 414 622 q 340 600 382 604 q 331 603 335 600 q 326 613 326 607 l 326 619 q 324 624 326 622 q 321 624 322 625 q 233 579 268 614 q 182 492 197 544 q 171 351 171 443 q 182 211 171 260 q 245 112 197 149 q 363 75 293 75 q 476 112 429 75 q 540 211 524 149 m 350 769 q 340 776 343 771 q 340 786 338 781 q 363 824 350 807 q 388 853 375 840 q 414 883 406 869 q 422 918 422 897 q 405 953 422 938 q 364 968 388 968 q 324 957 340 968 q 289 918 308 946 q 269 915 281 907 l 247 929 q 243 949 236 938 q 296 1006 269 989 q 367 1024 322 1024 q 451 994 418 1024 q 483 918 483 965 q 471 867 483 888 q 432 819 458 847 q 393 772 403 793 q 375 764 388 763 l 350 769 z "},"ỡ":{"ha":724,"x_min":71,"x_max":651,"o":"m 632 524 q 651 353 651 464 q 632 182 651 240 q 534 40 606 92 q 363 -11 463 -11 q 190 40 263 -11 q 90 182 118 92 q 71 353 71 246 q 90 522 71 460 q 189 663 117 611 q 364 714 261 714 q 417 710 392 714 q 424 714 422 710 q 436 754 432 726 l 436 760 q 450 771 438 771 l 489 771 q 503 757 503 771 q 488 696 497 717 q 490 688 485 689 q 578 622 542 664 q 632 524 614 581 m 540 211 q 553 351 553 261 q 542 492 553 443 q 496 574 528 540 q 418 619 464 607 q 410 619 414 622 q 340 600 382 604 q 331 603 335 600 q 326 613 326 607 l 326 619 q 324 624 326 622 q 321 624 322 625 q 233 579 268 614 q 182 492 197 544 q 171 351 171 443 q 182 211 171 260 q 245 112 197 149 q 363 75 293 75 q 476 112 429 75 q 540 211 524 149 m 426 843 q 381 851 400 843 q 340 874 361 860 q 301 894 315 889 q 271 900 288 900 q 228 892 246 900 q 194 865 211 885 q 175 863 186 853 l 150 888 q 147 907 140 897 q 267 975 193 975 q 306 968 289 975 q 338 953 324 961 q 357 943 353 946 q 377 932 363 940 q 403 919 392 924 q 426 915 415 915 q 466 924 449 915 q 500 954 483 932 q 519 957 508 968 l 543 933 q 546 913 551 925 q 494 861 526 879 q 426 843 461 843 z "},"ő":{"ha":744,"x_min":71,"x_max":651,"o":"m 363 -11 q 190 40 263 -11 q 90 182 118 92 q 71 353 71 246 q 90 522 71 460 q 189 663 117 611 q 364 714 261 714 q 534 663 463 714 q 632 524 606 611 q 651 353 651 464 q 632 182 651 240 q 534 40 606 92 q 363 -11 463 -11 m 363 75 q 476 112 429 75 q 540 211 524 149 q 553 351 553 261 q 542 492 553 443 q 477 591 525 554 q 361 628 429 628 q 246 591 293 628 q 182 492 199 554 q 171 351 171 443 q 182 211 171 260 q 245 112 197 149 q 363 75 293 75 m 294 963 q 311 972 299 972 l 375 972 q 386 967 383 972 q 385 956 389 963 l 301 804 q 285 794 297 794 l 226 794 q 217 799 219 794 q 217 811 214 804 l 294 963 m 525 963 q 542 972 529 972 l 601 972 q 613 967 610 972 q 611 956 615 963 l 526 804 q 510 794 519 794 l 454 794 q 442 799 446 794 q 443 811 439 804 l 525 963 z "},"ō":{"ha":744,"x_min":71,"x_max":651,"o":"m 363 -11 q 190 40 263 -11 q 90 182 118 92 q 71 353 71 246 q 90 522 71 460 q 189 663 117 611 q 364 714 261 714 q 534 663 463 714 q 632 524 606 611 q 651 353 651 464 q 632 182 651 240 q 534 40 606 92 q 363 -11 463 -11 m 363 75 q 476 112 429 75 q 540 211 524 149 q 553 351 553 261 q 542 492 553 443 q 477 591 525 554 q 361 628 429 628 q 246 591 293 628 q 182 492 199 554 q 171 351 171 443 q 182 211 171 260 q 245 112 197 149 q 363 75 293 75 m 186 882 q 200 896 186 896 l 546 896 q 560 882 560 896 l 560 839 q 546 825 560 825 l 200 825 q 186 839 186 825 l 186 882 z "},"ø":{"ha":732,"x_min":75,"x_max":658,"o":"m 596 614 q 596 606 594 610 q 636 524 621 574 q 656 353 656 464 q 636 182 656 240 q 538 40 610 92 q 367 -11 467 -11 q 192 43 265 -11 q 185 42 186 46 l 138 -24 q 118 -26 129 -36 l 94 -8 q 92 11 85 0 l 142 82 q 142 90 144 86 q 94 182 113 125 q 75 353 75 246 q 94 522 75 460 q 193 663 121 611 q 368 714 265 714 q 547 657 472 714 q 554 657 551 653 l 604 726 q 624 729 613 739 l 649 711 q 651 692 658 703 l 596 614 m 186 211 q 200 174 194 186 q 207 172 203 168 l 494 572 q 493 581 497 576 q 365 628 442 628 q 250 591 297 628 q 186 492 203 554 q 175 351 175 443 q 186 211 175 260 m 544 211 q 557 351 557 261 q 546 492 557 443 q 536 519 542 507 q 529 519 535 525 l 243 124 q 244 117 240 118 q 367 75 294 75 q 481 112 433 75 q 544 211 528 149 z "},"ǿ":{"ha":732,"x_min":75,"x_max":658,"o":"m 596 614 q 596 606 594 610 q 636 524 621 574 q 656 353 656 464 q 636 182 656 240 q 538 40 610 92 q 367 -11 467 -11 q 192 43 265 -11 q 185 42 186 46 l 138 -24 q 118 -26 129 -36 l 94 -8 q 92 11 85 0 l 142 82 q 142 90 144 86 q 94 182 113 125 q 75 353 75 246 q 94 522 75 460 q 193 663 121 611 q 368 714 265 714 q 547 657 472 714 q 554 657 551 653 l 604 726 q 624 729 613 739 l 649 711 q 651 692 658 703 l 596 614 m 186 211 q 200 174 194 186 q 207 172 203 168 l 494 572 q 493 581 497 576 q 365 628 442 628 q 250 591 297 628 q 186 492 203 554 q 175 351 175 443 q 186 211 175 260 m 544 211 q 557 351 557 261 q 546 492 557 443 q 536 519 542 507 q 529 519 535 525 l 243 124 q 244 117 240 118 q 367 75 294 75 q 481 112 433 75 q 544 211 528 149 m 392 963 q 408 972 396 972 l 471 972 q 481 967 479 972 q 479 956 483 963 l 385 804 q 368 794 378 794 l 319 794 q 309 799 313 794 q 310 811 306 804 l 392 963 z "},"õ":{"ha":744,"x_min":71,"x_max":651,"o":"m 363 -11 q 190 40 263 -11 q 90 182 118 92 q 71 353 71 246 q 90 522 71 460 q 189 663 117 611 q 364 714 261 714 q 534 663 463 714 q 632 524 606 611 q 651 353 651 464 q 632 182 651 240 q 534 40 606 92 q 363 -11 463 -11 m 363 75 q 476 112 429 75 q 540 211 524 149 q 553 351 553 261 q 542 492 553 443 q 477 591 525 554 q 361 628 429 628 q 246 591 293 628 q 182 492 199 554 q 171 351 171 443 q 182 211 171 260 q 245 112 197 149 q 363 75 293 75 m 458 838 q 413 846 432 838 q 372 868 393 854 q 333 889 347 883 q 303 894 319 894 q 260 887 278 894 q 226 860 243 879 q 207 857 218 847 l 182 882 q 179 901 172 892 q 299 969 225 969 q 338 963 321 969 q 370 948 356 956 q 389 938 385 940 q 409 926 394 935 q 435 914 424 918 q 458 910 447 910 q 498 918 481 910 q 532 949 515 926 q 551 951 540 963 l 575 928 q 578 907 583 919 q 526 856 558 874 q 458 838 493 838 z "},"œ":{"ha":1167,"x_min":78,"x_max":1097,"o":"m 833 74 q 935 102 889 74 q 1006 178 982 131 q 1024 183 1013 190 l 1068 156 q 1074 136 1079 149 q 975 28 1040 68 q 822 -11 910 -11 q 688 21 747 -11 q 592 110 628 53 q 583 110 588 114 q 488 22 547 54 q 356 -11 428 -11 q 188 41 257 -11 q 93 181 118 93 q 81 253 83 214 q 78 353 78 292 q 81 455 78 417 q 93 524 83 493 q 187 662 117 610 q 356 714 257 714 q 486 681 426 714 q 583 593 546 649 q 592 593 588 589 q 687 681 628 649 q 817 714 746 714 q 988 660 915 714 q 1083 522 1060 607 q 1094 457 1092 494 q 1097 338 1097 419 q 1083 322 1097 322 l 644 322 q 639 317 639 322 q 647 211 639 244 q 710 110 661 147 q 833 74 758 74 m 525 211 q 532 269 531 231 q 533 353 533 308 q 532 435 533 399 q 525 492 531 472 q 467 590 513 553 q 356 628 421 628 q 244 590 289 628 q 186 492 199 553 q 176 353 176 451 q 186 211 176 251 q 244 113 199 150 q 356 75 289 75 q 467 113 421 75 q 525 211 513 150 m 818 628 q 706 590 751 628 q 647 492 660 553 q 639 397 642 469 q 644 392 639 392 l 993 392 q 999 397 999 392 q 990 492 996 464 q 931 590 976 553 q 818 628 885 628 z "},"p":{"ha":767,"x_min":115,"x_max":672,"o":"m 653 528 q 672 351 672 465 q 656 179 672 242 q 564 40 631 90 q 399 -11 497 -11 q 297 11 343 -11 q 221 74 251 33 q 216 76 218 76 q 214 72 214 75 l 214 -256 q 200 -269 214 -269 l 129 -269 q 115 -256 115 -269 l 115 689 q 129 703 115 703 l 200 703 q 214 689 214 703 l 214 629 q 217 626 214 626 q 221 628 219 625 q 297 692 251 669 q 399 714 343 714 q 561 664 496 714 q 653 528 626 614 m 542 176 q 565 244 558 206 q 572 351 572 282 q 567 452 572 415 q 549 519 561 489 q 490 599 532 569 q 389 628 447 628 q 295 599 333 628 q 239 521 257 569 q 221 454 226 492 q 215 351 215 417 q 222 246 215 283 q 242 179 228 208 q 296 103 258 132 q 388 75 333 75 q 483 103 443 75 q 542 176 524 131 z "},"þ":{"ha":735,"x_min":107,"x_max":657,"o":"m 642 529 q 654 454 651 494 q 657 350 657 414 q 655 249 657 285 q 644 182 653 213 q 556 42 624 94 q 396 -11 489 -11 q 287 14 333 -11 q 213 83 240 39 q 208 87 211 88 q 206 82 206 86 l 206 -264 q 192 -278 206 -278 l 121 -278 q 107 -264 107 -278 l 107 958 q 121 972 107 972 l 192 972 q 206 958 206 972 l 206 622 q 208 618 206 618 q 213 621 210 618 q 393 714 271 714 q 554 663 488 714 q 642 529 621 611 m 544 208 q 552 257 550 231 q 554 351 554 283 q 552 447 554 421 q 544 494 550 474 q 486 590 533 553 q 372 628 439 628 q 265 592 308 628 q 210 503 222 557 q 208 493 208 499 q 207 488 207 492 l 206 485 l 206 217 l 207 211 l 207 208 q 263 113 219 151 q 372 75 306 75 q 486 113 439 75 q 544 208 533 150 z "},"q":{"ha":767,"x_min":94,"x_max":651,"o":"m 553 689 q 567 703 553 703 l 638 703 q 651 689 651 703 l 651 -256 q 638 -269 651 -269 l 567 -269 q 553 -256 553 -269 l 553 72 q 551 76 553 75 q 546 74 549 76 q 470 11 515 33 q 369 -11 425 -11 q 203 40 269 -11 q 111 179 136 90 q 94 351 94 242 q 114 528 94 460 q 206 664 140 614 q 369 714 272 714 q 470 692 425 714 q 546 629 515 669 q 551 627 549 626 q 553 631 553 628 l 553 689 m 525 179 q 545 246 539 208 q 551 351 551 283 q 546 456 551 418 q 528 521 540 493 q 472 599 510 569 q 379 628 435 628 q 278 599 321 628 q 219 519 235 569 q 200 453 206 490 q 194 351 194 417 q 202 245 194 283 q 225 176 210 207 q 283 103 243 131 q 379 75 324 75 q 471 103 433 75 q 525 179 508 132 z "},"r":{"ha":504,"x_min":107,"x_max":481,"o":"m 390 710 q 469 692 436 710 q 478 674 481 686 l 463 606 q 444 597 458 592 q 372 606 413 610 q 253 552 300 603 q 206 424 206 501 l 206 14 q 192 0 206 0 l 121 0 q 107 14 107 0 l 107 689 q 121 703 107 703 l 192 703 q 206 689 206 703 l 206 603 q 208 598 206 599 q 211 600 210 597 q 284 681 239 651 q 390 710 329 710 z "},"ŕ":{"ha":507,"x_min":107,"x_max":481,"o":"m 390 710 q 469 692 436 710 q 478 674 481 686 l 463 606 q 444 597 458 592 q 372 606 413 610 q 253 552 300 603 q 206 424 206 501 l 206 14 q 192 0 206 0 l 121 0 q 107 14 107 0 l 107 689 q 121 703 107 703 l 192 703 q 206 689 206 703 l 206 603 q 208 598 206 599 q 211 600 210 597 q 284 681 239 651 q 390 710 329 710 m 332 963 q 349 972 336 972 l 411 972 q 422 967 419 972 q 419 956 424 963 l 325 804 q 308 794 318 794 l 260 794 q 249 799 253 794 q 250 811 246 804 l 332 963 z "},"ř":{"ha":507,"x_min":107,"x_max":483,"o":"m 390 710 q 469 692 436 710 q 478 674 481 686 l 463 606 q 444 597 458 592 q 372 606 413 610 q 253 552 300 603 q 206 424 206 501 l 206 14 q 192 0 206 0 l 121 0 q 107 14 107 0 l 107 689 q 121 703 107 703 l 192 703 q 206 689 206 703 l 206 603 q 208 598 206 599 q 211 600 210 597 q 284 681 239 651 q 390 710 329 710 m 138 956 q 135 964 135 958 q 138 969 135 967 q 146 972 140 972 l 201 972 q 219 964 214 972 l 304 850 q 308 849 306 849 q 313 850 311 849 l 396 964 q 414 972 401 972 l 469 972 q 481 967 478 972 q 478 956 483 963 l 365 806 q 347 797 360 797 l 267 797 q 249 806 254 797 l 138 956 z "},"s":{"ha":638,"x_min":56,"x_max":578,"o":"m 319 -7 q 181 18 242 -7 q 88 85 121 43 q 56 178 56 126 l 56 194 q 69 208 56 208 l 136 208 q 150 194 150 208 l 150 183 q 198 103 150 138 q 318 69 246 69 q 435 102 390 69 q 479 185 479 135 q 457 242 479 219 q 403 276 435 264 q 307 308 371 289 q 179 353 229 331 q 94 415 129 375 q 60 515 60 454 q 130 657 60 604 q 314 710 200 710 q 449 685 390 710 q 540 616 508 660 q 572 518 572 572 l 572 514 q 558 500 572 500 l 492 500 q 478 514 478 500 l 478 518 q 433 597 478 565 q 313 629 388 629 q 199 601 242 629 q 156 522 156 572 q 197 450 156 475 q 325 400 238 425 q 456 357 406 378 q 542 296 506 336 q 578 192 578 256 q 507 47 578 101 q 319 -7 436 -7 z "},"ś":{"ha":672,"x_min":56,"x_max":578,"o":"m 319 -7 q 181 18 242 -7 q 88 85 121 43 q 56 178 56 126 l 56 194 q 69 208 56 208 l 136 208 q 150 194 150 208 l 150 183 q 198 103 150 138 q 318 69 246 69 q 435 102 390 69 q 479 185 479 135 q 457 242 479 219 q 403 276 435 264 q 307 308 371 289 q 179 353 229 331 q 94 415 129 375 q 60 515 60 454 q 130 657 60 604 q 314 710 200 710 q 449 685 390 710 q 540 616 508 660 q 572 518 572 572 l 572 514 q 558 500 572 500 l 492 500 q 478 514 478 500 l 478 518 q 433 597 478 565 q 313 629 388 629 q 199 601 242 629 q 156 522 156 572 q 197 450 156 475 q 325 400 238 425 q 456 357 406 378 q 542 296 506 336 q 578 192 578 256 q 507 47 578 101 q 319 -7 436 -7 m 363 963 q 379 972 367 972 l 442 972 q 452 967 450 972 q 450 956 454 963 l 356 804 q 339 794 349 794 l 290 794 q 280 799 283 794 q 281 811 276 804 l 363 963 z "},"š":{"ha":672,"x_min":56,"x_max":578,"o":"m 319 -7 q 181 18 242 -7 q 88 85 121 43 q 56 178 56 126 l 56 194 q 69 208 56 208 l 136 208 q 150 194 150 208 l 150 183 q 198 103 150 138 q 318 69 246 69 q 435 102 390 69 q 479 185 479 135 q 457 242 479 219 q 403 276 435 264 q 307 308 371 289 q 179 353 229 331 q 94 415 129 375 q 60 515 60 454 q 130 657 60 604 q 314 710 200 710 q 449 685 390 710 q 540 616 508 660 q 572 518 572 572 l 572 514 q 558 500 572 500 l 492 500 q 478 514 478 500 l 478 518 q 433 597 478 565 q 313 629 388 629 q 199 601 242 629 q 156 522 156 572 q 197 450 156 475 q 325 400 238 425 q 456 357 406 378 q 542 296 506 336 q 578 192 578 256 q 507 47 578 101 q 319 -7 436 -7 m 168 956 q 165 964 165 958 q 168 969 165 967 q 176 972 171 972 l 232 972 q 250 964 244 972 l 335 850 q 339 849 336 849 q 343 850 342 849 l 426 964 q 444 972 432 972 l 500 972 q 511 967 508 972 q 508 956 514 963 l 396 806 q 378 797 390 797 l 297 797 q 279 806 285 797 l 168 956 z "},"ş":{"ha":672,"x_min":56,"x_max":578,"o":"m 578 192 q 526 65 578 117 q 383 -1 474 14 q 382 -8 375 -4 q 456 -139 456 -72 q 451 -171 456 -157 q 408 -235 440 -215 q 331 -254 375 -254 q 274 -247 301 -254 q 264 -231 263 -243 l 268 -200 q 274 -190 269 -193 q 285 -189 279 -187 q 315 -193 301 -193 q 365 -177 346 -193 q 383 -128 383 -161 q 308 -10 383 -71 q 301 -7 307 -7 q 173 22 229 -4 q 86 88 117 47 q 56 178 56 129 l 56 194 q 69 208 56 208 l 136 208 q 150 194 150 208 l 150 183 q 198 103 150 138 q 318 69 246 69 q 435 102 390 69 q 479 185 479 135 q 457 242 479 219 q 403 276 435 264 q 307 308 371 289 q 179 353 229 331 q 94 415 129 375 q 60 515 60 454 q 130 657 60 604 q 314 710 200 710 q 449 685 390 710 q 540 616 508 660 q 572 518 572 572 l 572 514 q 558 500 572 500 l 492 500 q 478 514 478 500 l 478 518 q 433 597 478 565 q 313 629 388 629 q 199 601 242 629 q 156 522 156 572 q 197 450 156 475 q 325 400 238 425 q 456 357 406 378 q 542 296 506 336 q 578 192 578 256 z "},"ŝ":{"ha":638,"x_min":56,"x_max":578,"o":"m 319 -7 q 181 18 242 -7 q 88 85 121 43 q 56 178 56 126 l 56 194 q 69 208 56 208 l 136 208 q 150 194 150 208 l 150 183 q 198 103 150 138 q 318 69 246 69 q 435 102 390 69 q 479 185 479 135 q 457 242 479 219 q 403 276 435 264 q 307 308 371 289 q 179 353 229 331 q 94 415 129 375 q 60 515 60 454 q 130 657 60 604 q 314 710 200 710 q 449 685 390 710 q 540 616 508 660 q 572 518 572 572 l 572 514 q 558 500 572 500 l 492 500 q 478 514 478 500 l 478 518 q 433 597 478 565 q 313 629 388 629 q 199 601 242 629 q 156 522 156 572 q 197 450 156 475 q 325 400 238 425 q 456 357 406 378 q 542 296 506 336 q 578 192 578 256 q 507 47 578 101 q 319 -7 436 -7 m 254 964 q 272 972 260 972 l 353 972 q 371 964 365 972 l 483 814 q 486 806 486 811 q 483 800 486 803 q 475 797 481 797 l 419 797 q 401 806 407 797 l 318 919 q 314 922 317 922 q 310 919 311 922 l 225 806 q 207 797 219 797 l 151 797 q 140 802 143 797 q 143 814 138 807 l 254 964 z "},"ß":{"ha":754,"x_min":107,"x_max":681,"o":"m 107 708 q 182 911 107 838 q 388 985 257 985 q 592 915 515 985 q 669 725 669 844 q 638 599 669 651 q 547 521 607 547 q 544 518 544 519 q 547 515 544 517 q 645 425 610 489 q 681 274 681 361 q 601 72 681 144 q 375 0 521 0 l 289 0 q 275 14 275 0 l 275 71 q 289 85 275 85 l 383 85 q 529 136 476 85 q 582 282 582 188 q 534 425 582 374 q 403 478 486 476 l 322 478 q 308 492 308 478 l 308 543 q 322 557 308 557 l 403 557 q 526 600 482 557 q 571 719 571 643 q 524 851 571 803 q 392 899 478 899 q 257 850 308 899 q 206 715 206 801 l 206 14 q 192 0 206 0 l 121 0 q 107 14 107 0 l 107 708 z "},"t":{"ha":450,"x_min":39,"x_max":415,"o":"m 415 635 q 401 621 415 621 l 243 621 q 238 615 238 621 l 238 206 q 267 112 238 139 q 361 85 297 85 l 397 85 q 411 71 411 85 l 411 14 q 397 0 411 0 q 346 -1 379 -1 q 194 36 244 -1 q 142 175 143 74 l 142 615 q 136 621 142 621 l 53 621 q 39 635 39 621 l 39 689 q 53 703 39 703 l 136 703 q 142 708 142 703 l 142 869 q 156 883 142 883 l 224 883 q 238 869 238 883 l 238 708 q 243 703 238 703 l 401 703 q 415 689 415 703 l 415 635 z "},"ŧ":{"ha":507,"x_min":39,"x_max":422,"o":"m 422 432 q 408 418 422 418 l 243 418 q 238 413 238 418 l 238 206 q 267 112 238 139 q 361 85 297 85 l 397 85 q 411 71 411 85 l 411 14 q 397 0 411 0 q 346 -1 379 -1 q 194 36 244 -1 q 142 175 143 74 l 142 413 q 136 418 142 418 l 72 418 q 58 432 58 418 l 58 469 q 72 483 58 483 l 136 483 q 142 489 142 483 l 142 615 q 136 621 142 621 l 53 621 q 39 635 39 621 l 39 689 q 53 703 39 703 l 136 703 q 142 708 142 703 l 142 869 q 156 883 142 883 l 224 883 q 238 869 238 883 l 238 708 q 243 703 238 703 l 401 703 q 415 689 415 703 l 415 635 q 401 621 415 621 l 243 621 q 238 615 238 621 l 238 489 q 243 483 238 483 l 408 483 q 422 469 422 483 l 422 432 z "},"ť":{"ha":507,"x_min":39,"x_max":503,"o":"m 415 635 q 401 621 415 621 l 243 621 q 238 615 238 621 l 238 206 q 267 112 238 139 q 361 85 297 85 l 397 85 q 411 71 411 85 l 411 14 q 397 0 411 0 q 346 -1 379 -1 q 194 36 244 -1 q 142 175 143 74 l 142 615 q 136 621 142 621 l 53 621 q 39 635 39 621 l 39 689 q 53 703 39 703 l 136 703 q 142 708 142 703 l 142 869 q 156 883 142 883 l 224 883 q 238 869 238 883 l 238 708 q 243 703 238 703 l 401 703 q 415 689 415 703 l 415 635 z "},"u":{"ha":739,"x_min":99,"x_max":633,"o":"m 535 689 q 549 703 535 703 l 619 703 q 633 689 633 703 l 633 14 q 619 0 633 0 l 549 0 q 535 14 535 0 l 535 74 q 532 78 535 76 q 528 76 529 79 q 343 -10 469 -10 q 220 17 276 -10 q 131 96 164 44 q 99 219 99 147 l 99 689 q 113 703 99 703 l 183 703 q 197 689 197 703 l 197 249 q 242 123 197 169 q 361 76 286 76 q 488 124 440 76 q 535 249 535 171 l 535 689 z "},"ú":{"ha":754,"x_min":99,"x_max":633,"o":"m 535 689 q 549 703 535 703 l 619 703 q 633 689 633 703 l 633 14 q 619 0 633 0 l 549 0 q 535 14 535 0 l 535 74 q 532 78 535 76 q 528 76 529 79 q 343 -10 469 -10 q 220 17 276 -10 q 131 96 164 44 q 99 219 99 147 l 99 689 q 113 703 99 703 l 183 703 q 197 689 197 703 l 197 249 q 242 123 197 169 q 361 76 286 76 q 488 124 440 76 q 535 249 535 171 l 535 689 m 404 963 q 421 972 408 972 l 483 972 q 494 967 492 972 q 492 956 496 963 l 397 804 q 381 794 390 794 l 332 794 q 322 799 325 794 q 322 811 318 804 l 404 963 z "}}}
